;TYPE=PLATED
;Layer: PTH_Through
;EasyEDA Pro v2.2.45.4, 2026-02-08 12:52:01
;Gerber Generator version 0.3
M48
METRIC,LZ,0000.00000
;Hole size 1 = 0.30000 METRIC
T01C0.30000
;Hole size 2 = 0.30500 METRIC
T02C0.30500
;Hole size 3 = 0.35000 METRIC
T03C0.35000
;Hole size 4 = 0.60000 METRIC
T04C0.60000
;Hole size 5 = 0.80000 METRIC
T05C0.80000
;Hole size 6 = 1.00000 METRIC
T06C1.00000
;Hole size 7 = 1.10002 METRIC
T07C1.10002
;Hole size 8 = 2.00000 METRIC
T08C2.00000
%
G05
G90
T01
X13.46151Y-9.66273
X12.35396Y-24.79993
X14.49995Y-24.24993
X21.34994Y-35.79991
X21.34994Y-32.24992
X17.65634Y-23.90632
X60.19986Y-38.7499
X39.2999Y-39.6499
X52.14613Y-41.44611
X51.59988Y-34.24991
X50.99988Y-43.19989
X47.24989Y-42.99989
T02
X4.38298Y-23.92885
X11.38097Y-10.80387
X15.53697Y-10.93087
X11.18667Y-8.62387
X8.17897Y-8.60987
X19.41268Y-5.49997
X17.11644Y-8.64087
X3.83296Y-30.89992
X12.14996Y-8.64996
X4.89997Y-13.09995
X7.80003Y-16.54995
X4.24997Y-15.94995
X8.34996Y-21.99994
X8.34996Y-23.04993
X8.34996Y-18.84994
X6.99997Y-13.24995
X5.19747Y-34.29741
X10.01596Y-24.74993
X5.09997Y-43.59989
X5.89997Y-34.94991
X8.59996Y-30.84992
X8.84996Y-32.24992
X1.49998Y-32.79992
X1.49998Y-45.14989
X12.39996Y-11.94996
X10.89996Y-16.24995
X15.64995Y-16.24995
X10.49996Y-35.04991
X8.39996Y-28.64992
X14.69995Y-42.3499
X14.69995Y-36.99991
X12.59996Y-40.7499
X8.04996Y-39.5499
X8.04996Y-41.38468
X6.04997Y-36.09991
X7.94997Y-36.94991
X3.14997Y-34.69991
X17.62494Y-38.52491
X17.59995Y-37.524
X7.89997Y-31.69992
X6.94997Y-43.24989
X13.44995Y-28.74992
X15.94995Y-28.74992
X16.43642Y-31.52504
X12.79284Y-31.52504
X4.29997Y-33.44991
X5.89997Y-33.14991
X3.24997Y-31.74992
X1.54998Y-31.74992
X22.14995Y-39.63769
X22.39994Y-35.79991
X22.74994Y-32.1464
X16.59995Y-42.3499
X5.09997Y-45.99989
X30.24992Y-38.9499
X30.24992Y-42.3999
X25.99993Y-39.4499
X25.99993Y-41.01806
X25.99993Y-42.53663
X25.99993Y-37.79991
X23.14293Y-42.52205
X17.29995Y-41.5999
X23.94993Y-48.29988
X31.39992Y-44.29989
X23.99993Y-29.74992
X23.99993Y-43.59989
X25.07493Y-45.92489
X22.34994Y-43.59989
X25.07142Y-44.7499
X25.09993Y-47.44989
X25.09993Y-49.13576
X24.84993Y-32.49992
X44.24989Y-42.8999
X20.74994Y-28.54992
X20.28394Y-24.59993
X20.19994Y-25.94993
X37.54991Y-22.2448
X24.29993Y-28.54992
X16.84995Y-20.09994
X17.24995Y-22.14994
X20.14994Y-19.49994
X20.24994Y-16.89995
X43.34989Y-45.09989
X40.17469Y-50.94988
X31.89992Y-47.54989
X41.9499Y-50.24988
X44.09989Y-49.14988
X37.04991Y-44.94989
X34.92178Y-44.94989
X34.92178Y-41.7209
X37.04991Y-41.6999
X33.49991Y-39.0499
X52.84988Y-49.44988
X49.29988Y-51.14288
X54.29987Y-49.44988
X53.44987Y-46.54989
X51.10248Y-45.00249
X49.34988Y-54.34987
X57.24987Y-43.04989
X54.14987Y-40.95003
X54.14987Y-38.1499
X56.94989Y-40.95003
X56.94989Y-38.14396
X55.54988Y-39.55003
X55.54988Y-40.9435
X55.54988Y-38.15323
X54.14987Y-39.55003
X56.94989Y-39.55003
X55.49987Y-44.59989
X57.25001Y-46.39989
X59.19986Y-41.9999
X50.14988Y-11.79996
X31.93282Y-24.64993
X43.59989Y-24.59993
X67.3407Y-24.64993
X65.06122Y-24.64993
X78.6621Y-24.69989
X80.94982Y-24.74993
X47.84989Y-39.7999
X50.69988Y-38.7499
X56.79987Y-29.24992
X60.29986Y-32.34992
X60.19986Y-35.99991
X59.09986Y-35.99991
X52.59988Y-36.44991
X53.44987Y-36.19991
X49.04988Y-27.09993
X48.91632Y-28.48349
X51.39985Y-28.84992
X6.19997Y-27.09993
X57.14984Y-36.04991
X12.64996Y-37.24991
X17.24995Y-39.6999
X7.87496Y-32.77492
X8.89996Y-47.04989
X72.74984Y-22.19994
X75.64983Y-38.1999
X65.14985Y-40.7999
X77.09983Y-39.1499
X34.89991Y-38.0999
X40.6999Y-38.0499
X45.94989Y-36.89991
X64.59985Y-36.84991
X58.24986Y-50.14988
X57.99986Y-45.79989
X60.29986Y-43.89989
X57.91185Y-35.39991
X64.19785Y-41.1479
X57.49987Y-27.94993
X37.49991Y-15.49995
X37.49991Y-8.63658
X37.49991Y-2.72497
X51.29988Y-2.72497
X59.74018Y-2.72497
X72.79984Y-2.72497
X72.74984Y-8.59996
X72.74984Y-15.44995
X16.94995Y-44.29989
X20.59994Y-48.54988
X24.59993Y-52.44988
X42.4499Y-54.34987
X57.74987Y-54.34987
X56.04987Y-47.54989
X25.14993Y-27.94993
X18.64994Y-12.09996
X7.34997Y-4.84997
X18.49994Y-0.74998
X12.94996Y-1.71625
X0.69998Y-7.59997
X0.69998Y-0.65979
X0.64998Y-54.34987
X84.29981Y-54.29987
X84.29981Y-0.69998
X25.19993Y-22.74994
X75.84983Y-51.39988
X65.10656Y-51.39988
X28.15329Y-40.1999
X57.04987Y-18.99994
X55.54987Y-23.54993
X55.49995Y-15.20003
X26.69993Y-8.79996
X28.04992Y-7.34997
X28.04992Y-4.79997
X9.05841Y-7.79997
X20.19994Y-27.84993
X35.49991Y-54.34987
X28.24992Y-54.34987
X42.4499Y-52.49988
X35.49991Y-52.49988
X36.34991Y-50.04988
X63.24985Y-50.54988
X40.3499Y-40.7499
X42.4499Y-43.04989
X69.84984Y-38.2499
X31.44992Y-40.7499
T03
X2.39998Y-20.30894
T04
X3.63498Y-40.9399
X3.63498Y-39.6699
X3.63498Y-38.3999
X3.63498Y-37.1299
X3.63498Y-35.8599
X2.36498Y-40.9399
X2.36498Y-39.6699
X2.36498Y-38.3999
X2.36498Y-37.1299
X2.36498Y-35.8599
T05
X8.625Y-2.02571G85X8.625Y-1.42571
X8.625Y-6.30562G85X8.625Y-5.50565
X17.27492Y-6.30562G85X17.27492Y-5.50559
X17.27492Y-2.02571G85X17.27492Y-1.42571
T06
X55.54987Y-21.79987
X55.54987Y-25.3
X55.49987Y-10.0499
X55.49987Y-13.55002
T07
X22.09994Y-5.88995
X22.09994Y-8.42995
X22.09994Y-10.96995
X22.09994Y-13.50995
X22.09994Y-16.04995
X22.09994Y-18.58995
X22.09994Y-21.12995
X22.09994Y-23.66995
X22.09994Y-26.20995
T08
X44.44989Y-2.45004
X44.44989Y-18.15001
X66.39985Y-2.40004
X66.39985Y-18.10001
X31.09992Y-2.45004
X31.09992Y-18.15001
X79.49982Y-2.35004
X79.49982Y-18.05001
M30