;TYPE=PLATED
;Layer: PTH_Through_Via
;EasyEDA Pro v2.2.45.4, 2026-03-11 01:27:14
;Gerber Generator version 0.3
M48
METRIC,LZ,0000.00000
;Hole size 1 = 0.30000 METRIC
T01C0.30000
;Hole size 2 = 0.30500 METRIC
T02C0.30500
;Hole size 3 = 0.35000 METRIC
T03C0.35000
%
G05
G90
T01
X13.46151Y-9.66273
X16.24757Y-21.80756
X29.21992Y-40.9499
X29.22992Y-42.41989
X31.39992Y-44.34989
X17.75634Y-24.32632
X60.40986Y-38.7499
X39.2999Y-39.6499
X52.14613Y-41.44611
X50.69988Y-38.7499
X51.57988Y-34.24991
X51.72988Y-43.42989
X46.31989Y-42.89989
X8.24998Y-43.77991
X30.94994Y-43.69991
X16.91292Y-37.55697
X21.22996Y-41.87992
T02
X4.38298Y-23.92885
X11.38097Y-10.80387
X15.53697Y-10.78087
X11.18667Y-8.62387
X8.17897Y-8.60987
X3.83296Y-30.89992
X12.14996Y-8.64996
X4.89997Y-13.09995
X7.49003Y-16.54995
X4.34997Y-15.94995
X8.34997Y-21.99994
X8.37997Y-22.98994
X8.34997Y-18.84994
X6.99997Y-13.24995
X5.09746Y-38.19739
X9.97596Y-24.65993
X8.49997Y-30.78992
X8.91203Y-31.64998
X1.49998Y-32.79991
X0.84999Y-46.54988
X12.39996Y-11.94996
X11.03996Y-23.53994
X16.11995Y-19.70994
X10.49996Y-35.04991
X8.39997Y-28.64992
X14.69995Y-42.34989
X14.69995Y-37.09991
X12.59996Y-40.8499
X7.94996Y-36.94991
X3.14998Y-34.69991
X4.29997Y-33.44991
X3.24998Y-31.74992
X1.54998Y-31.74992
X16.25995Y-42.35989
X6.19997Y-48.44988
X25.49993Y-41.01806
X25.49993Y-42.53663
X24.95993Y-37.12991
X18.68994Y-41.5999
X23.94993Y-48.29988
X25.92493Y-45.02489
X25.09993Y-47.44988
X25.09993Y-49.13576
X43.83989Y-42.85989
X19.52395Y-24.70993
X20.14994Y-26.02993
X37.4999Y-22.1748
X17.74995Y-20.27994
X17.72995Y-22.34994
X19.46994Y-20.59994
X19.47994Y-18.57995
X40.17468Y-50.94988
X31.89992Y-47.54988
X41.9499Y-50.24988
X37.04991Y-44.94989
X34.92178Y-44.94989
X34.92178Y-41.72089
X37.04991Y-41.6999
X33.49991Y-39.0499
X52.84987Y-49.44988
X47.74988Y-51.11287
X54.29987Y-49.44988
X54.28987Y-45.72989
X51.72248Y-45.0025
X49.34988Y-54.34987
X57.24987Y-43.04989
X54.14987Y-40.95002
X54.14987Y-38.1499
X56.94989Y-40.95002
X56.94989Y-38.14396
X55.54988Y-39.55003
X55.54988Y-40.9435
X55.54988Y-38.15323
X54.14987Y-39.55003
X56.94989Y-39.55003
X55.49987Y-44.59989
X57.25001Y-46.39989
X59.19986Y-41.9999
X31.93282Y-24.59993
X43.59989Y-24.59993
X67.3907Y-24.59993
X78.6121Y-24.59989
X48.17988Y-40.7799
X56.79987Y-29.24992
X60.29986Y-32.34991
X60.19986Y-35.99991
X59.09986Y-35.99991
X52.59988Y-36.44991
X53.44988Y-36.19991
X49.04988Y-27.09993
X48.91632Y-28.48349
X51.39985Y-28.84992
X6.10785Y-27.59992
X57.14984Y-36.04991
X12.64996Y-37.24991
X16.89995Y-40.6999
X8.89996Y-47.04989
X72.74984Y-22.19994
X75.59983Y-38.0499
X60.24986Y-41.8999
X77.09983Y-38.9999
X34.89991Y-38.0999
X40.6999Y-38.0499
X45.94989Y-36.89991
X64.59985Y-36.84991
X58.24986Y-50.14988
X57.99987Y-45.79989
X60.29986Y-43.89989
X57.91185Y-35.39991
X64.19785Y-41.1479
X58.29987Y-28.84992
X37.4999Y-15.49995
X37.4999Y-8.63658
X37.4999Y-2.72497
X51.29988Y-2.72497
X59.74018Y-2.72497
X72.79984Y-2.72497
X72.74984Y-8.59997
X72.74984Y-15.44995
X42.44989Y-54.34987
X57.74986Y-54.34987
X56.04987Y-47.54988
X24.49993Y-27.34992
X17.74995Y-10.86996
X12.94996Y-1.71625
X0.69998Y-7.59996
X0.69998Y-0.65979
X0.64998Y-54.34987
X84.29981Y-54.29987
X84.01981Y-0.68998
X25.19993Y-22.74993
X75.84983Y-51.39988
X65.15656Y-51.02988
X57.04987Y-18.99994
X55.54987Y-23.54994
X55.49995Y-11.85003
X26.69993Y-8.79996
X28.04993Y-7.34996
X9.20841Y-7.89997
X20.09994Y-27.89992
X35.49991Y-54.34987
X28.24993Y-54.34987
X36.34991Y-50.04988
X62.94985Y-51.01988
X40.3099Y-41.0099
X42.2499Y-42.80989
X69.84984Y-38.0499
X14.44997Y-29.51694
X26.54995Y-34.42993
X22.12996Y-31.04994
X23.43995Y-33.91993
X16.79997Y-30.79994
X15.53562Y-31.74994
X5.94999Y-30.74994
X18.53996Y-12.82997
X19.47996Y-22.73995
X16.97997Y-25.13995
X18.70996Y-35.18993
X8.14998Y-40.64992
X12.59997Y-42.29992
X4.89999Y-47.39991
X3.14999Y-38.24992
X4.34999Y-43.84348
X17.91996Y-36.69993
X22.79995Y-28.04994
X31.63994Y-40.30992
X84.29983Y-22.19996
X84.29983Y-39.14992
X0.7Y-22.14996
X6.54999Y-1.7
X19.32759Y-1.72581
X21.64996Y-0.65
X23.59995Y-29.89994
X16.14997Y-7.89998
X7.39999Y-5.89999
X18.46725Y-5.90571
X16.09997Y-16.89997
X19.47996Y-10.29998
X25.54995Y-44.09991
X16.69997Y-33.74993
X12.19998Y-33.74993
X14.44997Y-33.75166
X55.71989Y-30.64994
X49.1199Y-32.64993
X12.18998Y-31.74994
X44.03991Y-47.06991
X65.17987Y-40.96992
X21.67994Y-26.17995
X17.76996Y-14.11997
X19.30996Y-16.65997
X9.65998Y-43.75991
X20.98996Y-35.34993
X25.48995Y-39.41992
X30.11994Y-41.00992
X29.55994Y-38.14992
X81.00984Y-38.04992
X42.44992Y-52.52989
X35.49993Y-52.51989
X28.25994Y-52.50989
X45.19991Y-44.99991
X20.09996Y-31.05994
X10.99998Y-16.54997
X8.36998Y-25.10995
T03
X2.39998Y-20.30894
X8.04997Y-45.64989
X50.14988Y-11.79996
M30