G04 Layer: DrillDrawingLayer*
G04 EasyEDA Pro v2.2.45.4, 2026-03-11 01:27:14*
G04 Gerber Generator version 0.3*
G04 Scale: 100 percent, Rotated: No, Reflected: No*
G04 Dimensions in millimeters*
G04 Leading zeros omitted, absolute positions, 4 integers and 5 decimals*
G04 Generated by one-click*
%FSLAX45Y45*%
%MOMM*%
%AMIconRect*4,1,4,0.28,-0.28,-0.28,-0.28,-0.28,0.28,0.28,0.28,0.28,-0.28,0*4,0,4,0.233333,-0.233333,0.233333,0.233333,-0.233333,0.233333,-0.233333,-0.233333,0.233333,-0.233333,0*%
%AMIconTriangle*4,1,3,-0.339593,0.240473,0.339593,0.240473,0,-0.37884,-0.339593,0.240473,0*4,0,3,-0.265673,0.19404,0,-0.27342,0.266233,0.19404,-0.265673,0.19404,0*%
%AMIconStar6*4,1,12,0.12068,0.20888,0.298527,0.172713,0.241313,0,0.298527,-0.17206,0.12068,-0.208227,0,-0.344073,-0.120073,-0.208227,-0.298573,-0.17206,-0.240707,0,-0.298573,0.17206,-0.120073,0.20888,0,0.344073,0.12068,0.20888,0*4,0,12,-0.000467,0.273467,-0.090067,0.171733,-0.237533,0.136733,-0.193667,-0.007467,-0.237533,-0.1372,-0.090067,-0.171733,-0.000467,-0.273933,0.090067,-0.171733,0.237533,-0.1372,0.194133,0.007,0.237533,0.1372,0.090067,0.171267,-0.000467,0.273467,0*%
%AMIconStar4*4,1,8,-0.311733,0.311733,0,0.202533,0.311733,0.311733,0.202533,0,0.311733,-0.311733,0,-0.202533,-0.304407,-0.311733,-0.202533,0,-0.311733,0.311733,0*4,0,8,0.233333,-0.233333,0.1512,0,0.233333,0.233333,0,0.1512,-0.233333,0.233333,-0.1512,0,-0.233333,-0.233333,0,-0.1512,0.233333,-0.233333,0*%
%AMIconPlus*4,1,12,0.1736,-0.28,-0.1736,-0.28,-0.1736,-0.1736,-0.28,-0.1736,-0.28,0.1736,-0.1736,0.1736,-0.1736,0.28,0.1736,0.28,0.1736,0.1736,0.28,0.1736,0.28,-0.1736,0.1736,-0.1736,0.1736,-0.28,0*4,0,12,0.126933,-0.233333,0.126933,-0.126933,0.233333,-0.126933,0.233333,0.126933,0.126933,0.126933,0.126933,0.233333,-0.126933,0.233333,-0.126933,0.126933,-0.233333,0.126933,-0.233333,-0.126933,-0.126933,-0.126933,-0.126933,-0.233333,0.126933,-0.233333,0*%
%AMIconX*4,1,16,0.28,-0.28,0.076347,-0.28,0,-0.203653,-0.076347,-0.28,-0.28,-0.28,-0.28,-0.076347,-0.203653,0,-0.28,0.076347,-0.28,0.28,-0.076347,0.28,0,0.203653,0.076347,0.28,0.28,0.28,0.28,0.076347,0.203653,0,0.28,-0.076347,0.28,-0.28,0*4,0,16,0.23352,-0.23296,0.23352,-0.095853,0.137107,0.000093,0.23352,0.095853,0.23352,0.2331,0.095853,0.2331,0,0.137107,-0.095853,0.2331,-0.23352,0.2331,-0.23352,0.095853,-0.137107,0.000093,-0.23352,-0.095853,-0.23352,-0.23296,-0.095853,-0.23296,0,-0.137107,0.095853,-0.23296,0.23352,-0.23296,0*%
%AMIconDiamond*4,1,4,0,-0.364,-0.364,0,0,0.364,0.364,0,0,-0.364,0*4,0,4,0,-0.284807,0.284807,0,0,0.28504,-0.284807,0,0,-0.284807,0*%
%AMIconRect2*4,1,6,0.28,-0.28,-0.28,-0.28,-0.28,0.28,-0.23352,0.2331,-0.233333,-0.233333,0.23352,-0.233333,0.28,-0.28,0*4,1,6,0.28,-0.28,0.23352,-0.233333,0.23352,0.2331,-0.23352,0.2331,-0.28,0.28,0.28,0.28,0.28,-0.28,0*4,1,6,0.186853,-0.186667,-0.186667,-0.186667,-0.186667,0.186853,-0.14,0.140187,-0.14,-0.14,0.140187,-0.14,0.186853,-0.186667,0*4,1,6,0.186853,-0.186667,0.140187,-0.14,0.140187,0.140187,-0.14,0.140187,-0.186667,0.186853,0.186853,0.186853,0.186853,-0.186667,0*%
%AMCharA*4,1,8,-0.170893,-0.26096,-0.21448,-0.244347,-0.021187,0.26096,0.0224,0.26096,0.21448,-0.244347,0.170893,-0.26096,0.10696,-0.09268,-0.106587,-0.09268,-0.170893,-0.26096,0*4,0,3,-0.088667,-0.046013,0.089133,-0.046013,0.000467,0.18732,-0.088667,-0.046013,0*%
%ADD10IconRect*%
%ADD11C,0.616X0.522667*%
%ADD12IconTriangle*%
%ADD13IconStar6*%
%ADD14IconStar4*%
%ADD15IconPlus*%
%ADD16IconX*%
%ADD17IconDiamond*%
%ADD18IconRect2*%
%ADD19CharA*%
G75*


G04 Drill Drawing Start*
G54D10*
G01X862484Y-172588D03*
G01X1727507Y-172588D03*
G54D11*
G01X862484Y-590571D03*
G01X1727507Y-590571D03*
G54D12*
G01X1005004Y-540558D03*
G01X1584987Y-540558D03*
G54D13*
G01X239998Y-2030894D03*
G01X804997Y-4564989D03*
G01X5014988Y-1179996D03*
G54D14*
G01X5549987Y-1355002D03*
G01X5549987Y-1004990D03*
G01X5554987Y-2530000D03*
G01X5554987Y-2179988D03*
G54D15*
G01X339998Y-344997D03*
G01X1374995Y-5129988D03*
G01X5544987Y-344987D03*
G01X8149982Y-5129987D03*
G54D16*
G01X2168996Y-2348995D03*
G01X2168996Y-2148996D03*
G01X2168996Y-1948996D03*
G01X2168996Y-1748997D03*
G01X2168996Y-1548997D03*
G01X2168996Y-1348997D03*
G01X2168996Y-1148998D03*
G54D17*
G01X3109982Y-1810016D03*
G01X3109982Y-239991D03*
G01X4444979Y-1810009D03*
G01X4444979Y-239999D03*
G01X6639975Y-1810009D03*
G01X6639975Y-239999D03*
G01X7949972Y-1805016D03*
G01X7949972Y-234991D03*
G54D18*
G01X824998Y-4377991D03*
G01X1346151Y-966273D03*
G01X1624757Y-2180756D03*
G01X1691292Y-3755697D03*
G01X1775634Y-2432632D03*
G01X2122996Y-4187992D03*
G01X2921992Y-4094990D03*
G01X2922992Y-4241989D03*
G01X3094994Y-4369991D03*
G01X3139992Y-4434989D03*
G01X3929990Y-3964990D03*
G01X4631989Y-4289989D03*
G01X5069988Y-3874990D03*
G01X5157988Y-3424991D03*
G01X5172988Y-4342989D03*
G01X5214613Y-4144611D03*
G01X6040986Y-3874990D03*
G54D19*
G01X64998Y-5434987D03*
G01X69998Y-759996D03*
G01X69998Y-65979D03*
G01X70000Y-2214996D03*
G01X84999Y-4654988D03*
G01X149998Y-3279991D03*
G01X154998Y-3174992D03*
G01X314998Y-3469991D03*
G01X314999Y-3824992D03*
G01X324998Y-3174992D03*
G01X383296Y-3089992D03*
G01X429997Y-3344991D03*
G01X434997Y-1594995D03*
G01X434999Y-4384348D03*
G01X438298Y-2392885D03*
G01X489997Y-1309995D03*
G01X489999Y-4739991D03*
G01X509746Y-3819739D03*
G01X594999Y-3074994D03*
G01X610785Y-2759992D03*
G01X619997Y-4844988D03*
G01X654999Y-170000D03*
G01X699997Y-1324995D03*
G01X739999Y-589999D03*
G01X749003Y-1654995D03*
G01X794996Y-3694991D03*
G01X814998Y-4064992D03*
G01X817897Y-860987D03*
G01X834997Y-2199994D03*
G01X834997Y-1884994D03*
G01X836998Y-2510995D03*
G01X837997Y-2298994D03*
G01X839997Y-2864992D03*
G01X849997Y-3078992D03*
G01X889996Y-4704989D03*
G01X891203Y-3164998D03*
G01X920841Y-789997D03*
G01X965998Y-4375991D03*
G01X997596Y-2465993D03*
G01X1049996Y-3504991D03*
G01X1099998Y-1654997D03*
G01X1103996Y-2353994D03*
G01X1118667Y-862387D03*
G01X1138097Y-1080387D03*
G01X1214996Y-864996D03*
G01X1218998Y-3174994D03*
G01X1219998Y-3374993D03*
G01X1239996Y-1194996D03*
G01X1259996Y-4084990D03*
G01X1259997Y-4229992D03*
G01X1264996Y-3724991D03*
G01X1294996Y-171625D03*
G01X1444997Y-3375166D03*
G01X1444997Y-2951694D03*
G01X1469995Y-4234989D03*
G01X1469995Y-3709991D03*
G01X1553562Y-3174994D03*
G01X1553697Y-1078087D03*
G01X1609997Y-1689997D03*
G01X1611995Y-1970994D03*
G01X1614997Y-789998D03*
G01X1625995Y-4235989D03*
G01X1669997Y-3374993D03*
G01X1679997Y-3079994D03*
G01X1689995Y-4069990D03*
G01X1697997Y-2513995D03*
G01X1772995Y-2234994D03*
G01X1774995Y-2027994D03*
G01X1774995Y-1086996D03*
G01X1776996Y-1411997D03*
G01X1791996Y-3669993D03*
G01X1846725Y-590571D03*
G01X1853996Y-1282997D03*
G01X1868994Y-4159990D03*
G01X1870996Y-3518993D03*
G01X1930996Y-1665997D03*
G01X1932759Y-172581D03*
G01X1946994Y-2059994D03*
G01X1947994Y-1857995D03*
G01X1947996Y-2273995D03*
G01X1947996Y-1029998D03*
G01X1952395Y-2470993D03*
G01X2009994Y-2789992D03*
G01X2009996Y-3105994D03*
G01X2014994Y-2602993D03*
G01X2098996Y-3534993D03*
G01X2164996Y-65000D03*
G01X2167994Y-2617995D03*
G01X2212996Y-3104994D03*
G01X2279995Y-2804994D03*
G01X2343995Y-3391993D03*
G01X2359995Y-2989994D03*
G01X2394993Y-4829988D03*
G01X2449993Y-2734992D03*
G01X2495993Y-3712991D03*
G01X2509993Y-4913576D03*
G01X2509993Y-4744988D03*
G01X2519993Y-2274993D03*
G01X2548995Y-3941992D03*
G01X2549993Y-4253663D03*
G01X2549993Y-4101806D03*
G01X2554995Y-4409991D03*
G01X2592493Y-4502489D03*
G01X2654995Y-3442993D03*
G01X2669993Y-879996D03*
G01X2804993Y-734996D03*
G01X2824993Y-5434987D03*
G01X2825994Y-5250989D03*
G01X2955994Y-3814992D03*
G01X3011994Y-4100992D03*
G01X3163994Y-4030992D03*
G01X3189992Y-4754988D03*
G01X3193282Y-2459993D03*
G01X3349991Y-3904990D03*
G01X3489991Y-3809990D03*
G01X3492178Y-4494989D03*
G01X3492178Y-4172089D03*
G01X3549991Y-5434987D03*
G01X3549993Y-5251989D03*
G01X3634991Y-5004988D03*
G01X3704991Y-4494989D03*
G01X3704991Y-4169990D03*
G01X3749990Y-2217480D03*
G01X3749990Y-1549995D03*
G01X3749990Y-863658D03*
G01X3749990Y-272497D03*
G01X4017468Y-5094988D03*
G01X4030990Y-4100990D03*
G01X4069990Y-3804990D03*
G01X4194990Y-5024988D03*
G01X4224990Y-4280989D03*
G01X4244989Y-5434987D03*
G01X4244992Y-5252989D03*
G01X4359989Y-2459993D03*
G01X4383989Y-4285989D03*
G01X4403991Y-4706991D03*
G01X4519991Y-4499991D03*
G01X4594989Y-3689991D03*
G01X4774988Y-5111287D03*
G01X4817988Y-4077990D03*
G01X4891632Y-2848349D03*
G01X4904988Y-2709993D03*
G01X4911990Y-3264993D03*
G01X4934988Y-5434987D03*
G01X5129988Y-272497D03*
G01X5139985Y-2884992D03*
G01X5172248Y-4500250D03*
G01X5259988Y-3644991D03*
G01X5284987Y-4944988D03*
G01X5344988Y-3619991D03*
G01X5414987Y-4095002D03*
G01X5414987Y-3955003D03*
G01X5414987Y-3814990D03*
G01X5428987Y-4572989D03*
G01X5429987Y-4944988D03*
G01X5549987Y-4459989D03*
G01X5549995Y-1185003D03*
G01X5554987Y-2354994D03*
G01X5554988Y-4094350D03*
G01X5554988Y-3955003D03*
G01X5554988Y-3815323D03*
G01X5571989Y-3064994D03*
G01X5604987Y-4754988D03*
G01X5679987Y-2924992D03*
G01X5694989Y-4095002D03*
G01X5694989Y-3955003D03*
G01X5694989Y-3814396D03*
G01X5704987Y-1899994D03*
G01X5714984Y-3604991D03*
G01X5724987Y-4304989D03*
G01X5725001Y-4639989D03*
G01X5774986Y-5434987D03*
G01X5791185Y-3539991D03*
G01X5799987Y-4579989D03*
G01X5824986Y-5014988D03*
G01X5829987Y-2884992D03*
G01X5909986Y-3599991D03*
G01X5919986Y-4199990D03*
G01X5974018Y-272497D03*
G01X6019986Y-3599991D03*
G01X6024986Y-4189990D03*
G01X6029986Y-4389989D03*
G01X6029986Y-3234991D03*
G01X6294985Y-5101988D03*
G01X6419785Y-4114790D03*
G01X6459985Y-3684991D03*
G01X6515656Y-5102988D03*
G01X6517987Y-4096992D03*
G01X6739070Y-2459993D03*
G01X6984984Y-3804990D03*
G01X7274984Y-2219994D03*
G01X7274984Y-1544995D03*
G01X7274984Y-859997D03*
G01X7279984Y-272497D03*
G01X7559983Y-3804990D03*
G01X7584983Y-5139988D03*
G01X7709983Y-3899990D03*
G01X7861210Y-2459989D03*
G01X8100984Y-3804992D03*
G01X8401981Y-68998D03*
G01X8429981Y-5429987D03*
G01X8429983Y-3914992D03*
G01X8429983Y-2219996D03*
G04 Drill Drawing End*

M02*

