G04 Layer: InnerLayer2*
G04 EasyEDA Pro v2.2.45.4, 2026-03-11 01:27:14*
G04 Gerber Generator version 0.3*
G04 Scale: 100 percent, Rotated: No, Reflected: No*
G04 Dimensions in millimeters*
G04 Leading zeros omitted, absolute positions, 4 integers and 5 decimals*
G04 Generated by one-click*
%FSLAX45Y45*%
%MOMM*%
%ADD10C,2.99999*%
%ADD11O,1.2X1.8*%
%ADD12O,1.2X2.0*%
%ADD13C,1.6*%
%ADD14R,1.4X1.4*%
%ADD15C,1.4*%
%ADD16C,0.6184*%
%ADD17C,0.61*%
%ADD18C,0.55*%
%ADD19C,0.7*%
%ADD20C,0.8*%
%ADD21C,0.57*%
G75*


G04 PlaneZone Start*
G36*
G01X25652Y-25641D02*
G01X8474344Y-25641D01*
G01X8474344Y-5474333D01*
G01X25652Y-5474333D01*
G01X25652Y-25641D01*
G37*
%LPC*%
G36*
G01X28844Y-4654988D02*
G03X141153Y-4654988I56154J0D01*
G03X28844Y-4654988I-56154J0D01*
G37*
G36*
G01X93844Y-3279991D02*
G03X206152Y-3279991I56154J0D01*
G03X93844Y-3279991I-56154J0D01*
G37*
G36*
G01X159344Y-344997D02*
G03X520652Y-344997I180654J0D01*
G03X159344Y-344997I-180654J0D01*
G37*
G36*
G01X179344Y-2030894D02*
G03X300652Y-2030894I60654J0D01*
G03X179344Y-2030894I-60654J0D01*
G37*
G36*
G01X378843Y-1594995D02*
G03X491151Y-1594995I56154J0D01*
G03X378843Y-1594995I-56154J0D01*
G37*
G36*
G01X453592Y-3819739D02*
G03X565900Y-3819739I56154J0D01*
G03X453592Y-3819739I-56154J0D01*
G37*
G36*
G01X744343Y-4564989D02*
G03X865651Y-4564989I60654J0D01*
G03X744343Y-4564989I-60654J0D01*
G37*
G36*
G01X758844Y-4064992D02*
G03X871152Y-4064992I56154J0D01*
G03X758844Y-4064992I-56154J0D01*
G37*
G36*
G01X761743Y-860987D02*
G03X874051Y-860987I56154J0D01*
G03X761743Y-860987I-56154J0D01*
G37*
G36*
G01X948138Y-202588D02*
G01X948138Y-142588D01*
G03X776831Y-142588I-85654J0D01*
G01X776831Y-202588D01*
G03X948138Y-202588I85654J0D01*
G37*
G36*
G01X776831Y-550571D02*
G01X776831Y-630571D01*
G03X948138Y-630571I85654J0D01*
G01X948138Y-568032D01*
G03X1067877Y-534605I56866J27474D01*
G03X943993Y-524245I-62873J-5953D01*
G03X776831Y-550571I-81508J-26326D01*
G37*
G36*
G01X778842Y-2199994D02*
G03X891151Y-2199994I56154J0D01*
G03X778842Y-2199994I-56154J0D01*
G37*
G36*
G01X915466Y-3215640D02*
G03X897345Y-3109181I-24263J50642D01*
G03X825733Y-3028350I-47349J30189D01*
G03X843854Y-3134809I24263J-50642D01*
G03X915466Y-3215640I47349J-30189D01*
G37*
G36*
G01X833842Y-4704989D02*
G03X946151Y-4704989I56154J0D01*
G03X833842Y-4704989I-56154J0D01*
G37*
G36*
G01X941442Y-2465993D02*
G03X1053750Y-2465993I56154J0D01*
G03X941442Y-2465993I-56154J0D01*
G37*
G36*
G01X1062513Y-862387D02*
G03X1174821Y-862387I56154J0D01*
G03X1062513Y-862387I-56154J0D01*
G37*
G36*
G01X1194342Y-5129988D02*
G03X1555649Y-5129988I180654J0D01*
G03X1194342Y-5129988I-180654J0D01*
G37*
G36*
G01X1413841Y-3709991D02*
G03X1526149Y-3709991I56154J0D01*
G03X1413841Y-3709991I-56154J0D01*
G37*
G36*
G01X1413841Y-4234989D02*
G03X1526149Y-4234989I56154J0D01*
G03X1413841Y-4234989I-56154J0D01*
G37*
G36*
G01X1497407Y-3174994D02*
G03X1609716Y-3174994I56154J0D01*
G03X1497407Y-3174994I-56154J0D01*
G37*
G36*
G01X1522114Y-534605D02*
G03X1641853Y-568032I62873J-5953D01*
G01X1641853Y-630571D01*
G03X1813161Y-630571I85654J0D01*
G01X1813161Y-550571D01*
G03X1645999Y-524245I-85654J0D01*
G03X1522114Y-534605I-61011J-16313D01*
G37*
G36*
G01X1623843Y-3079994D02*
G03X1736151Y-3079994I56154J0D01*
G03X1623843Y-3079994I-56154J0D01*
G37*
G36*
G01X1641843Y-2513995D02*
G03X1754151Y-2513995I56154J0D01*
G03X1641843Y-2513995I-56154J0D01*
G37*
G36*
G01X1813161Y-202588D02*
G01X1813161Y-142588D01*
G03X1641853Y-142588I-85654J0D01*
G01X1641853Y-202588D01*
G03X1813161Y-202588I85654J0D01*
G37*
G36*
G01X1797842Y-1282997D02*
G03X1910150Y-1282997I56154J0D01*
G03X1797842Y-1282997I-56154J0D01*
G37*
G36*
G01X1812840Y-4159990D02*
G03X1925149Y-4159990I56154J0D01*
G03X1812840Y-4159990I-56154J0D01*
G37*
G36*
G01X1896241Y-2470993D02*
G03X2008549Y-2470993I56154J0D01*
G03X1896241Y-2470993I-56154J0D01*
G37*
G36*
G01X2168996Y-1253343D02*
G03X2168996Y-1444651I0J-95654D01*
G03X2168996Y-1253343I0J95654D01*
G37*
G36*
G01X2168996Y-1053344D02*
G03X2168996Y-1244652I0J-95654D01*
G03X2168996Y-1053344I0J95654D01*
G37*
G36*
G01X2168996Y-1653343D02*
G03X2168996Y-1844650I0J-95654D01*
G03X2168996Y-1653343I0J95654D01*
G37*
G36*
G01X2168996Y-1853342D02*
G03X2168996Y-2044650I0J-95654D01*
G03X2168996Y-1853342I0J95654D01*
G37*
G36*
G01X2073342Y-2418995D02*
G03X2098996Y-2444649I25654J0D01*
G01X2238996Y-2444649D01*
G03X2264650Y-2418995I0J25654D01*
G01X2264650Y-2278995D01*
G03X2238996Y-2253341I-25654J0D01*
G01X2098996Y-2253341D01*
G03X2073342Y-2278995I0J-25654D01*
G01X2073342Y-2418995D01*
G37*
G36*
G01X2168996Y-2053342D02*
G03X2168996Y-2244650I0J-95654D01*
G03X2168996Y-2053342I0J95654D01*
G37*
G36*
G01X2168996Y-1453343D02*
G03X2168996Y-1644651I0J-95654D01*
G03X2168996Y-1453343I0J95654D01*
G37*
G36*
G01X2111840Y-2617995D02*
G03X2224148Y-2617995I56154J0D01*
G03X2111840Y-2617995I-56154J0D01*
G37*
G36*
G01X2338839Y-4829988D02*
G03X2451147Y-4829988I56154J0D01*
G03X2338839Y-4829988I-56154J0D01*
G37*
G36*
G01X2536339Y-4502489D02*
G03X2648647Y-4502489I56154J0D01*
G03X2536339Y-4502489I-56154J0D01*
G37*
G36*
G01X2598841Y-3442993D02*
G03X2711149Y-3442993I56154J0D01*
G03X2598841Y-3442993I-56154J0D01*
G37*
G36*
G01X2868838Y-4094990D02*
G03X2975146Y-4094990I53154J0D01*
G03X2868838Y-4094990I-53154J0D01*
G37*
G36*
G01X2869838Y-4241989D02*
G03X2976146Y-4241989I53154J0D01*
G03X2869838Y-4241989I-53154J0D01*
G37*
G36*
G01X3109982Y-415645D02*
G03X3109982Y-64338I0J175654D01*
G03X3109982Y-415645I0J-175654D01*
G37*
G36*
G01X3109982Y-1985670D02*
G03X3109982Y-1634362I0J175654D01*
G03X3109982Y-1985670I0J-175654D01*
G37*
G36*
G01X3086838Y-4434989D02*
G03X3193146Y-4434989I53154J0D01*
G03X3086838Y-4434989I-53154J0D01*
G37*
G36*
G01X3876836Y-3964990D02*
G03X3983144Y-3964990I53154J0D01*
G03X3876836Y-3964990I-53154J0D01*
G37*
G36*
G01X3961314Y-5094988D02*
G03X4073623Y-5094988I56154J0D01*
G03X3961314Y-5094988I-56154J0D01*
G37*
G36*
G01X4444979Y-1985662D02*
G03X4444979Y-1634355I0J175654D01*
G03X4444979Y-1985662I0J-175654D01*
G37*
G36*
G01X4444979Y-415653D02*
G03X4444979Y-64345I0J175654D01*
G03X4444979Y-415653I0J-175654D01*
G37*
G36*
G01X4327835Y-4285989D02*
G03X4440143Y-4285989I56154J0D01*
G03X4327835Y-4285989I-56154J0D01*
G37*
G36*
G01X4835478Y-2848349D02*
G03X4947786Y-2848349I56154J0D01*
G03X4835478Y-2848349I-56154J0D01*
G37*
G36*
G01X4848834Y-2709993D02*
G03X4961142Y-2709993I56154J0D01*
G03X4848834Y-2709993I-56154J0D01*
G37*
G36*
G01X4949334Y-1179996D02*
G03X5080642Y-1179996I65654J0D01*
G03X4949334Y-1179996I-65654J0D01*
G37*
G36*
G01X5016834Y-3874990D02*
G03X5123142Y-3874990I53154J0D01*
G03X5016834Y-3874990I-53154J0D01*
G37*
G36*
G01X5083831Y-2884992D02*
G03X5196139Y-2884992I56154J0D01*
G03X5083831Y-2884992I-56154J0D01*
G37*
G36*
G01X5103834Y-3424991D02*
G03X5212142Y-3424991I54154J0D01*
G03X5103834Y-3424991I-54154J0D01*
G37*
G36*
G01X5161459Y-4144611D02*
G03X5267767Y-4144611I53154J0D01*
G03X5161459Y-4144611I-53154J0D01*
G37*
G36*
G01X5206115Y-3660835D02*
G03X5312225Y-3665596I53872J15845D01*
G03X5398860Y-3604146I32763J45606D01*
G03X5292751Y-3599385I-53872J-15845D01*
G03X5206115Y-3660835I-32763J-45606D01*
G37*
G36*
G01X5364333Y-344987D02*
G03X5725641Y-344987I180654J0D01*
G03X5364333Y-344987I-180654J0D01*
G37*
G36*
G01X5655641Y-1004990D02*
G03X5444333Y-1004990I-105654J0D01*
G03X5655641Y-1004990I105654J0D01*
G37*
G36*
G01X5655641Y-1355002D02*
G03X5444333Y-1355002I-105654J0D01*
G03X5655641Y-1355002I105654J0D01*
G37*
G36*
G01X5660641Y-2530000D02*
G03X5449333Y-2530000I-105654J0D01*
G03X5660641Y-2530000I105654J0D01*
G37*
G36*
G01X5660641Y-2179988D02*
G03X5449333Y-2179988I-105654J0D01*
G03X5660641Y-2179988I105654J0D01*
G37*
G36*
G01X5493833Y-4459989D02*
G03X5606141Y-4459989I56154J0D01*
G03X5493833Y-4459989I-56154J0D01*
G37*
G36*
G01X5623833Y-2924992D02*
G03X5736141Y-2924992I56154J0D01*
G03X5623833Y-2924992I-56154J0D01*
G37*
G36*
G01X5668847Y-4639989D02*
G03X5781155Y-4639989I56154J0D01*
G03X5668847Y-4639989I-56154J0D01*
G37*
G36*
G01X5735031Y-3539991D02*
G03X5847339Y-3539991I56154J0D01*
G03X5735031Y-3539991I-56154J0D01*
G37*
G36*
G01X5863832Y-4199990D02*
G03X5976140Y-4199990I56154J0D01*
G03X5863832Y-4199990I-56154J0D01*
G37*
G36*
G01X5963832Y-3599991D02*
G03X6076140Y-3599991I56154J0D01*
G03X5963832Y-3599991I-56154J0D01*
G37*
G36*
G01X5973832Y-3234991D02*
G03X6086140Y-3234991I56154J0D01*
G03X5973832Y-3234991I-56154J0D01*
G37*
G36*
G01X5987832Y-3874990D02*
G03X6094140Y-3874990I53154J0D01*
G03X5987832Y-3874990I-53154J0D01*
G37*
G36*
G01X6363631Y-4114790D02*
G03X6475940Y-4114790I56154J0D01*
G03X6363631Y-4114790I-56154J0D01*
G37*
G36*
G01X6639975Y-415653D02*
G03X6639975Y-64345I0J175654D01*
G03X6639975Y-415653I0J-175654D01*
G37*
G36*
G01X6639975Y-1985662D02*
G03X6639975Y-1634355I0J175654D01*
G03X6639975Y-1985662I0J-175654D01*
G37*
G36*
G01X7949972Y-410645D02*
G03X7949972Y-59338I0J175654D01*
G03X7949972Y-410645I0J-175654D01*
G37*
G36*
G01X7949972Y-1980670D02*
G03X7949972Y-1629363I0J175654D01*
G03X7949972Y-1980670I0J-175654D01*
G37*
G36*
G01X7969328Y-5129987D02*
G03X8330636Y-5129987I180654J0D01*
G03X7969328Y-5129987I-180654J0D01*
G37*
%LPD*%
G36*
G01X2073342Y-2166496D02*
G02X2073342Y-2131496I0J17500D01*
G01X2099250Y-2131496D01*
G02X2099250Y-2166496I0J-17500D01*
G01X2073342Y-2166496D01*
G37*
G36*
G01X2238742Y-2166496D02*
G02X2238742Y-2131496I0J17500D01*
G01X2264650Y-2131496D01*
G02X2264650Y-2166496I0J-17500D01*
G01X2238742Y-2166496D01*
G37*
G36*
G01X5629733Y-1022489D02*
G02X5629733Y-987490I0J17500D01*
G01X5655641Y-987490D01*
G02X5655641Y-1022489I0J-17500D01*
G01X5629733Y-1022489D01*
G37*
G36*
G01X1787253Y-190088D02*
G02X1787253Y-155088I0J17500D01*
G01X1813161Y-155088D01*
G02X1813161Y-190088I0J-17500D01*
G01X1787253Y-190088D01*
G37*
G36*
G01X1787253Y-608071D02*
G02X1787253Y-573071I0J17500D01*
G01X1813161Y-573071D01*
G02X1813161Y-608071I0J-17500D01*
G01X1787253Y-608071D01*
G37*
G36*
G01X1641853Y-190088D02*
G02X1641853Y-155088I0J17500D01*
G01X1667761Y-155088D01*
G02X1667761Y-190088I0J-17500D01*
G01X1641853Y-190088D01*
G37*
G36*
G01X922230Y-190088D02*
G02X922230Y-155088I0J17500D01*
G01X948138Y-155088D01*
G02X948138Y-190088I0J-17500D01*
G01X922230Y-190088D01*
G37*
G36*
G01X776831Y-190088D02*
G02X776831Y-155088I0J17500D01*
G01X802739Y-155088D01*
G02X802739Y-190088I0J-17500D01*
G01X776831Y-190088D01*
G37*
G36*
G01X776831Y-608071D02*
G02X776831Y-573071I0J17500D01*
G01X802739Y-573071D01*
G02X802739Y-608071I0J-17500D01*
G01X776831Y-608071D01*
G37*
G36*
G01X5444333Y-1022489D02*
G02X5444333Y-987490I0J17500D01*
G01X5470241Y-987490D01*
G02X5470241Y-1022489I0J-17500D01*
G01X5444333Y-1022489D01*
G37*
G36*
G01X5634733Y-2197487D02*
G02X5634733Y-2162487I0J17500D01*
G01X5660641Y-2162487D01*
G02X5660641Y-2197487I0J-17500D01*
G01X5634733Y-2197487D01*
G37*
G36*
G01X5449333Y-2197487D02*
G02X5449333Y-2162487I0J17500D01*
G01X5475241Y-2162487D01*
G02X5475241Y-2197487I0J-17500D01*
G01X5449333Y-2197487D01*
G37*
G36*
G01X5537487Y-2259733D02*
G02X5572487Y-2259733I17500J0D01*
G01X5572487Y-2285641D01*
G02X5537487Y-2285641I-17500J0D01*
G01X5537487Y-2259733D01*
G37*
G36*
G01X5572487Y-2100242D02*
G02X5537487Y-2100242I-17500J0D01*
G01X5537487Y-2074334D01*
G02X5572487Y-2074334I17500J0D01*
G01X5572487Y-2100242D01*
G37*
G36*
G01X1745007Y-490825D02*
G02X1710007Y-490825I-17500J0D01*
G01X1710007Y-464917D01*
G02X1745007Y-464917I17500J0D01*
G01X1745007Y-490825D01*
G37*
G36*
G01X879985Y-490825D02*
G02X844985Y-490825I-17500J0D01*
G01X844985Y-464917D01*
G02X879985Y-464917I17500J0D01*
G01X879985Y-490825D01*
G37*
G36*
G01X5567487Y-925244D02*
G02X5532487Y-925244I-17500J0D01*
G01X5532487Y-899336D01*
G02X5567487Y-899336I17500J0D01*
G01X5567487Y-925244D01*
G37*
G36*
G01X1745007Y-82843D02*
G02X1710007Y-82843I-17500J0D01*
G01X1710007Y-56935D01*
G02X1745007Y-56935I17500J0D01*
G01X1745007Y-82843D01*
G37*
G36*
G01X879985Y-82843D02*
G02X844985Y-82843I-17500J0D01*
G01X844985Y-56935D01*
G02X879985Y-56935I17500J0D01*
G01X879985Y-82843D01*
G37*
G36*
G01X1710007Y-262334D02*
G02X1745007Y-262334I17500J0D01*
G01X1745007Y-288242D01*
G02X1710007Y-288242I-17500J0D01*
G01X1710007Y-262334D01*
G37*
G36*
G01X844985Y-262334D02*
G02X879985Y-262334I17500J0D01*
G01X879985Y-288242D01*
G02X844985Y-288242I-17500J0D01*
G01X844985Y-262334D01*
G37*
G36*
G01X1710007Y-690317D02*
G02X1745007Y-690317I17500J0D01*
G01X1745007Y-716225D01*
G02X1710007Y-716225I-17500J0D01*
G01X1710007Y-690317D01*
G37*
G36*
G01X844985Y-690317D02*
G02X879985Y-690317I17500J0D01*
G01X879985Y-716225D01*
G02X844985Y-716225I-17500J0D01*
G01X844985Y-690317D01*
G37*
G36*
G01X5532487Y-1084735D02*
G02X5567487Y-1084735I17500J0D01*
G01X5567487Y-1110643D01*
G02X5532487Y-1110643I-17500J0D01*
G01X5532487Y-1084735D01*
G37*
G04 PlaneZone End*

G04 Pad Start*
G54D10*
G01X4444979Y-239999D03*
G01X4444979Y-1810009D03*
G01X6639975Y-239999D03*
G01X6639975Y-1810009D03*
G01X3109982Y-239991D03*
G01X3109982Y-1810016D03*
G01X7949972Y-234991D03*
G01X7949972Y-1805016D03*
G54D11*
G01X862484Y-172588D03*
G54D12*
G01X862484Y-590571D03*
G01X1727507Y-590571D03*
G54D11*
G01X1727507Y-172588D03*
G54D13*
G01X5554987Y-2179988D03*
G01X5554987Y-2530000D03*
G01X5549987Y-1004990D03*
G01X5549987Y-1355002D03*
G54D14*
G01X2168996Y-2348995D03*
G54D15*
G01X2168996Y-2148996D03*
G01X2168996Y-1948996D03*
G01X2168996Y-1748997D03*
G01X2168996Y-1548997D03*
G01X2168996Y-1348997D03*
G01X2168996Y-1148998D03*
G04 Pad End*

G04 Via Start*
G54D17*
G01X438298Y-2392885D03*
G01X1138097Y-1080387D03*
G01X1553697Y-1078087D03*
G01X1118667Y-862387D03*
G01X817897Y-860987D03*
G01X383296Y-3089992D03*
G01X1214996Y-864996D03*
G54D18*
G01X1346151Y-966273D03*
G54D17*
G01X489997Y-1309995D03*
G01X749003Y-1654995D03*
G01X434997Y-1594995D03*
G01X834997Y-2199994D03*
G01X837997Y-2298994D03*
G01X834997Y-1884994D03*
G01X699997Y-1324995D03*
G01X509746Y-3819739D03*
G01X997596Y-2465993D03*
G01X849997Y-3078992D03*
G01X891203Y-3164998D03*
G01X149998Y-3279991D03*
G01X84999Y-4654988D03*
G54D18*
G01X1624757Y-2180756D03*
G54D17*
G01X1239996Y-1194996D03*
G01X1103996Y-2353994D03*
G01X1611995Y-1970994D03*
G01X1049996Y-3504991D03*
G01X839997Y-2864992D03*
G01X1469995Y-4234989D03*
G01X1469995Y-3709991D03*
G01X1259996Y-4084990D03*
G01X794996Y-3694991D03*
G01X314998Y-3469991D03*
G54D19*
G01X239998Y-2030894D03*
G01X804997Y-4564989D03*
G54D17*
G01X429997Y-3344991D03*
G01X324998Y-3174992D03*
G01X154998Y-3174992D03*
G01X1625995Y-4235989D03*
G01X619997Y-4844988D03*
G54D18*
G01X2921992Y-4094990D03*
G01X2922992Y-4241989D03*
G54D17*
G01X2549993Y-4101806D03*
G01X2549993Y-4253663D03*
G01X2495993Y-3712991D03*
G01X1868994Y-4159990D03*
G01X2394993Y-4829988D03*
G54D18*
G01X3139992Y-4434989D03*
G54D17*
G01X2592493Y-4502489D03*
G01X2509993Y-4744988D03*
G01X2509993Y-4913576D03*
G01X4383989Y-4285989D03*
G01X1952395Y-2470993D03*
G01X2014994Y-2602993D03*
G01X3749990Y-2217480D03*
G01X1774995Y-2027994D03*
G01X1772995Y-2234994D03*
G54D18*
G01X1775634Y-2432632D03*
G54D17*
G01X1946994Y-2059994D03*
G01X1947994Y-1857995D03*
G01X4017468Y-5094988D03*
G01X3189992Y-4754988D03*
G01X4194990Y-5024988D03*
G01X3704991Y-4494989D03*
G01X3492178Y-4494989D03*
G01X3492178Y-4172089D03*
G01X3704991Y-4169990D03*
G01X3349991Y-3904990D03*
G01X5284987Y-4944988D03*
G01X4774988Y-5111287D03*
G01X5429987Y-4944988D03*
G01X5428987Y-4572989D03*
G01X5172248Y-4500250D03*
G01X4934988Y-5434987D03*
G54D18*
G01X6040986Y-3874990D03*
G54D17*
G01X5724987Y-4304989D03*
G01X5414987Y-4095002D03*
G01X5414987Y-3814990D03*
G01X5694989Y-4095002D03*
G01X5694989Y-3814396D03*
G01X5554988Y-3955003D03*
G01X5554988Y-4094350D03*
G01X5554988Y-3815323D03*
G01X5414987Y-3955003D03*
G01X5694989Y-3955003D03*
G01X5549987Y-4459989D03*
G01X5725001Y-4639989D03*
G54D18*
G01X3929990Y-3964990D03*
G01X5214613Y-4144611D03*
G54D17*
G01X5919986Y-4199990D03*
G54D20*
G01X5014988Y-1179996D03*
G54D17*
G01X3193282Y-2459993D03*
G01X4359989Y-2459993D03*
G01X6739070Y-2459993D03*
G01X7861210Y-2459989D03*
G01X4817988Y-4077990D03*
G54D18*
G01X5069988Y-3874990D03*
G54D21*
G01X5157988Y-3424991D03*
G54D17*
G01X5679987Y-2924992D03*
G01X6029986Y-3234991D03*
G01X6019986Y-3599991D03*
G01X5909986Y-3599991D03*
G01X5259988Y-3644991D03*
G01X5344988Y-3619991D03*
G01X4904988Y-2709993D03*
G01X4891632Y-2848349D03*
G01X5139985Y-2884992D03*
G01X610785Y-2759992D03*
G01X5714984Y-3604991D03*
G01X1264996Y-3724991D03*
G01X1689995Y-4069990D03*
G01X889996Y-4704989D03*
G01X7274984Y-2219994D03*
G01X7559983Y-3804990D03*
G01X6024986Y-4189990D03*
G01X7709983Y-3899990D03*
G01X3489991Y-3809990D03*
G01X4069990Y-3804990D03*
G01X4594989Y-3689991D03*
G01X6459985Y-3684991D03*
G01X5824986Y-5014988D03*
G01X5799987Y-4579989D03*
G54D21*
G01X5172988Y-4342989D03*
G54D18*
G01X4631989Y-4289989D03*
G54D17*
G01X6029986Y-4389989D03*
G01X5791185Y-3539991D03*
G01X6419785Y-4114790D03*
G01X5829987Y-2884992D03*
G01X3749990Y-1549995D03*
G01X3749990Y-863658D03*
G01X3749990Y-272497D03*
G01X5129988Y-272497D03*
G01X5974018Y-272497D03*
G01X7279984Y-272497D03*
G01X7274984Y-859997D03*
G01X7274984Y-1544995D03*
G01X4244989Y-5434987D03*
G01X5774986Y-5434987D03*
G01X5604987Y-4754988D03*
G01X2449993Y-2734992D03*
G01X1774995Y-1086996D03*
G01X1294996Y-171625D03*
G01X69998Y-759996D03*
G01X69998Y-65979D03*
G01X64998Y-5434987D03*
G01X8429981Y-5429987D03*
G01X8401981Y-68998D03*
G01X2519993Y-2274993D03*
G01X7584983Y-5139988D03*
G01X6515656Y-5102988D03*
G01X5704987Y-1899994D03*
G01X5554987Y-2354994D03*
G01X5549995Y-1185003D03*
G01X2669993Y-879996D03*
G01X2804993Y-734996D03*
G01X920841Y-789997D03*
G01X2009994Y-2789992D03*
G01X3549991Y-5434987D03*
G01X2824993Y-5434987D03*
G01X3634991Y-5004988D03*
G01X6294985Y-5101988D03*
G01X4030990Y-4100990D03*
G01X4224990Y-4280989D03*
G01X6984984Y-3804990D03*
G01X1444997Y-2951694D03*
G01X2654995Y-3442993D03*
G01X2212996Y-3104994D03*
G01X2343995Y-3391993D03*
G01X1679997Y-3079994D03*
G01X1553562Y-3174994D03*
G01X594999Y-3074994D03*
G01X1853996Y-1282997D03*
G01X1947996Y-2273995D03*
G01X1697997Y-2513995D03*
G01X1870996Y-3518993D03*
G01X814998Y-4064992D03*
G01X1259997Y-4229992D03*
G54D18*
G01X824998Y-4377991D03*
G54D17*
G01X489999Y-4739991D03*
G01X314999Y-3824992D03*
G01X434999Y-4384348D03*
G01X1791996Y-3669993D03*
G01X2279995Y-2804994D03*
G54D18*
G01X3094994Y-4369991D03*
G54D17*
G01X3163994Y-4030992D03*
G01X8429983Y-2219996D03*
G01X8429983Y-3914992D03*
G01X70000Y-2214996D03*
G01X654999Y-170000D03*
G01X1932759Y-172581D03*
G01X2164996Y-65000D03*
G01X2359995Y-2989994D03*
G01X1614997Y-789998D03*
G01X739999Y-589999D03*
G01X1846725Y-590571D03*
G01X1609997Y-1689997D03*
G01X1947996Y-1029998D03*
G01X2554995Y-4409991D03*
G01X1669997Y-3374993D03*
G01X1219998Y-3374993D03*
G01X1444997Y-3375166D03*
G54D18*
G01X1691292Y-3755697D03*
G01X2122996Y-4187992D03*
G54D17*
G01X5571989Y-3064994D03*
G01X4911990Y-3264993D03*
G01X1218998Y-3174994D03*
G01X4403991Y-4706991D03*
G01X6517987Y-4096992D03*
G01X2167994Y-2617995D03*
G01X1776996Y-1411997D03*
G01X1930996Y-1665997D03*
G01X965998Y-4375991D03*
G01X2098996Y-3534993D03*
G01X2548995Y-3941992D03*
G01X3011994Y-4100992D03*
G01X2955994Y-3814992D03*
G01X8100984Y-3804992D03*
G01X4244992Y-5252989D03*
G01X3549993Y-5251989D03*
G01X2825994Y-5250989D03*
G01X4519991Y-4499991D03*
G01X2009996Y-3105994D03*
G01X1099998Y-1654997D03*
G01X836998Y-2510995D03*
G04 Via End*

M02*

