G04 Layer: BottomLayer*
G04 EasyEDA Pro v2.2.45.4, 2026-03-11 01:27:14*
G04 Gerber Generator version 0.3*
G04 Scale: 100 percent, Rotated: No, Reflected: No*
G04 Dimensions in millimeters*
G04 Leading zeros omitted, absolute positions, 4 integers and 5 decimals*
G04 Generated by one-click*
%FSLAX45Y45*%
%MOMM*%
%ADD10C,0.2032*%
%ADD11C,0.35*%
%ADD12C,2.99999*%
%ADD13O,1.2X1.8*%
%ADD14O,1.2X2.0*%
%ADD15C,1.6025*%
%ADD16C,1.6*%
%ADD17R,1.4X1.4*%
%ADD18C,1.4*%
%ADD19C,0.61*%
%ADD20C,0.55*%
%ADD21C,0.7*%
%ADD22C,0.8*%
%ADD23C,0.57*%
%ADD24C,0.254*%
%ADD25C,0.5*%
%ADD26C,0.3*%
%ADD27C,0.2*%
%ADD28C,0.4*%
%ADD29C,0.21*%
G75*


G04 Copper Start*
G36*
G01X35812Y-5464173D02*
G01X35812Y-5129988D01*
G01X1184182Y-5129988D01*
G01X1186124Y-5157143D01*
G01X1191911Y-5183746D01*
G01X1201425Y-5209255D01*
G01X1214473Y-5233150D01*
G01X1230788Y-5254944D01*
G01X1250039Y-5274195D01*
G01X1271834Y-5290511D01*
G01X1295728Y-5303558D01*
G01X1321237Y-5313072D01*
G01X1347840Y-5318859D01*
G01X1374995Y-5320802D01*
G01X1402151Y-5318859D01*
G01X1428754Y-5313072D01*
G01X1454262Y-5303558D01*
G01X1478157Y-5290511D01*
G01X1499952Y-5274195D01*
G01X1519203Y-5254944D01*
G01X1535518Y-5233150D01*
G01X1548566Y-5209255D01*
G01X1558080Y-5183746D01*
G01X1563867Y-5157143D01*
G01X1565809Y-5129988D01*
G01X1563867Y-5102832D01*
G01X1558080Y-5076229D01*
G01X1548566Y-5050721D01*
G01X1535518Y-5026826D01*
G01X1519203Y-5005031D01*
G01X1499952Y-4985780D01*
G01X1478157Y-4969465D01*
G01X1454262Y-4956417D01*
G01X1428754Y-4946903D01*
G01X1402151Y-4941116D01*
G01X1374995Y-4939174D01*
G01X1347840Y-4941116D01*
G01X1321237Y-4946903D01*
G01X1295728Y-4956417D01*
G01X1271834Y-4969465D01*
G01X1250039Y-4985780D01*
G01X1230788Y-5005031D01*
G01X1214473Y-5026826D01*
G01X1201425Y-5050721D01*
G01X1191911Y-5076229D01*
G01X1186124Y-5102832D01*
G01X1184182Y-5129988D01*
G01X1184182Y-5129988D01*
G01X35812Y-5129988D01*
G01X35812Y-4699465D01*
G01X47001Y-4709336D01*
G01X60113Y-4716456D01*
G01X74484Y-4720463D01*
G01X89389Y-4721157D01*
G01X104070Y-4718500D01*
G01X117787Y-4712629D01*
G01X129844Y-4703840D01*
G01X139630Y-4692578D01*
G01X146651Y-4679412D01*
G01X150551Y-4665011D01*
G01X151132Y-4650102D01*
G01X148366Y-4635440D01*
G01X142392Y-4621768D01*
G01X133513Y-4609778D01*
G01X133513Y-3365086D01*
G01X152334Y-3346264D01*
G01X165338Y-3344507D01*
G01X177740Y-3340224D01*
G01X189057Y-3333582D01*
G01X198844Y-3324842D01*
G01X364185Y-3490183D01*
G01X364185Y-4184992D01*
G01X365354Y-4196856D01*
G01X368814Y-4208264D01*
G01X374434Y-4218778D01*
G01X381997Y-4227994D01*
G01X736341Y-4582337D01*
G01X742204Y-4597725D01*
G01X751463Y-4611343D01*
G01X763616Y-4622454D01*
G01X778008Y-4630458D01*
G01X793859Y-4634921D01*
G01X810312Y-4635603D01*
G01X826478Y-4632466D01*
G01X841482Y-4625680D01*
G01X841482Y-4659779D01*
G01X832384Y-4672150D01*
G01X826375Y-4686282D01*
G01X823779Y-4701418D01*
G01X824733Y-4716745D01*
G01X829187Y-4731441D01*
G01X836902Y-4744719D01*
G01X847464Y-4755867D01*
G01X860308Y-4764286D01*
G01X874743Y-4769525D01*
G01X889996Y-4771303D01*
G01X905250Y-4769525D01*
G01X919685Y-4764286D01*
G01X932529Y-4755867D01*
G01X943091Y-4744719D01*
G01X950806Y-4731441D01*
G01X955260Y-4716745D01*
G01X956214Y-4701418D01*
G01X953617Y-4686282D01*
G01X947609Y-4672150D01*
G01X938510Y-4659779D01*
G01X938510Y-4231419D01*
G01X1403777Y-4231419D01*
G01X1404732Y-4246746D01*
G01X1409186Y-4261442D01*
G01X1416901Y-4274720D01*
G01X1427463Y-4285868D01*
G01X1440306Y-4294286D01*
G01X1454742Y-4299525D01*
G01X1469995Y-4301304D01*
G01X1469995Y-4301304D01*
G01X1485249Y-4299525D01*
G01X1499684Y-4294286D01*
G01X1512527Y-4285868D01*
G01X1523090Y-4274720D01*
G01X1530805Y-4261442D01*
G01X1535259Y-4246746D01*
G01X1536213Y-4231419D01*
G01X1533616Y-4216283D01*
G01X1527608Y-4202151D01*
G01X1518509Y-4189779D01*
G01X1518509Y-4153051D01*
G01X1803044Y-4153051D01*
G01X1803174Y-4168062D01*
G01X1806676Y-4182660D01*
G01X1813371Y-4196096D01*
G01X1822918Y-4207681D01*
G01X1834825Y-4216823D01*
G01X1848483Y-4223052D01*
G01X1863192Y-4226049D01*
G01X2112182Y-4475039D01*
G01X2112182Y-4597991D01*
G01X2113913Y-4611142D01*
G01X2118989Y-4623398D01*
G01X2127065Y-4633921D01*
G01X2328934Y-4835790D01*
G01X2332256Y-4851473D01*
G01X2339245Y-4865900D01*
G01X2349491Y-4878229D01*
G01X2362397Y-4887738D01*
G01X2377207Y-4893873D01*
G01X2393057Y-4896274D01*
G01X2409020Y-4894802D01*
G01X2424163Y-4889542D01*
G01X2437602Y-4880802D01*
G01X3966655Y-4880802D01*
G01X3966655Y-5052379D01*
G01X3958373Y-5064900D01*
G01X3953120Y-5078962D01*
G01X3951164Y-5093846D01*
G01X3952606Y-5108788D01*
G01X3957372Y-5123024D01*
G01X3965218Y-5135822D01*
G01X3975741Y-5146528D01*
G01X3988402Y-5154592D01*
G01X4002553Y-5159603D01*
G01X4017468Y-5161302D01*
G01X4032384Y-5159603D01*
G01X4046535Y-5154592D01*
G01X4059196Y-5146528D01*
G01X4069719Y-5135822D01*
G01X4073296Y-5129987D01*
G01X7959168Y-5129987D01*
G01X7961110Y-5157143D01*
G01X7966897Y-5183745D01*
G01X7976411Y-5209254D01*
G01X7989459Y-5233149D01*
G01X8005774Y-5254944D01*
G01X8025025Y-5274195D01*
G01X8046820Y-5290510D01*
G01X8070715Y-5303557D01*
G01X8096223Y-5313072D01*
G01X8122826Y-5318859D01*
G01X8149982Y-5320801D01*
G01X8177138Y-5318859D01*
G01X8203740Y-5313072D01*
G01X8229249Y-5303557D01*
G01X8253144Y-5290510D01*
G01X8274938Y-5274195D01*
G01X8294189Y-5254944D01*
G01X8310505Y-5233149D01*
G01X8323552Y-5209254D01*
G01X8333067Y-5183745D01*
G01X8338854Y-5157143D01*
G01X8340796Y-5129987D01*
G01X8338854Y-5102831D01*
G01X8333067Y-5076228D01*
G01X8323552Y-5050720D01*
G01X8310505Y-5026825D01*
G01X8294189Y-5005030D01*
G01X8274938Y-4985779D01*
G01X8253144Y-4969464D01*
G01X8229249Y-4956416D01*
G01X8203740Y-4946902D01*
G01X8177138Y-4941115D01*
G01X8149982Y-4939173D01*
G01X8122826Y-4941115D01*
G01X8096223Y-4946902D01*
G01X8070715Y-4956416D01*
G01X8046820Y-4969464D01*
G01X8025025Y-4985779D01*
G01X8005774Y-5005030D01*
G01X7989459Y-5026825D01*
G01X7976411Y-5050720D01*
G01X7966897Y-5076228D01*
G01X7961110Y-5102831D01*
G01X7959168Y-5129987D01*
G01X7959168Y-5129987D01*
G01X4073296Y-5129987D01*
G01X4077565Y-5123024D01*
G01X4082331Y-5108788D01*
G01X4083773Y-5093846D01*
G01X4081817Y-5078962D01*
G01X4076564Y-5064900D01*
G01X4068282Y-5052379D01*
G01X4068282Y-4880802D01*
G01X4169990Y-4880802D01*
G01X4183141Y-4879071D01*
G01X4195397Y-4873994D01*
G01X4205921Y-4865919D01*
G01X4419920Y-4651920D01*
G01X4427995Y-4641396D01*
G01X4433072Y-4629140D01*
G01X4434803Y-4615989D01*
G01X4434803Y-4466037D01*
G01X5483949Y-4466037D01*
G01X5487229Y-4481413D01*
G01X5494035Y-4495584D01*
G01X5503987Y-4507755D01*
G01X5516523Y-4517241D01*
G01X5530941Y-4523509D01*
G01X5546429Y-4526208D01*
G01X5658704Y-4638483D01*
G01X5658704Y-4638483D01*
G01X5660216Y-4654148D01*
G01X5665377Y-4669016D01*
G01X5673897Y-4682249D01*
G01X5685295Y-4693102D01*
G01X5698929Y-4700963D01*
G01X5714032Y-4705389D01*
G01X5729753Y-4706132D01*
G01X5745206Y-4703150D01*
G01X5759521Y-4696609D01*
G01X5771892Y-4686880D01*
G01X5781621Y-4674509D01*
G01X5788162Y-4660194D01*
G01X5791144Y-4644741D01*
G01X5790401Y-4629020D01*
G01X5785975Y-4613917D01*
G01X5778114Y-4600283D01*
G01X5767261Y-4588885D01*
G01X5754028Y-4580365D01*
G01X5739160Y-4575204D01*
G01X5723494Y-4573692D01*
G01X5616009Y-4466206D01*
G01X5615617Y-4450490D01*
G01X5611537Y-4435308D01*
G01X5603997Y-4421512D01*
G01X5593422Y-4409880D01*
G01X5580406Y-4401063D01*
G01X5565680Y-4395559D01*
G01X5550072Y-4393675D01*
G01X5534459Y-4395519D01*
G01X5519719Y-4400986D01*
G01X5506680Y-4409769D01*
G01X5496075Y-4421374D01*
G01X5488500Y-4435150D01*
G01X5484381Y-4450322D01*
G01X5483949Y-4466037D01*
G01X4434803Y-4466037D01*
G01X4434803Y-4328598D01*
G01X4443085Y-4316077D01*
G01X4448338Y-4302015D01*
G01X4450293Y-4287131D01*
G01X4448851Y-4272189D01*
G01X4444085Y-4257954D01*
G01X4436240Y-4245155D01*
G01X4425717Y-4234449D01*
G01X4413055Y-4226385D01*
G01X4398904Y-4221374D01*
G01X4383989Y-4219675D01*
G01X4369074Y-4221374D01*
G01X4354923Y-4226385D01*
G01X4342262Y-4234449D01*
G01X4331739Y-4245155D01*
G01X4323893Y-4257954D01*
G01X4319127Y-4272189D01*
G01X4317685Y-4287131D01*
G01X4319641Y-4302015D01*
G01X4324894Y-4316077D01*
G01X4333175Y-4328598D01*
G01X4333175Y-4594941D01*
G01X4148942Y-4779174D01*
G01X2437602Y-4779174D01*
G01X2437602Y-4779174D01*
G01X2426460Y-4771615D01*
G01X2414020Y-4766462D01*
G01X2400795Y-4763929D01*
G01X2213810Y-4576943D01*
G01X2213810Y-4509428D01*
G01X2526543Y-4509428D01*
G01X2529793Y-4524083D01*
G01X2536257Y-4537632D01*
G01X2545602Y-4549380D01*
G01X2545602Y-4549380D01*
G01X2557350Y-4558725D01*
G01X2570899Y-4565189D01*
G01X2585554Y-4568439D01*
G01X2600566Y-4568310D01*
G01X2615163Y-4564808D01*
G01X2628599Y-4558112D01*
G01X2640184Y-4548566D01*
G01X2649326Y-4536659D01*
G01X2655555Y-4523001D01*
G01X2658553Y-4508291D01*
G01X2681041Y-4485803D01*
G01X3102221Y-4485803D01*
G01X3115707Y-4493461D01*
G01X3130650Y-4497610D01*
G01X3146153Y-4498003D01*
G01X3161286Y-4494615D01*
G01X3175142Y-4487650D01*
G01X3186889Y-4477525D01*
G01X3195823Y-4464848D01*
G01X3201407Y-4450380D01*
G01X3203306Y-4434989D01*
G01X3201407Y-4419598D01*
G01X3195823Y-4405130D01*
G01X3186889Y-4392453D01*
G01X3175142Y-4382329D01*
G01X3161286Y-4375363D01*
G01X3146153Y-4371975D01*
G01X3130650Y-4372368D01*
G01X3115707Y-4376518D01*
G01X3102221Y-4384175D01*
G01X2659993Y-4384175D01*
G01X2646841Y-4385907D01*
G01X2634586Y-4390983D01*
G01X2624062Y-4399058D01*
G01X2586691Y-4436429D01*
G01X2571981Y-4439427D01*
G01X2558323Y-4445656D01*
G01X2546416Y-4454798D01*
G01X2536870Y-4466383D01*
G01X2530174Y-4479819D01*
G01X2526672Y-4494416D01*
G01X2526543Y-4509428D01*
G01X2213810Y-4509428D01*
G01X2213810Y-4453991D01*
G01X2212078Y-4440839D01*
G01X2207002Y-4428584D01*
G01X2198927Y-4418060D01*
G01X1935054Y-4154188D01*
G01X1932057Y-4139478D01*
G01X1925827Y-4125820D01*
G01X1916686Y-4113913D01*
G01X1905100Y-4104367D01*
G01X1891665Y-4097671D01*
G01X1877067Y-4094169D01*
G01X1862056Y-4094040D01*
G01X1847400Y-4097290D01*
G01X1833851Y-4103753D01*
G01X1822103Y-4113099D01*
G01X1812758Y-4124847D01*
G01X1806295Y-4138396D01*
G01X1803044Y-4153051D01*
G01X1518509Y-4153051D01*
G01X1518509Y-4091295D01*
G01X2858786Y-4091295D01*
G01X2859862Y-4107176D01*
G01X2864865Y-4122287D01*
G01X2873478Y-4135672D01*
G01X2873478Y-4202530D01*
G01X2865203Y-4216124D01*
G01X2860578Y-4231352D01*
G01X2859897Y-4247252D01*
G01X2863203Y-4262820D01*
G01X2870286Y-4277072D01*
G01X2880700Y-4289106D01*
G01X2893785Y-4298164D01*
G01X2908716Y-4303673D01*
G01X2924549Y-4305284D01*
G01X2924549Y-4305284D01*
G01X2940284Y-4302897D01*
G01X2954926Y-4296660D01*
G01X2967550Y-4286970D01*
G01X2977360Y-4274438D01*
G01X2983734Y-4259855D01*
G01X2986270Y-4244144D01*
G01X2984808Y-4228296D01*
G01X2979440Y-4213314D01*
G01X2970506Y-4200143D01*
G01X2970506Y-4151328D01*
G01X5151656Y-4151328D01*
G01X5155128Y-4166295D01*
G01X5162103Y-4179985D01*
G01X5172170Y-4191592D01*
G01X5184736Y-4200433D01*
G01X5199062Y-4205986D01*
G01X5214304Y-4207924D01*
G01X5226557Y-4213790D01*
G01X5239992Y-4215804D01*
G01X5855586Y-4215804D01*
G01X5861380Y-4231019D01*
G01X5870707Y-4244364D01*
G01X5883004Y-4255034D01*
G01X5897531Y-4262386D01*
G01X5913411Y-4265977D01*
G01X5929688Y-4265590D01*
G01X5945380Y-4261249D01*
G01X5959541Y-4253215D01*
G01X5971318Y-4241973D01*
G01X5980000Y-4228201D01*
G01X5985066Y-4212727D01*
G01X5986208Y-4196486D01*
G01X5983358Y-4180456D01*
G01X5976689Y-4165604D01*
G01X6377177Y-4165604D01*
G01X6389698Y-4173885D01*
G01X6403760Y-4179138D01*
G01X6418644Y-4181094D01*
G01X6433586Y-4179652D01*
G01X6447821Y-4174886D01*
G01X6460620Y-4167041D01*
G01X6471325Y-4156517D01*
G01X6479390Y-4143856D01*
G01X6484400Y-4129705D01*
G01X6486100Y-4114790D01*
G01X6484400Y-4099875D01*
G01X6479390Y-4085724D01*
G01X6471325Y-4073062D01*
G01X6460620Y-4062539D01*
G01X6447821Y-4054694D01*
G01X6433586Y-4049928D01*
G01X6418644Y-4048486D01*
G01X6403760Y-4050441D01*
G01X6389698Y-4055694D01*
G01X6377177Y-4063976D01*
G01X5865834Y-4063976D01*
G01X5841998Y-4040140D01*
G01X5841998Y-3595593D01*
G01X5953818Y-3595593D01*
G01X5954603Y-3611067D01*
G01X5958958Y-3625936D01*
G01X5966644Y-3639388D01*
G01X5977241Y-3650690D01*
G01X5990172Y-3659225D01*
G01X5990172Y-3837220D01*
G01X5990172Y-3837220D01*
G01X5982514Y-3850705D01*
G01X5978365Y-3865648D01*
G01X5977972Y-3881151D01*
G01X5981360Y-3896285D01*
G01X5988325Y-3910141D01*
G01X5998450Y-3921888D01*
G01X6011127Y-3930821D01*
G01X6025595Y-3936405D01*
G01X6040986Y-3938304D01*
G01X6056377Y-3936405D01*
G01X6070845Y-3930821D01*
G01X6083522Y-3921888D01*
G01X6093646Y-3910141D01*
G01X6100612Y-3896285D01*
G01X6103999Y-3881151D01*
G01X6103607Y-3865648D01*
G01X6099457Y-3850705D01*
G01X6091800Y-3837220D01*
G01X6091800Y-3620991D01*
G01X6090398Y-3609136D01*
G01X6086268Y-3597935D01*
G01X6083982Y-3582611D01*
G01X6078203Y-3568236D01*
G01X6069245Y-3555594D01*
G01X6057599Y-3545376D01*
G01X6043900Y-3538139D01*
G01X6028895Y-3534278D01*
G01X6013405Y-3534004D01*
G01X5998273Y-3537332D01*
G01X5984326Y-3544081D01*
G01X5972326Y-3553881D01*
G01X5962928Y-3566198D01*
G01X5956644Y-3580360D01*
G01X5953818Y-3595593D01*
G01X5841998Y-3595593D01*
G01X5841998Y-3582601D01*
G01X5850280Y-3570080D01*
G01X5855533Y-3556018D01*
G01X5857489Y-3541134D01*
G01X5856048Y-3526192D01*
G01X5851282Y-3511957D01*
G01X5843437Y-3499158D01*
G01X5832914Y-3488452D01*
G01X5820253Y-3480387D01*
G01X5806102Y-3475376D01*
G01X5791187Y-3473677D01*
G01X5776272Y-3475376D01*
G01X5762121Y-3480386D01*
G01X5749459Y-3488450D01*
G01X5738936Y-3499156D01*
G01X5731090Y-3511954D01*
G01X5726323Y-3526189D01*
G01X5724881Y-3541131D01*
G01X5726836Y-3556015D01*
G01X5732089Y-3570077D01*
G01X5740370Y-3582598D01*
G01X5740370Y-4061188D01*
G01X5742102Y-4074339D01*
G01X5747178Y-4086595D01*
G01X5755253Y-4097119D01*
G01X5782311Y-4124176D01*
G01X5782311Y-4124176D01*
G01X5274539Y-4124176D01*
G01X5267852Y-4110343D01*
G01X5258030Y-4098528D01*
G01X5245651Y-4089426D01*
G01X5231444Y-4083575D01*
G01X5216247Y-4081318D01*
G01X5200953Y-4082788D01*
G01X5186463Y-4087899D01*
G01X5173631Y-4096350D01*
G01X5163213Y-4107642D01*
G01X5155821Y-4121112D01*
G01X5151892Y-4135965D01*
G01X5151656Y-4151328D01*
G01X2970506Y-4151328D01*
G01X2970506Y-4135672D01*
G01X2979120Y-4122287D01*
G01X2984123Y-4107176D01*
G01X2985199Y-4091295D01*
G01X2982280Y-4075648D01*
G01X2975551Y-4061223D01*
G01X2965436Y-4048932D01*
G01X2952576Y-4039553D01*
G01X2937783Y-4033677D01*
G01X2921992Y-4031676D01*
G01X2906201Y-4033677D01*
G01X2891408Y-4039553D01*
G01X2878548Y-4048932D01*
G01X2868434Y-4061223D01*
G01X2861705Y-4075648D01*
G01X2858786Y-4091295D01*
G01X1518509Y-4091295D01*
G01X1518509Y-3755201D01*
G01X1527608Y-3742829D01*
G01X1533616Y-3728697D01*
G01X1536213Y-3713561D01*
G01X1535259Y-3698234D01*
G01X1530805Y-3683538D01*
G01X1523090Y-3670260D01*
G01X1512527Y-3659112D01*
G01X1499684Y-3650694D01*
G01X1485249Y-3645455D01*
G01X1469995Y-3643676D01*
G01X1454742Y-3645455D01*
G01X1440306Y-3650694D01*
G01X1427463Y-3659112D01*
G01X1416901Y-3670260D01*
G01X1409186Y-3683538D01*
G01X1404732Y-3698234D01*
G01X1403777Y-3713561D01*
G01X1406374Y-3728697D01*
G01X1412383Y-3742829D01*
G01X1421481Y-3755201D01*
G01X1421481Y-4189779D01*
G01X1412383Y-4202151D01*
G01X1406374Y-4216283D01*
G01X1403777Y-4231419D01*
G01X938510Y-4231419D01*
G01X938510Y-3211469D01*
G01X947689Y-3199739D01*
G01X954018Y-3186256D01*
G01X957178Y-3171700D01*
G01X957009Y-3156806D01*
G01X953521Y-3142326D01*
G01X946889Y-3128989D01*
G01X937448Y-3117469D01*
G01X925674Y-3108347D01*
G01X912161Y-3102083D01*
G01X915861Y-3086705D01*
G01X915814Y-3070889D01*
G01X912023Y-3055533D01*
G01X904703Y-3041512D01*
G01X894272Y-3029624D01*
G01X881322Y-3020543D01*
G01X866590Y-3014788D01*
G01X850914Y-3012684D01*
G01X1016482Y-2847116D01*
G01X1016482Y-2849993D01*
G01X1018135Y-2862549D01*
G01X1022982Y-2874250D01*
G01X1030692Y-2884297D01*
G01X1355693Y-3209298D01*
G01X1365740Y-3217008D01*
G01X1377441Y-3221855D01*
G01X1389997Y-3223508D01*
G01X1508352Y-3223508D01*
G01X1520723Y-3232606D01*
G01X1534855Y-3238615D01*
G01X1549991Y-3241212D01*
G01X1565318Y-3240257D01*
G01X1580014Y-3235803D01*
G01X1593292Y-3228088D01*
G01X1604440Y-3217526D01*
G01X1612859Y-3204682D01*
G01X1618097Y-3190247D01*
G01X1619876Y-3174994D01*
G01X1618097Y-3159740D01*
G01X1612859Y-3145305D01*
G01X1604440Y-3132462D01*
G01X1593292Y-3121899D01*
G01X1580014Y-3114184D01*
G01X1565318Y-3109730D01*
G01X1549991Y-3108776D01*
G01X1534855Y-3111373D01*
G01X1520723Y-3117381D01*
G01X1508352Y-3126480D01*
G01X1410092Y-3126480D01*
G01X1369510Y-3085897D01*
G01X1613946Y-3085897D01*
G01X1617075Y-3100932D01*
G01X1623578Y-3114843D01*
G01X1633107Y-3126886D01*
G01X1645150Y-3136414D01*
G01X1659062Y-3142917D01*
G01X1674097Y-3146045D01*
G01X1689448Y-3145631D01*
G01X1704292Y-3141697D01*
G01X1717834Y-3134454D01*
G01X1729346Y-3124291D01*
G01X1738212Y-3111752D01*
G01X1743956Y-3097510D01*
G01X1746270Y-3082328D01*
G01X1888301Y-2940297D01*
G01X1896011Y-2930249D01*
G01X1900857Y-2918549D01*
G01X1902510Y-2905992D01*
G01X1902510Y-2617995D01*
G01X2101680Y-2617995D01*
G01X2103458Y-2633248D01*
G01X2108697Y-2647684D01*
G01X2117116Y-2660527D01*
G01X2128263Y-2671090D01*
G01X2141541Y-2678805D01*
G01X2156238Y-2683259D01*
G01X2171565Y-2684213D01*
G01X2186700Y-2681616D01*
G01X2200833Y-2675607D01*
G01X2213204Y-2666509D01*
G01X2417900Y-2666509D01*
G01X2606481Y-2855089D01*
G01X2606481Y-2855089D01*
G01X2606481Y-3397783D01*
G01X2597382Y-3410154D01*
G01X2591374Y-3424287D01*
G01X2588777Y-3439422D01*
G01X2589731Y-3454749D01*
G01X2594185Y-3469446D01*
G01X2601900Y-3482724D01*
G01X2612463Y-3493871D01*
G01X2625306Y-3502290D01*
G01X2639741Y-3507529D01*
G01X2654995Y-3509307D01*
G01X2670248Y-3507529D01*
G01X2684683Y-3502290D01*
G01X2697527Y-3493871D01*
G01X2708089Y-3482724D01*
G01X2715804Y-3469446D01*
G01X2720258Y-3454749D01*
G01X2721213Y-3439422D01*
G01X2718616Y-3424287D01*
G01X2712607Y-3410154D01*
G01X2703509Y-3397783D01*
G01X2703509Y-2834994D01*
G01X2701856Y-2822438D01*
G01X2697009Y-2810737D01*
G01X2689299Y-2800690D01*
G01X2472300Y-2583690D01*
G01X2462252Y-2575981D01*
G01X2450552Y-2571134D01*
G01X2437995Y-2569481D01*
G01X2213204Y-2569481D01*
G01X2200833Y-2560383D01*
G01X2186700Y-2554374D01*
G01X2171565Y-2551777D01*
G01X2156238Y-2552731D01*
G01X2141541Y-2557185D01*
G01X2128263Y-2564901D01*
G01X2117116Y-2575463D01*
G01X2108697Y-2588306D01*
G01X2103458Y-2602742D01*
G01X2101680Y-2617995D01*
G01X1902510Y-2617995D01*
G01X1902510Y-2514687D01*
G01X1914087Y-2525123D01*
G01X1927779Y-2532570D01*
G01X1942832Y-2536614D01*
G01X1958413Y-2537034D01*
G01X1973661Y-2533805D01*
G01X1987735Y-2527106D01*
G01X1999856Y-2517307D01*
G01X2416809Y-2517307D01*
G01X3866715Y-3967213D01*
G01X3868923Y-3981708D01*
G01X3874406Y-3995307D01*
G01X3882871Y-4007280D01*
G01X3893862Y-4016985D01*
G01X3906792Y-4023901D01*
G01X3920965Y-4027658D01*
G01X3935622Y-4028053D01*
G01X3949978Y-4025066D01*
G01X3963261Y-4018858D01*
G01X3974760Y-4009760D01*
G01X3983858Y-3998261D01*
G01X3990066Y-3984978D01*
G01X3993053Y-3970622D01*
G01X3992658Y-3955965D01*
G01X3988901Y-3941791D01*
G01X3981985Y-3928862D01*
G01X3972280Y-3917871D01*
G01X3960307Y-3909406D01*
G01X3946708Y-3903923D01*
G01X3932213Y-3901715D01*
G01X2468742Y-2438244D01*
G01X2459150Y-2430884D01*
G01X2447980Y-2426257D01*
G01X2435993Y-2424679D01*
G01X2274356Y-2424679D01*
G01X2274810Y-2418995D01*
G01X2274810Y-2278995D01*
G01X2273057Y-2267928D01*
G01X2267970Y-2257945D01*
G01X2260046Y-2250021D01*
G01X2250063Y-2244934D01*
G01X2238996Y-2243181D01*
G01X2217220Y-2243181D01*
G01X2234524Y-2232078D01*
G01X2249354Y-2217837D01*
G01X2261150Y-2200997D01*
G01X2269467Y-2182194D01*
G01X2273990Y-2162138D01*
G01X2274550Y-2141585D01*
G01X2271124Y-2121313D01*
G01X2263843Y-2102085D01*
G01X2252980Y-2084629D01*
G01X2238947Y-2069602D01*
G01X2222273Y-2057573D01*
G01X2203588Y-2048996D01*
G01X2221890Y-2040641D01*
G01X2238280Y-2028973D01*
G01X2252165Y-2014413D01*
G01X2263044Y-1997489D01*
G01X2270522Y-1978811D01*
G01X2274330Y-1959056D01*
G01X2274330Y-1938937D01*
G01X2270522Y-1919181D01*
G01X2263044Y-1900504D01*
G01X2252165Y-1883579D01*
G01X2238280Y-1869020D01*
G01X2221890Y-1857351D01*
G01X2203588Y-1848996D01*
G01X2221890Y-1840641D01*
G01X2238280Y-1828973D01*
G01X2252165Y-1814414D01*
G01X2254992Y-1810016D01*
G01X2924168Y-1810016D01*
G01X2926059Y-1836460D01*
G01X2931695Y-1862366D01*
G01X2940960Y-1887206D01*
G01X2953665Y-1910475D01*
G01X2969553Y-1931698D01*
G01X2988300Y-1950445D01*
G01X3009523Y-1966333D01*
G01X3032792Y-1979038D01*
G01X3057632Y-1988303D01*
G01X3083538Y-1993939D01*
G01X3109982Y-1995830D01*
G01X3109982Y-1995830D01*
G01X3136426Y-1993939D01*
G01X3162332Y-1988303D01*
G01X3187172Y-1979038D01*
G01X3210440Y-1966333D01*
G01X3231664Y-1950445D01*
G01X3250410Y-1931698D01*
G01X3266298Y-1910475D01*
G01X3279004Y-1887206D01*
G01X3288269Y-1862366D01*
G01X3293904Y-1836460D01*
G01X3295796Y-1810016D01*
G01X3295795Y-1810009D01*
G01X4259165Y-1810009D01*
G01X4261057Y-1836453D01*
G01X4266692Y-1862358D01*
G01X4275957Y-1887198D01*
G01X4288662Y-1910467D01*
G01X4304550Y-1931691D01*
G01X4323297Y-1950437D01*
G01X4344520Y-1966325D01*
G01X4367789Y-1979031D01*
G01X4392629Y-1988296D01*
G01X4418535Y-1993931D01*
G01X4444979Y-1995822D01*
G01X4444979Y-1995822D01*
G01X4471423Y-1993931D01*
G01X4497329Y-1988296D01*
G01X4522169Y-1979031D01*
G01X4545437Y-1966325D01*
G01X4566661Y-1950437D01*
G01X4585408Y-1931691D01*
G01X4601295Y-1910467D01*
G01X4614001Y-1887198D01*
G01X4623266Y-1862358D01*
G01X4628901Y-1836453D01*
G01X4630793Y-1810009D01*
G01X4628901Y-1783565D01*
G01X4623266Y-1757659D01*
G01X4614001Y-1732819D01*
G01X4601295Y-1709550D01*
G01X4585408Y-1688326D01*
G01X4566661Y-1669580D01*
G01X4545437Y-1653692D01*
G01X4522169Y-1640986D01*
G01X4497329Y-1631722D01*
G01X4471423Y-1626086D01*
G01X4444979Y-1624195D01*
G01X4418535Y-1626086D01*
G01X4392629Y-1631722D01*
G01X4367789Y-1640986D01*
G01X4344520Y-1653692D01*
G01X4323297Y-1669580D01*
G01X4304550Y-1688326D01*
G01X4288662Y-1709550D01*
G01X4275957Y-1732819D01*
G01X4266692Y-1757659D01*
G01X4261057Y-1783565D01*
G01X4259165Y-1810009D01*
G01X3295795Y-1810009D01*
G01X3293904Y-1783572D01*
G01X3288269Y-1757666D01*
G01X3279004Y-1732826D01*
G01X3266298Y-1709558D01*
G01X3250410Y-1688334D01*
G01X3231664Y-1669588D01*
G01X3210440Y-1653700D01*
G01X3187172Y-1640994D01*
G01X3162332Y-1631729D01*
G01X3136426Y-1626094D01*
G01X3109982Y-1624202D01*
G01X3083538Y-1626094D01*
G01X3057632Y-1631729D01*
G01X3032792Y-1640994D01*
G01X3009523Y-1653700D01*
G01X2988300Y-1669588D01*
G01X2969553Y-1688334D01*
G01X2953665Y-1709558D01*
G01X2940960Y-1732826D01*
G01X2931695Y-1757666D01*
G01X2926059Y-1783572D01*
G01X2924168Y-1810016D01*
G01X2254992Y-1810016D01*
G01X2263044Y-1797489D01*
G01X2270522Y-1778812D01*
G01X2274330Y-1759056D01*
G01X2274330Y-1738937D01*
G01X2270522Y-1719181D01*
G01X2263044Y-1700504D01*
G01X2252165Y-1683579D01*
G01X2238280Y-1669020D01*
G01X2221890Y-1657352D01*
G01X2203588Y-1648997D01*
G01X2221890Y-1640642D01*
G01X2238280Y-1628973D01*
G01X2252165Y-1614414D01*
G01X2263044Y-1597489D01*
G01X2270522Y-1578812D01*
G01X2274330Y-1559056D01*
G01X2274330Y-1538937D01*
G01X2270522Y-1519182D01*
G01X2263044Y-1500504D01*
G01X2252165Y-1483580D01*
G01X2238280Y-1469020D01*
G01X2221890Y-1457352D01*
G01X2203588Y-1448997D01*
G01X2221890Y-1440642D01*
G01X2238280Y-1428974D01*
G01X2252165Y-1414414D01*
G01X2263044Y-1397490D01*
G01X2270522Y-1378812D01*
G01X2274330Y-1359057D01*
G01X2274330Y-1338938D01*
G01X2270522Y-1319182D01*
G01X2263044Y-1300505D01*
G01X2252165Y-1283580D01*
G01X2238280Y-1269021D01*
G01X2221890Y-1257353D01*
G01X2203588Y-1248998D01*
G01X2222323Y-1240391D01*
G01X2239033Y-1228315D01*
G01X2253085Y-1213228D01*
G01X2263944Y-1195703D01*
G01X2271199Y-1176404D01*
G01X2274573Y-1156065D01*
G01X2273940Y-1135458D01*
G01X2269322Y-1115364D01*
G01X2260895Y-1096548D01*
G01X2248980Y-1079722D01*
G01X2234028Y-1065527D01*
G01X2216607Y-1054501D01*
G01X2197379Y-1047062D01*
G01X2177073Y-1043493D01*
G01X2156461Y-1043929D01*
G01X2136324Y-1048354D01*
G01X2117428Y-1056600D01*
G01X2100489Y-1068354D01*
G01X2086151Y-1083169D01*
G01X2074959Y-1100484D01*
G01X1818996Y-1100484D01*
G01X1806440Y-1102137D01*
G01X1794739Y-1106983D01*
G01X1784692Y-1114693D01*
G01X1663692Y-1235693D01*
G01X1655982Y-1245740D01*
G01X1651136Y-1257441D01*
G01X1649483Y-1269997D01*
G01X1649483Y-2468785D01*
G01X1640384Y-2481156D01*
G01X1634376Y-2495289D01*
G01X1631779Y-2510424D01*
G01X1632733Y-2525751D01*
G01X1637187Y-2540448D01*
G01X1644902Y-2553726D01*
G01X1655465Y-2564873D01*
G01X1668308Y-2573292D01*
G01X1682743Y-2578531D01*
G01X1697997Y-2580309D01*
G01X1713250Y-2578531D01*
G01X1727685Y-2573292D01*
G01X1740529Y-2564873D01*
G01X1751091Y-2553726D01*
G01X1758806Y-2540448D01*
G01X1763260Y-2525751D01*
G01X1764214Y-2510424D01*
G01X1761618Y-2495289D01*
G01X1755609Y-2481156D01*
G01X1746511Y-2468785D01*
G01X1746511Y-1290093D01*
G01X1839092Y-1197512D01*
G01X2074959Y-1197512D01*
G01X2085837Y-1214429D01*
G01X2099720Y-1228982D01*
G01X2116107Y-1240645D01*
G01X2134404Y-1248998D01*
G01X2116101Y-1257353D01*
G01X2099711Y-1269021D01*
G01X2085826Y-1283580D01*
G01X2074948Y-1300505D01*
G01X2067469Y-1319182D01*
G01X2063661Y-1338938D01*
G01X2063661Y-1359057D01*
G01X2067469Y-1378812D01*
G01X2074948Y-1397490D01*
G01X2085826Y-1414414D01*
G01X2099711Y-1428974D01*
G01X2116101Y-1440642D01*
G01X2134404Y-1448997D01*
G01X2116101Y-1457352D01*
G01X2099711Y-1469020D01*
G01X2085826Y-1483580D01*
G01X2074948Y-1500504D01*
G01X2067469Y-1519182D01*
G01X2063661Y-1538937D01*
G01X2063661Y-1559056D01*
G01X2067469Y-1578812D01*
G01X2074948Y-1597489D01*
G01X2085826Y-1614414D01*
G01X2099711Y-1628973D01*
G01X2116101Y-1640642D01*
G01X2134404Y-1648997D01*
G01X2116101Y-1657352D01*
G01X2099711Y-1669020D01*
G01X2085826Y-1683579D01*
G01X2074948Y-1700504D01*
G01X2067469Y-1719181D01*
G01X2063661Y-1738937D01*
G01X2063661Y-1759056D01*
G01X2067469Y-1778812D01*
G01X2074948Y-1797489D01*
G01X2085826Y-1814414D01*
G01X2099711Y-1828973D01*
G01X2116101Y-1840641D01*
G01X2134404Y-1848996D01*
G01X2116101Y-1857351D01*
G01X2099711Y-1869020D01*
G01X2085826Y-1883579D01*
G01X2074948Y-1900504D01*
G01X2067469Y-1919181D01*
G01X2063661Y-1938937D01*
G01X2063661Y-1959056D01*
G01X2067469Y-1978811D01*
G01X2074948Y-1997489D01*
G01X2085826Y-2014413D01*
G01X2099711Y-2028973D01*
G01X2116101Y-2040641D01*
G01X2134404Y-2048996D01*
G01X2115718Y-2057573D01*
G01X2099044Y-2069602D01*
G01X2085011Y-2084629D01*
G01X2074149Y-2102085D01*
G01X2066867Y-2121313D01*
G01X2063442Y-2141585D01*
G01X2064001Y-2162138D01*
G01X2068525Y-2182194D01*
G01X2076841Y-2200997D01*
G01X2088637Y-2217837D01*
G01X2103467Y-2232078D01*
G01X2120771Y-2243181D01*
G01X2098996Y-2243181D01*
G01X2087929Y-2244934D01*
G01X2077945Y-2250021D01*
G01X2070022Y-2257945D01*
G01X2064935Y-2267928D01*
G01X2063182Y-2278995D01*
G01X2063182Y-2418995D01*
G01X2063636Y-2424679D01*
G01X1999856Y-2424679D01*
G01X1987735Y-2414881D01*
G01X1973661Y-2408182D01*
G01X1958413Y-2404953D01*
G01X1942832Y-2405372D01*
G01X1927779Y-2409417D01*
G01X1914087Y-2416863D01*
G01X1902510Y-2427300D01*
G01X1902510Y-1328207D01*
G01X1911609Y-1315836D01*
G01X1917617Y-1301704D01*
G01X1920214Y-1286568D01*
G01X1919260Y-1271241D01*
G01X1914806Y-1256545D01*
G01X1907091Y-1243267D01*
G01X1896528Y-1232119D01*
G01X1883685Y-1223700D01*
G01X1869250Y-1218461D01*
G01X1853996Y-1216683D01*
G01X1838743Y-1218461D01*
G01X1824307Y-1223700D01*
G01X1811464Y-1232119D01*
G01X1800902Y-1243267D01*
G01X1793187Y-1256545D01*
G01X1788733Y-1271241D01*
G01X1787778Y-1286568D01*
G01X1790375Y-1301704D01*
G01X1796384Y-1315836D01*
G01X1805482Y-1328207D01*
G01X1805482Y-2885897D01*
G01X1677659Y-3013721D01*
G01X1677659Y-3013721D01*
G01X1662477Y-3016036D01*
G01X1648236Y-3021781D01*
G01X1635697Y-3030647D01*
G01X1625534Y-3042160D01*
G01X1618292Y-3055702D01*
G01X1614359Y-3070546D01*
G01X1613946Y-3085897D01*
G01X1369510Y-3085897D01*
G01X1113510Y-2829897D01*
G01X1113510Y-2434993D01*
G01X1111857Y-2422437D01*
G01X1107010Y-2410736D01*
G01X1099301Y-2400688D01*
G01X1068510Y-2369898D01*
G01X1068510Y-1090091D01*
G01X1152972Y-1005630D01*
G01X1160682Y-995582D01*
G01X1165528Y-983881D01*
G01X1167181Y-971325D01*
G01X1167181Y-907597D01*
G01X1175857Y-895957D01*
G01X1181791Y-882707D01*
G01X1184701Y-868484D01*
G01X1184445Y-853968D01*
G01X1181036Y-839856D01*
G01X1174639Y-826824D01*
G01X1165558Y-815496D01*
G01X1154231Y-806416D01*
G01X1141199Y-800018D01*
G01X1127086Y-796610D01*
G01X1112571Y-796354D01*
G01X1098347Y-799263D01*
G01X1085098Y-805198D01*
G01X1073457Y-813873D01*
G01X864565Y-813873D01*
G01X852479Y-804404D01*
G01X838540Y-797968D01*
G01X823494Y-794910D01*
G01X808149Y-795394D01*
G01X793326Y-799393D01*
G01X779820Y-806695D01*
G01X768355Y-816907D01*
G01X759545Y-829481D01*
G01X753864Y-843745D01*
G01X751615Y-858932D01*
G01X752919Y-874230D01*
G01X757706Y-888818D01*
G01X765719Y-901914D01*
G01X776530Y-912817D01*
G01X789558Y-920941D01*
G01X804105Y-925851D01*
G01X819391Y-927284D01*
G01X834597Y-925164D01*
G01X848908Y-919604D01*
G01X861557Y-910901D01*
G01X1070153Y-910901D01*
G01X1070153Y-951230D01*
G01X985692Y-1035692D01*
G01X977982Y-1045739D01*
G01X973135Y-1057440D01*
G01X971482Y-1069996D01*
G01X971482Y-2389993D01*
G01X972015Y-2397162D01*
G01X973600Y-2404173D01*
G01X959385Y-2411795D01*
G01X947430Y-2422623D01*
G01X938443Y-2436017D01*
G01X932956Y-2451185D01*
G01X931293Y-2467229D01*
G01X933553Y-2483200D01*
G01X939602Y-2498153D01*
G01X949082Y-2511203D01*
G01X949082Y-2777298D01*
G01X475441Y-3250939D01*
G01X467731Y-3260986D01*
G01X462885Y-3272687D01*
G01X461232Y-3285243D01*
G01X461232Y-3415221D01*
G01X300812Y-3254801D01*
G01X300812Y-2067175D01*
G01X307156Y-2053354D01*
G01X310402Y-2038498D01*
G01X310402Y-2023291D01*
G01X307156Y-2008434D01*
G01X300812Y-1994614D01*
G01X300812Y-1589094D01*
G01X368946Y-1589094D01*
G01X369360Y-1604445D01*
G01X373294Y-1619289D01*
G01X380536Y-1632831D01*
G01X390699Y-1644343D01*
G01X403238Y-1653209D01*
G01X417480Y-1658954D01*
G01X432661Y-1661268D01*
G01X786483Y-2015089D01*
G01X786483Y-2154784D01*
G01X786483Y-2154784D01*
G01X777384Y-2167155D01*
G01X771376Y-2181287D01*
G01X768779Y-2196423D01*
G01X769733Y-2211750D01*
G01X774187Y-2226447D01*
G01X781902Y-2239725D01*
G01X792464Y-2250872D01*
G01X805308Y-2259291D01*
G01X819743Y-2264530D01*
G01X834997Y-2266308D01*
G01X850250Y-2264530D01*
G01X864685Y-2259291D01*
G01X877529Y-2250872D01*
G01X888091Y-2239725D01*
G01X895806Y-2226447D01*
G01X900260Y-2211750D01*
G01X901214Y-2196423D01*
G01X898618Y-2181287D01*
G01X892609Y-2167155D01*
G01X883511Y-2154784D01*
G01X883511Y-1994994D01*
G01X881857Y-1982438D01*
G01X877011Y-1970737D01*
G01X869301Y-1960690D01*
G01X501270Y-1592659D01*
G01X498956Y-1577477D01*
G01X493212Y-1563236D01*
G01X484345Y-1550697D01*
G01X472833Y-1540534D01*
G01X459291Y-1533291D01*
G01X444447Y-1529358D01*
G01X429096Y-1528944D01*
G01X414061Y-1532073D01*
G01X400149Y-1538575D01*
G01X388106Y-1548104D01*
G01X378578Y-1560147D01*
G01X372075Y-1574059D01*
G01X368946Y-1589094D01*
G01X300812Y-1589094D01*
G01X300812Y-918190D01*
G01X668431Y-550571D01*
G01X766671Y-550571D01*
G01X766671Y-630571D01*
G01X768512Y-649263D01*
G01X773964Y-667237D01*
G01X782818Y-683802D01*
G01X794734Y-698321D01*
G01X809253Y-710237D01*
G01X825818Y-719091D01*
G01X843792Y-724544D01*
G01X862484Y-726385D01*
G01X881177Y-724544D01*
G01X899151Y-719091D01*
G01X915716Y-710237D01*
G01X930235Y-698321D01*
G01X942151Y-683802D01*
G01X951005Y-667237D01*
G01X956457Y-649263D01*
G01X958298Y-630571D01*
G01X958298Y-597070D01*
G01X971690Y-605867D01*
G01X986674Y-611544D01*
G01X1002532Y-613831D01*
G01X1018509Y-612618D01*
G01X1033841Y-607963D01*
G01X1047795Y-600089D01*
G01X1059706Y-589372D01*
G01X1069003Y-576323D01*
G01X1075244Y-561565D01*
G01X1078130Y-545805D01*
G01X1511861Y-545805D01*
G01X1514747Y-561565D01*
G01X1520988Y-576323D01*
G01X1530286Y-589372D01*
G01X1542196Y-600089D01*
G01X1556151Y-607963D01*
G01X1571482Y-612618D01*
G01X1587459Y-613831D01*
G01X1603318Y-611544D01*
G01X1618301Y-605867D01*
G01X1631693Y-597070D01*
G01X1631693Y-630571D01*
G01X1631693Y-630571D01*
G01X1633534Y-649263D01*
G01X1638986Y-667237D01*
G01X1647841Y-683802D01*
G01X1659756Y-698321D01*
G01X1674275Y-710237D01*
G01X1690840Y-719091D01*
G01X1708814Y-724544D01*
G01X1727507Y-726385D01*
G01X1746199Y-724544D01*
G01X1764173Y-719091D01*
G01X1780738Y-710237D01*
G01X1795257Y-698321D01*
G01X1807173Y-683802D01*
G01X1816027Y-667237D01*
G01X1821480Y-649263D01*
G01X1823321Y-630571D01*
G01X1823321Y-550571D01*
G01X1821431Y-531635D01*
G01X1815836Y-513447D01*
G01X1806757Y-496723D01*
G01X1794552Y-482122D01*
G01X1779703Y-470222D01*
G01X1762794Y-461492D01*
G01X1744494Y-456275D01*
G01X1725523Y-454778D01*
G01X1706631Y-457059D01*
G01X1688562Y-463029D01*
G01X1672029Y-472452D01*
G01X1657685Y-484957D01*
G01X1646095Y-500050D01*
G01X1635835Y-487742D01*
G01X1623147Y-477958D01*
G01X1608637Y-471163D01*
G01X1592997Y-467682D01*
G01X1576974Y-467683D01*
G01X1561334Y-471164D01*
G01X1546824Y-477960D01*
G01X1534136Y-487745D01*
G01X1523878Y-500054D01*
G01X1516538Y-514296D01*
G01X1512467Y-529793D01*
G01X1511861Y-545805D01*
G01X1078130Y-545805D01*
G01X1078130Y-545805D01*
G01X1077524Y-529793D01*
G01X1073453Y-514296D01*
G01X1066114Y-500054D01*
G01X1055855Y-487745D01*
G01X1043168Y-477960D01*
G01X1028657Y-471164D01*
G01X1013017Y-467683D01*
G01X996995Y-467682D01*
G01X981354Y-471163D01*
G01X966844Y-477958D01*
G01X954156Y-487742D01*
G01X943897Y-500050D01*
G01X932306Y-484957D01*
G01X917962Y-472452D01*
G01X901430Y-463029D01*
G01X883361Y-457059D01*
G01X864468Y-454778D01*
G01X845498Y-456275D01*
G01X827197Y-461492D01*
G01X810289Y-470222D01*
G01X795439Y-482122D01*
G01X783234Y-496723D01*
G01X774155Y-513447D01*
G01X768560Y-531635D01*
G01X766671Y-550571D01*
G01X766671Y-550571D01*
G01X668431Y-550571D01*
G01X776189Y-442813D01*
G01X2291805Y-442813D01*
G01X3071990Y-1222998D01*
G01X3081206Y-1230561D01*
G01X3091720Y-1236180D01*
G01X3103128Y-1239641D01*
G01X3114992Y-1240810D01*
G01X4959174Y-1240810D01*
G01X4959174Y-2421874D01*
G01X4777524Y-2603524D01*
G01X4768654Y-2615084D01*
G01X4763078Y-2628545D01*
G01X4761176Y-2642991D01*
G01X4761176Y-2773707D01*
G01X4763078Y-2788153D01*
G01X4768654Y-2801614D01*
G01X4777524Y-2813174D01*
G01X4826844Y-2862494D01*
G01X4832003Y-2877364D01*
G01X4840521Y-2890600D01*
G01X4851918Y-2901456D01*
G01X4865553Y-2909320D01*
G01X4880657Y-2913748D01*
G01X4896379Y-2914493D01*
G01X4911834Y-2911511D01*
G01X4926151Y-2904970D01*
G01X4938523Y-2895240D01*
G01X4948253Y-2882868D01*
G01X4954794Y-2868551D01*
G01X4957776Y-2853096D01*
G01X4957031Y-2837374D01*
G01X4952603Y-2822270D01*
G01X4944739Y-2808635D01*
G01X4933883Y-2797238D01*
G01X4920647Y-2788720D01*
G01X4905777Y-2783561D01*
G01X4898171Y-2775956D01*
G01X4911425Y-2775994D01*
G01X4924421Y-2773396D01*
G01X4936641Y-2768265D01*
G01X4947597Y-2760807D01*
G01X5088940Y-2760807D01*
G01X5147206Y-2819073D01*
G01X5132255Y-2819130D01*
G01X5117697Y-2822536D01*
G01X5104272Y-2829116D01*
G01X5092662Y-2838537D01*
G01X5083458Y-2850319D01*
G01X5077127Y-2863864D01*
G01X5073991Y-2878482D01*
G01X5074210Y-2893431D01*
G01X5077772Y-2907952D01*
G01X5084497Y-2921305D01*
G01X5094042Y-2932813D01*
G01X5105923Y-2941890D01*
G01X5119534Y-2948074D01*
G01X5134186Y-2951052D01*
G01X5179174Y-2996040D01*
G01X5179174Y-3364267D01*
G01X5165803Y-3361154D01*
G01X5152077Y-3360949D01*
G01X5138620Y-3363663D01*
G01X5126045Y-3369170D01*
G01X5114926Y-3377221D01*
G01X5105768Y-3387449D01*
G01X5098990Y-3399387D01*
G01X5094900Y-3412491D01*
G01X5093685Y-3426165D01*
G01X5095399Y-3439786D01*
G01X5099964Y-3452732D01*
G01X5107174Y-3464415D01*
G01X5107174Y-3540943D01*
G01X5034057Y-3614060D01*
G01X5025982Y-3624584D01*
G01X5020905Y-3636839D01*
G01X5019174Y-3649991D01*
G01X5019174Y-3837220D01*
G01X5011516Y-3850705D01*
G01X5007367Y-3865648D01*
G01X5006974Y-3881151D01*
G01X5010362Y-3896285D01*
G01X5017327Y-3910141D01*
G01X5027452Y-3921888D01*
G01X5040129Y-3930821D01*
G01X5054596Y-3936405D01*
G01X5069988Y-3938304D01*
G01X5085379Y-3936405D01*
G01X5099847Y-3930821D01*
G01X5112524Y-3921888D01*
G01X5122648Y-3910141D01*
G01X5129613Y-3896285D01*
G01X5133001Y-3881151D01*
G01X5132609Y-3865648D01*
G01X5128459Y-3850705D01*
G01X5120802Y-3837220D01*
G01X5120802Y-3671039D01*
G01X5179174Y-3612667D01*
G01X5179174Y-3614991D01*
G01X5180889Y-3628084D01*
G01X5185921Y-3640292D01*
G01X5193928Y-3650792D01*
G01X5196558Y-3664334D01*
G01X5201932Y-3677039D01*
G01X5209819Y-3688357D01*
G01X5219877Y-3697799D01*
G01X5231671Y-3704955D01*
G01X5244690Y-3709516D01*
G01X5258371Y-3711285D01*
G01X5272122Y-3710185D01*
G01X5285347Y-3706264D01*
G01X5297476Y-3699692D01*
G01X5307982Y-3690752D01*
G01X5316411Y-3679832D01*
G01X5330077Y-3684607D01*
G01X5344452Y-3686303D01*
G01X5358853Y-3684839D01*
G01X5372594Y-3680285D01*
G01X5385019Y-3672859D01*
G01X5395537Y-3662913D01*
G01X5403646Y-3650923D01*
G01X5408960Y-3637458D01*
G01X5411226Y-3623161D01*
G01X5410336Y-3608713D01*
G01X5406332Y-3594803D01*
G01X5399405Y-3582092D01*
G01X5389885Y-3571188D01*
G01X5378226Y-3562608D01*
G01X5364984Y-3556763D01*
G01X5350788Y-3553931D01*
G01X5340801Y-3543944D01*
G01X5340801Y-2931257D01*
G01X5613969Y-2931257D01*
G01X5617305Y-2946640D01*
G01X5624173Y-2960802D01*
G01X5624173Y-3054992D01*
G01X5626074Y-3069438D01*
G01X5631650Y-3082899D01*
G01X5640520Y-3094459D01*
G01X5820520Y-3274458D01*
G01X5820520Y-3274458D01*
G01X5832079Y-3283328D01*
G01X5845541Y-3288904D01*
G01X5859986Y-3290805D01*
G01X5994176Y-3290805D01*
G01X6008339Y-3297673D01*
G01X6023721Y-3301009D01*
G01X6039457Y-3300626D01*
G01X6054658Y-3296545D01*
G01X6068470Y-3288996D01*
G01X6080114Y-3278405D01*
G01X6088934Y-3265368D01*
G01X6094432Y-3250620D01*
G01X6096300Y-3234991D01*
G01X6094432Y-3219363D01*
G01X6088934Y-3204615D01*
G01X6080114Y-3191578D01*
G01X6068470Y-3180987D01*
G01X6054658Y-3173438D01*
G01X6039457Y-3169357D01*
G01X6023721Y-3168974D01*
G01X6008339Y-3172310D01*
G01X5994176Y-3179178D01*
G01X5883105Y-3179178D01*
G01X5735801Y-3031873D01*
G01X5735801Y-2960802D01*
G01X5742668Y-2946640D01*
G01X5746004Y-2931257D01*
G01X5745621Y-2915522D01*
G01X5741540Y-2900320D01*
G01X5733992Y-2886508D01*
G01X5723400Y-2874865D01*
G01X5710364Y-2866045D01*
G01X5695615Y-2860546D01*
G01X5679987Y-2858678D01*
G01X5664358Y-2860546D01*
G01X5649610Y-2866045D01*
G01X5636573Y-2874865D01*
G01X5625982Y-2886508D01*
G01X5618433Y-2900320D01*
G01X5614352Y-2915522D01*
G01X5613969Y-2931257D01*
G01X5340801Y-2931257D01*
G01X5340801Y-2889992D01*
G01X5339070Y-2876841D01*
G01X5333994Y-2864585D01*
G01X5325918Y-2854062D01*
G01X5145919Y-2674062D01*
G01X5135395Y-2665987D01*
G01X5123140Y-2660910D01*
G01X5109988Y-2659179D01*
G01X4947597Y-2659179D01*
G01X4935798Y-2651270D01*
G01X4922586Y-2646056D01*
G01X4908566Y-2643775D01*
G01X4894382Y-2644532D01*
G01X5008915Y-2530000D01*
G01X5439173Y-2530000D01*
G01X5441145Y-2551280D01*
G01X5446994Y-2571836D01*
G01X5456520Y-2590968D01*
G01X5469399Y-2608023D01*
G01X5485193Y-2622421D01*
G01X5503364Y-2633672D01*
G01X5523293Y-2641392D01*
G01X5544301Y-2645319D01*
G01X5565673Y-2645319D01*
G01X5586681Y-2641392D01*
G01X5606610Y-2633672D01*
G01X5624780Y-2622421D01*
G01X5640574Y-2608023D01*
G01X5653454Y-2590968D01*
G01X5662980Y-2571836D01*
G01X5668829Y-2551280D01*
G01X5670801Y-2530000D01*
G01X5670801Y-2530000D01*
G01X5668829Y-2508719D01*
G01X5662980Y-2488163D01*
G01X5653454Y-2469031D01*
G01X5640574Y-2451976D01*
G01X5624780Y-2437578D01*
G01X5606610Y-2426327D01*
G01X5586681Y-2418607D01*
G01X5565673Y-2414680D01*
G01X5544301Y-2414680D01*
G01X5523293Y-2418607D01*
G01X5503364Y-2426327D01*
G01X5485193Y-2437578D01*
G01X5469399Y-2451976D01*
G01X5456520Y-2469031D01*
G01X5446994Y-2488163D01*
G01X5441145Y-2508719D01*
G01X5439173Y-2530000D01*
G01X5008915Y-2530000D01*
G01X5054454Y-2484460D01*
G01X5063324Y-2472900D01*
G01X5068900Y-2459439D01*
G01X5070802Y-2444993D01*
G01X5070802Y-2179988D01*
G01X5439173Y-2179988D01*
G01X5441145Y-2201268D01*
G01X5446994Y-2221824D01*
G01X5456520Y-2240956D01*
G01X5469399Y-2258011D01*
G01X5485193Y-2272409D01*
G01X5503364Y-2283660D01*
G01X5523293Y-2291380D01*
G01X5544301Y-2295307D01*
G01X5565673Y-2295307D01*
G01X5586681Y-2291380D01*
G01X5606610Y-2283660D01*
G01X5624780Y-2272409D01*
G01X5640574Y-2258011D01*
G01X5653454Y-2240956D01*
G01X5662980Y-2221824D01*
G01X5668829Y-2201268D01*
G01X5670801Y-2179988D01*
G01X5670801Y-2179988D01*
G01X5668829Y-2158707D01*
G01X5662980Y-2138151D01*
G01X5653454Y-2119019D01*
G01X5640574Y-2101964D01*
G01X5624780Y-2087566D01*
G01X5606610Y-2076315D01*
G01X5586681Y-2068595D01*
G01X5565673Y-2064668D01*
G01X5544301Y-2064668D01*
G01X5523293Y-2068595D01*
G01X5503364Y-2076315D01*
G01X5485193Y-2087566D01*
G01X5469399Y-2101964D01*
G01X5456520Y-2119019D01*
G01X5446994Y-2138151D01*
G01X5441145Y-2158707D01*
G01X5439173Y-2179988D01*
G01X5070802Y-2179988D01*
G01X5070802Y-1810009D01*
G01X6454161Y-1810009D01*
G01X6456052Y-1836453D01*
G01X6461688Y-1862358D01*
G01X6470953Y-1887198D01*
G01X6483658Y-1910467D01*
G01X6499546Y-1931691D01*
G01X6518293Y-1950437D01*
G01X6539516Y-1966325D01*
G01X6562785Y-1979031D01*
G01X6587625Y-1988296D01*
G01X6613531Y-1993931D01*
G01X6639975Y-1995822D01*
G01X6639975Y-1995822D01*
G01X6666419Y-1993931D01*
G01X6692325Y-1988296D01*
G01X6717165Y-1979031D01*
G01X6740433Y-1966325D01*
G01X6761657Y-1950437D01*
G01X6780403Y-1931691D01*
G01X6796291Y-1910467D01*
G01X6808997Y-1887198D01*
G01X6818262Y-1862358D01*
G01X6823897Y-1836453D01*
G01X6825788Y-1810009D01*
G01X6825431Y-1805016D01*
G01X7764158Y-1805016D01*
G01X7766050Y-1831460D01*
G01X7771685Y-1857366D01*
G01X7780950Y-1882206D01*
G01X7793656Y-1905475D01*
G01X7809544Y-1926698D01*
G01X7828290Y-1945445D01*
G01X7849514Y-1961333D01*
G01X7872782Y-1974038D01*
G01X7897622Y-1983303D01*
G01X7923528Y-1988939D01*
G01X7949972Y-1990830D01*
G01X7949972Y-1990830D01*
G01X7976416Y-1988939D01*
G01X8002322Y-1983303D01*
G01X8027162Y-1974038D01*
G01X8050431Y-1961333D01*
G01X8071654Y-1945445D01*
G01X8090401Y-1926698D01*
G01X8106289Y-1905475D01*
G01X8118994Y-1882206D01*
G01X8128259Y-1857366D01*
G01X8133895Y-1831460D01*
G01X8135786Y-1805016D01*
G01X8133895Y-1778572D01*
G01X8128259Y-1752666D01*
G01X8118994Y-1727826D01*
G01X8106289Y-1704558D01*
G01X8090401Y-1683334D01*
G01X8071654Y-1664588D01*
G01X8050431Y-1648700D01*
G01X8027162Y-1635994D01*
G01X8002322Y-1626729D01*
G01X7976416Y-1621094D01*
G01X7949972Y-1619203D01*
G01X7923528Y-1621094D01*
G01X7897622Y-1626729D01*
G01X7872782Y-1635994D01*
G01X7849514Y-1648700D01*
G01X7828290Y-1664588D01*
G01X7809544Y-1683334D01*
G01X7793656Y-1704558D01*
G01X7780950Y-1727826D01*
G01X7771685Y-1752666D01*
G01X7766050Y-1778572D01*
G01X7764158Y-1805016D01*
G01X6825431Y-1805016D01*
G01X6823897Y-1783565D01*
G01X6818262Y-1757659D01*
G01X6808997Y-1732819D01*
G01X6796291Y-1709550D01*
G01X6780403Y-1688326D01*
G01X6761657Y-1669580D01*
G01X6740433Y-1653692D01*
G01X6717165Y-1640986D01*
G01X6692325Y-1631722D01*
G01X6666419Y-1626086D01*
G01X6639975Y-1624195D01*
G01X6613531Y-1626086D01*
G01X6587625Y-1631722D01*
G01X6562785Y-1640986D01*
G01X6539516Y-1653692D01*
G01X6518293Y-1669580D01*
G01X6499546Y-1688326D01*
G01X6483658Y-1709550D01*
G01X6470953Y-1732819D01*
G01X6461688Y-1757659D01*
G01X6456052Y-1783565D01*
G01X6454161Y-1810009D01*
G01X5070802Y-1810009D01*
G01X5070802Y-1355002D01*
G01X5434173Y-1355002D01*
G01X5436145Y-1376282D01*
G01X5441994Y-1396838D01*
G01X5451520Y-1415970D01*
G01X5464399Y-1433025D01*
G01X5480193Y-1447423D01*
G01X5498364Y-1458674D01*
G01X5518293Y-1466394D01*
G01X5539301Y-1470321D01*
G01X5560673Y-1470321D01*
G01X5581681Y-1466394D01*
G01X5601610Y-1458674D01*
G01X5619780Y-1447423D01*
G01X5635574Y-1433025D01*
G01X5648454Y-1415970D01*
G01X5657980Y-1396838D01*
G01X5663829Y-1376282D01*
G01X5665801Y-1355002D01*
G01X5665801Y-1355002D01*
G01X5663829Y-1333721D01*
G01X5657980Y-1313165D01*
G01X5648454Y-1294033D01*
G01X5635574Y-1276978D01*
G01X5619780Y-1262580D01*
G01X5601610Y-1251329D01*
G01X5581681Y-1243609D01*
G01X5560673Y-1239682D01*
G01X5539301Y-1239682D01*
G01X5518293Y-1243609D01*
G01X5498364Y-1251329D01*
G01X5480193Y-1262580D01*
G01X5464399Y-1276978D01*
G01X5451520Y-1294033D01*
G01X5441994Y-1313165D01*
G01X5436145Y-1333721D01*
G01X5434173Y-1355002D01*
G01X5070802Y-1355002D01*
G01X5070802Y-1231304D01*
G01X5080310Y-1218476D01*
G01X5086921Y-1203941D01*
G01X5090341Y-1188345D01*
G01X5090418Y-1172377D01*
G01X5087150Y-1156748D01*
G01X5080680Y-1142150D01*
G01X5071296Y-1129230D01*
G01X5059415Y-1118563D01*
G01X5045563Y-1110620D01*
G01X5030355Y-1105755D01*
G01X5014465Y-1104183D01*
G01X4998598Y-1105974D01*
G01X4983459Y-1111049D01*
G01X4969717Y-1119182D01*
G01X3140182Y-1119182D01*
G01X3025990Y-1004990D01*
G01X5434173Y-1004990D01*
G01X5436145Y-1026270D01*
G01X5441994Y-1046826D01*
G01X5451520Y-1065958D01*
G01X5464399Y-1083013D01*
G01X5480193Y-1097411D01*
G01X5498364Y-1108662D01*
G01X5518293Y-1116382D01*
G01X5539301Y-1120309D01*
G01X5560673Y-1120309D01*
G01X5581681Y-1116382D01*
G01X5601610Y-1108662D01*
G01X5619780Y-1097411D01*
G01X5635574Y-1083013D01*
G01X5648454Y-1065958D01*
G01X5657980Y-1046826D01*
G01X5663829Y-1026270D01*
G01X5665801Y-1004990D01*
G01X5665801Y-1004990D01*
G01X5663829Y-983709D01*
G01X5657980Y-963153D01*
G01X5648454Y-944021D01*
G01X5635574Y-926966D01*
G01X5619780Y-912568D01*
G01X5601610Y-901317D01*
G01X5581681Y-893597D01*
G01X5560673Y-889670D01*
G01X5539301Y-889670D01*
G01X5518293Y-893597D01*
G01X5498364Y-901317D01*
G01X5480193Y-912568D01*
G01X5464399Y-926966D01*
G01X5451520Y-944021D01*
G01X5441994Y-963153D01*
G01X5436145Y-983709D01*
G01X5434173Y-1004990D01*
G01X3025990Y-1004990D01*
G01X2359997Y-338997D01*
G01X2350782Y-331434D01*
G01X2340268Y-325814D01*
G01X2328860Y-322354D01*
G01X2316995Y-321185D01*
G01X750999Y-321185D01*
G01X739134Y-322354D01*
G01X727726Y-325814D01*
G01X717212Y-331434D01*
G01X707997Y-338997D01*
G01X196996Y-849998D01*
G01X189433Y-859213D01*
G01X183813Y-869727D01*
G01X180352Y-881135D01*
G01X179184Y-893000D01*
G01X179184Y-1994614D01*
G01X172840Y-2008434D01*
G01X169593Y-2023291D01*
G01X169593Y-2038498D01*
G01X172840Y-2053354D01*
G01X179184Y-2067175D01*
G01X179184Y-3220445D01*
G01X166828Y-3215849D01*
G01X153807Y-3213787D01*
G01X140635Y-3214342D01*
G01X127834Y-3217491D01*
G01X115908Y-3223110D01*
G01X105330Y-3230978D01*
G01X96517Y-3240782D01*
G01X89818Y-3252137D01*
G01X85497Y-3264592D01*
G01X83725Y-3277655D01*
G01X50694Y-3310686D01*
G01X42984Y-3320734D01*
G01X38138Y-3332434D01*
G01X36485Y-3344991D01*
G01X36485Y-4609778D01*
G01X35812Y-4610511D01*
G01X35812Y-344997D01*
G01X149184Y-344997D01*
G01X149184Y-344997D01*
G01X151127Y-372153D01*
G01X156914Y-398756D01*
G01X166428Y-424264D01*
G01X179475Y-448159D01*
G01X195791Y-469954D01*
G01X215042Y-489205D01*
G01X236836Y-505520D01*
G01X260731Y-518568D01*
G01X286240Y-528082D01*
G01X312843Y-533869D01*
G01X339998Y-535811D01*
G01X367154Y-533869D01*
G01X393757Y-528082D01*
G01X419265Y-518568D01*
G01X443160Y-505520D01*
G01X464955Y-489205D01*
G01X484206Y-469954D01*
G01X500521Y-448159D01*
G01X513569Y-424264D01*
G01X523083Y-398756D01*
G01X528870Y-372153D01*
G01X530812Y-344997D01*
G01X528870Y-317842D01*
G01X523083Y-291239D01*
G01X513569Y-265730D01*
G01X500521Y-241835D01*
G01X484206Y-220041D01*
G01X466754Y-202588D01*
G01X766671Y-202588D01*
G01X768512Y-221281D01*
G01X773964Y-239255D01*
G01X782818Y-255820D01*
G01X794734Y-270339D01*
G01X809253Y-282255D01*
G01X825818Y-291109D01*
G01X843792Y-296561D01*
G01X862484Y-298402D01*
G01X881177Y-296561D01*
G01X899151Y-291109D01*
G01X915716Y-282255D01*
G01X930235Y-270339D01*
G01X942151Y-255820D01*
G01X951005Y-239255D01*
G01X956457Y-221281D01*
G01X958298Y-202588D01*
G01X958298Y-202588D01*
G01X958298Y-142588D01*
G01X1631693Y-142588D01*
G01X1631693Y-202588D01*
G01X1633534Y-221281D01*
G01X1638986Y-239255D01*
G01X1647841Y-255820D01*
G01X1659756Y-270339D01*
G01X1674275Y-282255D01*
G01X1690840Y-291109D01*
G01X1708814Y-296561D01*
G01X1727507Y-298402D01*
G01X1746199Y-296561D01*
G01X1764173Y-291109D01*
G01X1780738Y-282255D01*
G01X1795257Y-270339D01*
G01X1807173Y-255820D01*
G01X1815634Y-239991D01*
G01X2924168Y-239991D01*
G01X2926059Y-266435D01*
G01X2931695Y-292341D01*
G01X2940960Y-317181D01*
G01X2953665Y-340450D01*
G01X2969553Y-361673D01*
G01X2988300Y-380420D01*
G01X3009523Y-396308D01*
G01X3032792Y-409013D01*
G01X3057632Y-418278D01*
G01X3083538Y-423914D01*
G01X3109982Y-425805D01*
G01X3109982Y-425805D01*
G01X3136426Y-423914D01*
G01X3162332Y-418278D01*
G01X3187172Y-409013D01*
G01X3210440Y-396308D01*
G01X3231664Y-380420D01*
G01X3250410Y-361673D01*
G01X3266298Y-340450D01*
G01X3279004Y-317181D01*
G01X3288269Y-292341D01*
G01X3293904Y-266435D01*
G01X3295795Y-239999D01*
G01X4259165Y-239999D01*
G01X4261057Y-266443D01*
G01X4266692Y-292349D01*
G01X4275957Y-317189D01*
G01X4288662Y-340457D01*
G01X4304550Y-361681D01*
G01X4323297Y-380428D01*
G01X4344520Y-396315D01*
G01X4367789Y-409021D01*
G01X4392629Y-418286D01*
G01X4418535Y-423921D01*
G01X4444979Y-425813D01*
G01X4444979Y-425813D01*
G01X4471423Y-423921D01*
G01X4497329Y-418286D01*
G01X4522169Y-409021D01*
G01X4545437Y-396315D01*
G01X4566661Y-380428D01*
G01X4585408Y-361681D01*
G01X4597905Y-344987D01*
G01X5354173Y-344987D01*
G01X5356115Y-372143D01*
G01X5361902Y-398746D01*
G01X5371416Y-424254D01*
G01X5384464Y-448149D01*
G01X5400779Y-469944D01*
G01X5420030Y-489195D01*
G01X5441825Y-505510D01*
G01X5465720Y-518558D01*
G01X5491228Y-528072D01*
G01X5517831Y-533859D01*
G01X5544987Y-535801D01*
G01X5572143Y-533859D01*
G01X5598745Y-528072D01*
G01X5624254Y-518558D01*
G01X5648149Y-505510D01*
G01X5669943Y-489195D01*
G01X5689194Y-469944D01*
G01X5705510Y-448149D01*
G01X5718557Y-424254D01*
G01X5728072Y-398746D01*
G01X5733859Y-372143D01*
G01X5735801Y-344987D01*
G01X5733859Y-317831D01*
G01X5728072Y-291229D01*
G01X5718557Y-265720D01*
G01X5705510Y-241825D01*
G01X5704143Y-239999D01*
G01X6454161Y-239999D01*
G01X6456052Y-266443D01*
G01X6461688Y-292349D01*
G01X6470953Y-317189D01*
G01X6483658Y-340457D01*
G01X6499546Y-361681D01*
G01X6518293Y-380428D01*
G01X6539516Y-396315D01*
G01X6562785Y-409021D01*
G01X6587625Y-418286D01*
G01X6613531Y-423921D01*
G01X6639975Y-425813D01*
G01X6639975Y-425813D01*
G01X6666419Y-423921D01*
G01X6692325Y-418286D01*
G01X6717165Y-409021D01*
G01X6740433Y-396315D01*
G01X6761657Y-380428D01*
G01X6780403Y-361681D01*
G01X6796291Y-340457D01*
G01X6808997Y-317189D01*
G01X6818262Y-292349D01*
G01X6823897Y-266443D01*
G01X6825788Y-239999D01*
G01X6825430Y-234991D01*
G01X7764158Y-234991D01*
G01X7766050Y-261435D01*
G01X7771685Y-287341D01*
G01X7780950Y-312181D01*
G01X7793656Y-335450D01*
G01X7809544Y-356673D01*
G01X7828290Y-375420D01*
G01X7849514Y-391308D01*
G01X7872782Y-404013D01*
G01X7897622Y-413278D01*
G01X7923528Y-418914D01*
G01X7949972Y-420805D01*
G01X7949972Y-420805D01*
G01X7976416Y-418914D01*
G01X8002322Y-413278D01*
G01X8027162Y-404013D01*
G01X8050431Y-391308D01*
G01X8071654Y-375420D01*
G01X8090401Y-356673D01*
G01X8106289Y-335450D01*
G01X8118994Y-312181D01*
G01X8128259Y-287341D01*
G01X8133895Y-261435D01*
G01X8135786Y-234991D01*
G01X8133895Y-208547D01*
G01X8128259Y-182642D01*
G01X8118994Y-157802D01*
G01X8106289Y-134533D01*
G01X8090401Y-113309D01*
G01X8071654Y-94563D01*
G01X8050431Y-78675D01*
G01X8027162Y-65969D01*
G01X8002322Y-56704D01*
G01X7976416Y-51069D01*
G01X7949972Y-49178D01*
G01X7923528Y-51069D01*
G01X7897622Y-56704D01*
G01X7872782Y-65969D01*
G01X7849514Y-78675D01*
G01X7828290Y-94563D01*
G01X7809544Y-113309D01*
G01X7793656Y-134533D01*
G01X7780950Y-157802D01*
G01X7771685Y-182642D01*
G01X7766050Y-208547D01*
G01X7764158Y-234991D01*
G01X6825430Y-234991D01*
G01X6823897Y-213555D01*
G01X6818262Y-187649D01*
G01X6808997Y-162809D01*
G01X6796291Y-139541D01*
G01X6780403Y-118317D01*
G01X6761657Y-99570D01*
G01X6740433Y-83683D01*
G01X6717165Y-70977D01*
G01X6692325Y-61712D01*
G01X6666419Y-56077D01*
G01X6639975Y-54185D01*
G01X6613531Y-56077D01*
G01X6587625Y-61712D01*
G01X6562785Y-70977D01*
G01X6539516Y-83683D01*
G01X6518293Y-99570D01*
G01X6499546Y-118317D01*
G01X6483658Y-139541D01*
G01X6470953Y-162809D01*
G01X6461688Y-187649D01*
G01X6456052Y-213555D01*
G01X6454161Y-239999D01*
G01X5704143Y-239999D01*
G01X5689194Y-220031D01*
G01X5669943Y-200780D01*
G01X5648149Y-184464D01*
G01X5624254Y-171417D01*
G01X5598745Y-161902D01*
G01X5572143Y-156115D01*
G01X5544987Y-154173D01*
G01X5517831Y-156115D01*
G01X5491228Y-161902D01*
G01X5465720Y-171417D01*
G01X5441825Y-184464D01*
G01X5420030Y-200780D01*
G01X5400779Y-220031D01*
G01X5384464Y-241825D01*
G01X5371416Y-265720D01*
G01X5361902Y-291229D01*
G01X5356115Y-317831D01*
G01X5354173Y-344987D01*
G01X5354173Y-344987D01*
G01X4597905Y-344987D01*
G01X4601295Y-340457D01*
G01X4614001Y-317189D01*
G01X4623266Y-292349D01*
G01X4628901Y-266443D01*
G01X4630793Y-239999D01*
G01X4628901Y-213555D01*
G01X4623266Y-187649D01*
G01X4614001Y-162809D01*
G01X4601295Y-139541D01*
G01X4585408Y-118317D01*
G01X4566661Y-99570D01*
G01X4545437Y-83683D01*
G01X4522169Y-70977D01*
G01X4497329Y-61712D01*
G01X4471423Y-56077D01*
G01X4444979Y-54185D01*
G01X4418535Y-56077D01*
G01X4392629Y-61712D01*
G01X4367789Y-70977D01*
G01X4344520Y-83683D01*
G01X4323297Y-99570D01*
G01X4304550Y-118317D01*
G01X4288662Y-139541D01*
G01X4275957Y-162809D01*
G01X4266692Y-187649D01*
G01X4261057Y-213555D01*
G01X4259165Y-239999D01*
G01X3295795Y-239999D01*
G01X3295796Y-239991D01*
G01X3293904Y-213547D01*
G01X3288269Y-187642D01*
G01X3279004Y-162802D01*
G01X3266298Y-139533D01*
G01X3250410Y-118309D01*
G01X3231664Y-99563D01*
G01X3210440Y-83675D01*
G01X3187172Y-70969D01*
G01X3162332Y-61704D01*
G01X3136426Y-56069D01*
G01X3109982Y-54178D01*
G01X3083538Y-56069D01*
G01X3057632Y-61704D01*
G01X3032792Y-70969D01*
G01X3009523Y-83675D01*
G01X2988300Y-99563D01*
G01X2969553Y-118309D01*
G01X2953665Y-139533D01*
G01X2940960Y-162802D01*
G01X2931695Y-187642D01*
G01X2926059Y-213547D01*
G01X2924168Y-239991D01*
G01X1815634Y-239991D01*
G01X1816027Y-239255D01*
G01X1821480Y-221281D01*
G01X1823321Y-202588D01*
G01X1823321Y-202588D01*
G01X1823321Y-142588D01*
G01X1821480Y-123896D01*
G01X1816027Y-105922D01*
G01X1807173Y-89357D01*
G01X1795257Y-74838D01*
G01X1780738Y-62922D01*
G01X1764173Y-54068D01*
G01X1746199Y-48616D01*
G01X1727507Y-46775D01*
G01X1708814Y-48616D01*
G01X1690840Y-54068D01*
G01X1674275Y-62922D01*
G01X1659756Y-74838D01*
G01X1647841Y-89357D01*
G01X1638986Y-105922D01*
G01X1633534Y-123896D01*
G01X1631693Y-142588D01*
G01X958298Y-142588D01*
G01X958298Y-142588D01*
G01X956457Y-123896D01*
G01X951005Y-105922D01*
G01X942151Y-89357D01*
G01X930235Y-74838D01*
G01X915716Y-62922D01*
G01X899151Y-54068D01*
G01X881177Y-48616D01*
G01X862484Y-46775D01*
G01X843792Y-48616D01*
G01X825818Y-54068D01*
G01X809253Y-62922D01*
G01X794734Y-74838D01*
G01X782818Y-89357D01*
G01X773964Y-105922D01*
G01X768512Y-123896D01*
G01X766671Y-142588D01*
G01X766671Y-202588D01*
G01X466754Y-202588D01*
G01X464955Y-200790D01*
G01X443160Y-184474D01*
G01X419265Y-171427D01*
G01X393757Y-161913D01*
G01X367154Y-156126D01*
G01X339998Y-154183D01*
G01X312843Y-156126D01*
G01X286240Y-161913D01*
G01X260731Y-171427D01*
G01X236836Y-184474D01*
G01X215042Y-200790D01*
G01X195791Y-220041D01*
G01X179475Y-241835D01*
G01X166428Y-265730D01*
G01X156914Y-291239D01*
G01X151127Y-317842D01*
G01X149184Y-344997D01*
G01X35812Y-344997D01*
G01X35812Y-35801D01*
G01X8464184Y-35801D01*
G01X8464184Y-5464173D01*
G01X35812Y-5464173D01*
G37*
G36*
G01X485813Y-3881584D02*
G01X500161Y-3885357D01*
G01X514988Y-3885845D01*
G01X529553Y-3883026D01*
G01X543126Y-3877039D01*
G01X555029Y-3868184D01*
G01X564666Y-3856905D01*
G01X571554Y-3843765D01*
G01X575349Y-3829424D01*
G01X575860Y-3814597D01*
G01X573063Y-3800028D01*
G01X567096Y-3786445D01*
G01X558260Y-3774529D01*
G01X558260Y-3305338D01*
G01X592654Y-3270944D01*
G01X597487Y-3283725D01*
G01X605692Y-3294651D01*
G01X620337Y-3309296D01*
G01X629999Y-3316781D01*
G01X605692Y-3341087D01*
G01X597983Y-3351134D01*
G01X593136Y-3362835D01*
G01X591483Y-3375391D01*
G01X591483Y-3402031D01*
G01X593136Y-3414587D01*
G01X597983Y-3426288D01*
G01X605692Y-3436335D01*
G01X618666Y-3449309D01*
G01X609049Y-3454001D01*
G01X600694Y-3460686D01*
G01X582734Y-3478647D01*
G01X575024Y-3488695D01*
G01X570177Y-3500395D01*
G01X568524Y-3512952D01*
G01X568524Y-3722032D01*
G01X570177Y-3734588D01*
G01X575024Y-3746289D01*
G01X582734Y-3756337D01*
G01X766484Y-3940087D01*
G01X766484Y-4019782D01*
G01X757533Y-4031897D01*
G01X751546Y-4045720D01*
G01X748834Y-4060538D01*
G01X749536Y-4075585D01*
G01X753616Y-4090086D01*
G01X760863Y-4103292D01*
G01X770904Y-4114522D01*
G01X783219Y-4123195D01*
G01X797175Y-4128866D01*
G01X812051Y-4131240D01*
G01X827078Y-4130196D01*
G01X841482Y-4125788D01*
G01X841482Y-4504298D01*
G01X832206Y-4499611D01*
G01X822344Y-4496333D01*
G01X485813Y-4159802D01*
G01X485813Y-3881584D01*
G37*
G36*
G01X752262Y-3366335D02*
G01X759972Y-3356288D01*
G01X764818Y-3344587D01*
G01X766471Y-3332031D01*
G01X766471Y-3294991D01*
G01X764818Y-3282435D01*
G01X759972Y-3270734D01*
G01X752262Y-3260687D01*
G01X732262Y-3240687D01*
G01X723361Y-3233660D01*
G01X713071Y-3228892D01*
G01X701955Y-3226642D01*
G01X801092Y-3127506D01*
G01X804786Y-3127506D01*
G01X816138Y-3136011D01*
G01X829039Y-3141907D01*
G01X825537Y-3155750D01*
G01X825080Y-3170022D01*
G01X827688Y-3184061D01*
G01X833242Y-3197216D01*
G01X841482Y-3208877D01*
G01X841482Y-3877867D01*
G01X665552Y-3701937D01*
G01X665552Y-3543505D01*
G01X699997Y-3543505D01*
G01X712553Y-3541852D01*
G01X724254Y-3537005D01*
G01X734301Y-3529296D01*
G01X752262Y-3511335D01*
G01X759972Y-3501287D01*
G01X764818Y-3489587D01*
G01X766471Y-3477030D01*
G01X766471Y-3442952D01*
G01X764818Y-3430395D01*
G01X759972Y-3418695D01*
G01X752262Y-3408647D01*
G01X730957Y-3387342D01*
G01X734301Y-3384296D01*
G01X752262Y-3366335D01*
G37*
G54D10*
G01X35812Y-5464173D02*
G01X35812Y-4699465D01*
G03X129844Y-4703840I49187J44477D01*
G03X133513Y-4609778I-44845J48852D01*
G01X133513Y-3365086D01*
G01X152334Y-3346264D01*
G03X198844Y-3324842I-2336J66273D01*
G01X364185Y-3490183D01*
G01X364185Y-4184992D01*
G03X381997Y-4227994I60814J0D01*
G01X736341Y-4582337D01*
G03X841482Y-4625680I68656J17348D01*
G01X841482Y-4659779D01*
G03X889996Y-4771303I48514J-45210D01*
G03X938510Y-4659779I0J66314D01*
G01X938510Y-3211469D01*
G03X912161Y-3102083I-47307J46471D01*
G03X850914Y-3012684I-62164J23091D01*
G01X1016482Y-2847116D01*
G01X1016482Y-2849993D01*
G03X1030692Y-2884297I48514J0D01*
G01X1355693Y-3209298D01*
G03X1389997Y-3223508I34305J34305D01*
G01X1508352Y-3223508D01*
G03X1619876Y-3174994I45210J48514D01*
G03X1508352Y-3126480I-66314J0D01*
G01X1410092Y-3126480D01*
G01X1113510Y-2829897D01*
G01X1113510Y-2434993D01*
G03X1099301Y-2400688I-48514J0D01*
G01X1068510Y-2369898D01*
G01X1068510Y-1090091D01*
G01X1152972Y-1005630D01*
G03X1167181Y-971325I-34305J34305D01*
G01X1167181Y-907597D01*
G03X1165558Y-815496I-48514J45210D01*
G03X1073457Y-813873I-46891J-46891D01*
G01X864565Y-813873D01*
G03X751615Y-858932I-46667J-47114D01*
G03X861557Y-910901I66282J-2055D01*
G01X1070153Y-910901D01*
G01X1070153Y-951230D01*
G01X985692Y-1035692D01*
G03X971482Y-1069996I34305J-34305D01*
G01X971482Y-2389993D01*
G03X973600Y-2404173I48514J0D01*
G03X949082Y-2511203I23995J-61820D01*
G01X949082Y-2777298D01*
G01X475441Y-3250939D01*
G03X461232Y-3285243I34305J-34305D01*
G01X461232Y-3415221D01*
G01X300812Y-3254801D01*
G01X300812Y-2067175D01*
G03X300812Y-1994614I-60814J36281D01*
G01X300812Y-918190D01*
G01X776189Y-442813D01*
G01X2291805Y-442813D01*
G01X3071990Y-1222998D01*
G03X3114992Y-1240810I43002J43002D01*
G01X4959174Y-1240810D01*
G01X4959174Y-2421874D01*
G01X4777524Y-2603524D01*
G03X4761176Y-2642991I39466J-39466D01*
G01X4761176Y-2773707D01*
G03X4777524Y-2813174I55814J0D01*
G01X4826844Y-2862494D01*
G03X4938523Y-2895240I64788J14145D01*
G03X4905777Y-2783561I-46891J46891D01*
G01X4898171Y-2775956D01*
G03X4947597Y-2760807I6817J65963D01*
G01X5088940Y-2760807D01*
G01X5147206Y-2819073D01*
G03X5073991Y-2878482I-7221J-65920D01*
G03X5134186Y-2951052I65994J-6510D01*
G01X5179174Y-2996040D01*
G01X5179174Y-3364267D01*
G03X5105768Y-3387449I-21186J-60725D01*
G03X5107174Y-3464415I52220J-37542D01*
G01X5107174Y-3540943D01*
G01X5034057Y-3614060D01*
G03X5019174Y-3649991I35931J-35931D01*
G01X5019174Y-3837220D01*
G03X5069988Y-3938304I50814J-37771D01*
G03X5120802Y-3837220I0J63314D01*
G01X5120802Y-3671039D01*
G01X5179174Y-3612667D01*
G01X5179174Y-3614991D01*
G03X5193928Y-3650792I50814J0D01*
G03X5244690Y-3709516I66060J5802D01*
G03X5316411Y-3679832I15298J64525D01*
G03X5408960Y-3637458I28576J59841D01*
G03X5350788Y-3553931I-63972J17467D01*
G01X5340801Y-3543944D01*
G01X5340801Y-2889992D01*
G03X5325918Y-2854062I-50814J0D01*
G01X5145919Y-2674062D01*
G03X5109988Y-2659179I-35931J-35931D01*
G01X4947597Y-2659179D01*
G03X4894382Y-2644532I-42609J-50814D01*
G01X5054454Y-2484460D01*
G03X5070802Y-2444993I-39466J39466D01*
G01X5070802Y-1231304D01*
G03X5071296Y-1129230I-55814J51308D01*
G03X4969717Y-1119182I-56308J-50765D01*
G01X3140182Y-1119182D01*
G01X2359997Y-338997D01*
G03X2316995Y-321185I-43002J-43002D01*
G01X750999Y-321185D01*
G03X707997Y-338997I0J-60814D01*
G01X196996Y-849998D01*
G03X179184Y-893000I43002J-43002D01*
G01X179184Y-1994614D01*
G03X179184Y-2067175I60814J-36281D01*
G01X179184Y-3220445D01*
G03X115908Y-3223110I-29186J-59546D01*
G03X83725Y-3277655I34090J-56881D01*
G01X50694Y-3310686D01*
G03X36485Y-3344991I34305J-34305D01*
G01X36485Y-4609778D01*
G01X35812Y-4610511D01*
G01X35812Y-35801D01*
G01X8464184Y-35801D01*
G01X8464184Y-5464173D01*
G01X35812Y-5464173D01*
G01X149184Y-344997D02*
G03X530812Y-344997I190814J0D01*
G03X149184Y-344997I-190814J0D01*
G01X786483Y-2154784D02*
G03X834997Y-2266308I48514J-45210D01*
G03X883511Y-2154784I0J66314D01*
G01X883511Y-1994994D01*
G03X869301Y-1960690I-48514J0D01*
G01X501270Y-1592659D01*
G03X388106Y-1548104I-66273J-2336D01*
G03X432661Y-1661268I46891J-46891D01*
G01X786483Y-2015089D01*
G01X786483Y-2154784D01*
G01X958298Y-202588D02*
G01X958298Y-142588D01*
G03X766671Y-142588I-95814J0D01*
G01X766671Y-202588D01*
G03X958298Y-202588I95814J0D01*
G01X766671Y-550571D02*
G01X766671Y-630571D01*
G03X958298Y-630571I95814J0D01*
G01X958298Y-597070D01*
G03X1077524Y-529793I46706J56512D01*
G03X943897Y-500050I-72520J-10765D01*
G03X766671Y-550571I-81412J-50521D01*
G01X1184182Y-5129988D02*
G03X1565809Y-5129988I190814J0D01*
G03X1184182Y-5129988I-190814J0D01*
G01X1469995Y-4301304D02*
G03X1518509Y-4189779I0J66314D01*
G01X1518509Y-3755201D01*
G03X1469995Y-3643676I-48514J45210D01*
G03X1421481Y-3755201I0J-66314D01*
G01X1421481Y-4189779D01*
G03X1469995Y-4301304I48514J-45210D01*
G01X1631693Y-630571D02*
G03X1823321Y-630571I95814J0D01*
G01X1823321Y-550571D01*
G03X1646095Y-500050I-95814J0D01*
G03X1512467Y-529793I-61107J-40508D01*
G03X1631693Y-597070I72520J-10765D01*
G01X1631693Y-630571D01*
G01X1677659Y-3013721D02*
G03X1633107Y-3126886I2338J-66273D01*
G03X1746270Y-3082328I46890J46892D01*
G01X1888301Y-2940297D01*
G03X1902510Y-2905992I-34305J34305D01*
G01X1902510Y-2514687D01*
G03X1999856Y-2517307I49884J43693D01*
G01X2416809Y-2517307D01*
G01X3866715Y-3967213D01*
G03X3974760Y-4009760I63275J2223D01*
G03X3932213Y-3901715I-44770J44770D01*
G01X2468742Y-2438244D01*
G03X2435993Y-2424679I-32749J-32749D01*
G01X2274356Y-2424679D01*
G03X2274810Y-2418995I-35360J5684D01*
G01X2274810Y-2278995D01*
G03X2238996Y-2243181I-35814J0D01*
G01X2217220Y-2243181D01*
G03X2203588Y-2048996I-48225J94186D01*
G03X2203588Y-1848996I-34592J100000D01*
G03X2203588Y-1648997I-34592J100000D01*
G03X2203588Y-1448997I-34592J100000D01*
G03X2203588Y-1248998I-34592J100000D01*
G03X2248980Y-1079722I-34592J100000D01*
G03X2074959Y-1100484I-79984J-69275D01*
G01X1818996Y-1100484D01*
G03X1784692Y-1114693I0J-48514D01*
G01X1663692Y-1235693D01*
G03X1649483Y-1269997I34305J-34305D01*
G01X1649483Y-2468785D01*
G03X1697997Y-2580309I48514J-45210D01*
G03X1746511Y-2468785I0J66314D01*
G01X1746511Y-1290093D01*
G01X1839092Y-1197512D01*
G01X2074959Y-1197512D01*
G03X2134404Y-1248998I94037J48514D01*
G03X2134404Y-1448997I34592J-100000D01*
G03X2134404Y-1648997I34592J-100000D01*
G03X2134404Y-1848996I34592J-100000D01*
G03X2134404Y-2048996I34592J-100000D01*
G03X2120771Y-2243181I34592J-100000D01*
G01X2098996Y-2243181D01*
G03X2063182Y-2278995I0J-35814D01*
G01X2063182Y-2418995D01*
G03X2063636Y-2424679I35814J0D01*
G01X1999856Y-2424679D01*
G03X1902510Y-2427300I-47461J-46314D01*
G01X1902510Y-1328207D01*
G03X1853996Y-1216683I-48514J45210D01*
G03X1805482Y-1328207I0J-66314D01*
G01X1805482Y-2885897D01*
G01X1677659Y-3013721D01*
G01X1823321Y-202588D02*
G01X1823321Y-142588D01*
G03X1631693Y-142588I-95814J0D01*
G01X1631693Y-202588D01*
G03X1823321Y-202588I95814J0D01*
G01X2437602Y-4779174D02*
G03X2400795Y-4763929I-42609J-50814D01*
G01X2213810Y-4576943D01*
G01X2213810Y-4453991D01*
G03X2198927Y-4418060I-50814J0D01*
G01X1935054Y-4154188D01*
G03X1822103Y-4113099I-66060J-5802D01*
G03X1863192Y-4226049I46891J-46891D01*
G01X2112182Y-4475039D01*
G01X2112182Y-4597991D01*
G03X2127065Y-4633921I50814J0D01*
G01X2328934Y-4835790D01*
G03X2437602Y-4880802I66060J5802D01*
G01X3966655Y-4880802D01*
G01X3966655Y-5052379D01*
G03X4017468Y-5161302I50814J-42609D01*
G03X4068282Y-5052379I0J66314D01*
G01X4068282Y-4880802D01*
G01X4169990Y-4880802D01*
G03X4205921Y-4865919I0J50814D01*
G01X4419920Y-4651920D01*
G03X4434803Y-4615989I-35931J35931D01*
G01X4434803Y-4328598D01*
G03X4383989Y-4219675I-50814J42609D01*
G03X4333175Y-4328598I0J-66314D01*
G01X4333175Y-4594941D01*
G01X4148942Y-4779174D01*
G01X2437602Y-4779174D01*
G01X2606481Y-2855089D02*
G01X2606481Y-3397783D01*
G03X2654995Y-3509307I48514J-45210D01*
G03X2703509Y-3397783I0J66314D01*
G01X2703509Y-2834994D01*
G03X2689299Y-2800690I-48514J0D01*
G01X2472300Y-2583690D01*
G03X2437995Y-2569481I-34305J-34305D01*
G01X2213204Y-2569481D01*
G03X2101680Y-2617995I-45210J-48514D01*
G03X2213204Y-2666509I66314J0D01*
G01X2417900Y-2666509D01*
G01X2606481Y-2855089D01*
G01X2545602Y-4549380D02*
G03X2658553Y-4508291I46891J46891D01*
G01X2681041Y-4485803D01*
G01X3102221Y-4485803D01*
G03X3203306Y-4434989I37771J50814D01*
G03X3102221Y-4384175I-63314J0D01*
G01X2659993Y-4384175D01*
G03X2624062Y-4399058I0J-50814D01*
G01X2586691Y-4436429D01*
G03X2545602Y-4549380I5802J-66060D01*
G01X2924549Y-4305284D02*
G03X2970506Y-4200143I-1557J63295D01*
G01X2970506Y-4135672D01*
G03X2921992Y-4031676I-48514J40682D01*
G03X2873478Y-4135672I0J-63314D01*
G01X2873478Y-4202530D01*
G03X2924549Y-4305284I49514J-39459D01*
G01X3109982Y-425805D02*
G03X3109982Y-54178I0J185814D01*
G03X3109982Y-425805I0J-185814D01*
G01X3109982Y-1995830D02*
G03X3109982Y-1624202I0J185814D01*
G03X3109982Y-1995830I0J-185814D01*
G01X4444979Y-425813D02*
G03X4444979Y-54185I0J185814D01*
G03X4444979Y-425813I0J-185814D01*
G01X4444979Y-1995822D02*
G03X4444979Y-1624195I0J185814D01*
G03X4444979Y-1995822I0J-185814D01*
G01X5782311Y-4124176D02*
G01X5274539Y-4124176D01*
G03X5163213Y-4107642I-59926J-20435D01*
G03X5214304Y-4207924I51400J-36969D01*
G03X5239992Y-4215804I25688J37935D01*
G01X5855586Y-4215804D01*
G03X5945380Y-4261249I64401J15814D01*
G03X5976689Y-4165604I-25393J61260D01*
G01X6377177Y-4165604D01*
G03X6486100Y-4114790I42609J50814D01*
G03X6377177Y-4063976I-66314J0D01*
G01X5865834Y-4063976D01*
G01X5841998Y-4040140D01*
G01X5841998Y-3582601D01*
G03X5791187Y-3473677I-50813J42610D01*
G03X5740370Y-3582598I-2J-66314D01*
G01X5740370Y-4061188D01*
G03X5755253Y-4097119I50814J0D01*
G01X5782311Y-4124176D01*
G01X5354173Y-344987D02*
G03X5735801Y-344987I190814J0D01*
G03X5354173Y-344987I-190814J0D01*
G01X5665801Y-1355002D02*
G03X5434173Y-1355002I-115814J0D01*
G03X5665801Y-1355002I115814J0D01*
G01X5665801Y-1004990D02*
G03X5434173Y-1004990I-115814J0D01*
G03X5665801Y-1004990I115814J0D01*
G01X5670801Y-2179988D02*
G03X5439173Y-2179988I-115814J0D01*
G03X5670801Y-2179988I115814J0D01*
G01X5670801Y-2530000D02*
G03X5439173Y-2530000I-115814J0D01*
G03X5670801Y-2530000I115814J0D01*
G01X5658704Y-4638483D02*
G03X5771892Y-4686880I66297J-1506D01*
G03X5723494Y-4573692I-46891J46891D01*
G01X5616009Y-4466206D01*
G03X5506680Y-4409769I-66022J6217D01*
G03X5546429Y-4526208I43307J-50220D01*
G01X5658704Y-4638483D01*
G01X5820520Y-3274458D02*
G03X5859986Y-3290805I39466J39466D01*
G01X5994176Y-3290805D01*
G03X6096300Y-3234991I35810J55814D01*
G03X5994176Y-3179178I-66314J0D01*
G01X5883105Y-3179178D01*
G01X5735801Y-3031873D01*
G01X5735801Y-2960802D01*
G03X5679987Y-2858678I-55814J35810D01*
G03X5624173Y-2960802I0J-66314D01*
G01X5624173Y-3054992D01*
G03X5640520Y-3094459I55814J0D01*
G01X5820520Y-3274458D01*
G01X5990172Y-3837220D02*
G03X6040986Y-3938304I50814J-37771D01*
G03X6091800Y-3837220I0J63314D01*
G01X6091800Y-3620991D01*
G03X6086268Y-3597935I-50814J0D01*
G03X5984326Y-3544081I-66282J-2056D01*
G03X5990172Y-3659225I35660J-55910D01*
G01X5990172Y-3837220D01*
G01X6639975Y-425813D02*
G03X6639975Y-54185I0J185814D01*
G03X6639975Y-425813I0J-185814D01*
G01X6639975Y-1995822D02*
G03X6639975Y-1624195I0J185814D01*
G03X6639975Y-1995822I0J-185814D01*
G01X7949972Y-420805D02*
G03X7949972Y-49178I0J185814D01*
G03X7949972Y-420805I0J-185814D01*
G01X7949972Y-1990830D02*
G03X7949972Y-1619203I0J185814D01*
G03X7949972Y-1990830I0J-185814D01*
G01X7959168Y-5129987D02*
G03X8340796Y-5129987I190814J0D01*
G03X7959168Y-5129987I-190814J0D01*
G01X485813Y-3881584D02*
G03X564666Y-3856905I23933J61845D01*
G03X558260Y-3774529I-54920J37166D01*
G01X558260Y-3305338D01*
G01X592654Y-3270944D01*
G03X605692Y-3294651I47343J10597D01*
G01X620337Y-3309296D01*
G03X629999Y-3316781I34305J34305D01*
G01X605692Y-3341087D01*
G03X591483Y-3375391I34305J-34305D01*
G01X591483Y-3402031D01*
G03X605692Y-3436335I48514J0D01*
G01X618666Y-3449309D01*
G03X600694Y-3460686I16333J-45682D01*
G01X582734Y-3478647D01*
G03X568524Y-3512952I34305J-34305D01*
G01X568524Y-3722032D01*
G03X582734Y-3756337I48514J0D01*
G01X766484Y-3940087D01*
G01X766484Y-4019782D01*
G03X760863Y-4103292I48514J-45210D01*
G03X841482Y-4125788I54135J38300D01*
G01X841482Y-4504298D01*
G03X822344Y-4496333I-36486J-60691D01*
G01X485813Y-4159802D01*
G01X485813Y-3881584D01*
G01X752262Y-3366335D02*
G03X766471Y-3332031I-34305J34305D01*
G01X766471Y-3294991D01*
G03X752262Y-3260687I-48514J0D01*
G01X732262Y-3240687D01*
G03X701955Y-3226642I-34305J-34305D01*
G01X801092Y-3127506D01*
G01X804786Y-3127506D01*
G03X829039Y-3141907I45210J48514D01*
G03X841482Y-3208877I62164J-23091D01*
G01X841482Y-3877867D01*
G01X665552Y-3701937D01*
G01X665552Y-3543505D01*
G01X699997Y-3543505D01*
G03X734301Y-3529296I0J48514D01*
G01X752262Y-3511335D01*
G03X766471Y-3477030I-34305J34305D01*
G01X766471Y-3442952D01*
G03X752262Y-3408647I-48514J0D01*
G01X730957Y-3387342D01*
G03X734301Y-3384296I-30960J37351D01*
G01X752262Y-3366335D01*
G54D11*
G01X1787253Y-590571D02*
G01X1813161Y-590571D01*
G01X1727507Y-690317D02*
G01X1727507Y-716225D01*
G01X1727507Y-490825D02*
G01X1727507Y-464917D01*
G01X802739Y-590571D02*
G01X776831Y-590571D01*
G01X862484Y-690317D02*
G01X862484Y-716225D01*
G01X862484Y-490825D02*
G01X862484Y-464917D01*
G01X1787253Y-172588D02*
G01X1813161Y-172588D01*
G01X1667761Y-172588D02*
G01X1641853Y-172588D01*
G01X1727507Y-262334D02*
G01X1727507Y-288242D01*
G01X1727507Y-82843D02*
G01X1727507Y-56935D01*
G01X922230Y-172588D02*
G01X948138Y-172588D01*
G01X802739Y-172588D02*
G01X776831Y-172588D01*
G01X862484Y-262334D02*
G01X862484Y-288242D01*
G01X862484Y-82843D02*
G01X862484Y-56935D01*
G01X2238742Y-2148996D02*
G01X2264650Y-2148996D01*
G01X2099250Y-2148996D02*
G01X2073342Y-2148996D01*
G01X5629733Y-1004990D02*
G01X5655641Y-1004990D01*
G01X5470241Y-1004990D02*
G01X5444333Y-1004990D01*
G01X5549987Y-1084735D02*
G01X5549987Y-1110643D01*
G01X5549987Y-925244D02*
G01X5549987Y-899336D01*
G01X5634733Y-2179988D02*
G01X5660641Y-2179988D01*
G01X5475241Y-2179988D02*
G01X5449333Y-2179988D01*
G01X5554987Y-2259733D02*
G01X5554987Y-2285641D01*
G01X5554987Y-2100242D02*
G01X5554987Y-2074334D01*
G04 Copper End*

G04 Pad Start*
G54D12*
G01X4444979Y-239999D03*
G01X4444979Y-1810009D03*
G01X6639975Y-239999D03*
G01X6639975Y-1810009D03*
G01X3109982Y-239991D03*
G01X3109982Y-1810016D03*
G01X7949972Y-234991D03*
G01X7949972Y-1805016D03*
G54D13*
G01X862484Y-172588D03*
G54D14*
G01X862484Y-590571D03*
G01X1727507Y-590571D03*
G54D13*
G01X1727507Y-172588D03*
G54D16*
G01X5554987Y-2179988D03*
G01X5554987Y-2530000D03*
G01X5549987Y-1004990D03*
G01X5549987Y-1355002D03*
G54D17*
G01X2168996Y-2348995D03*
G54D18*
G01X2168996Y-2148996D03*
G01X2168996Y-1948996D03*
G01X2168996Y-1748997D03*
G01X2168996Y-1548997D03*
G01X2168996Y-1348997D03*
G01X2168996Y-1148998D03*
G04 Pad End*

G04 Via Start*
G54D19*
G01X438298Y-2392885D03*
G01X1138097Y-1080387D03*
G01X1553697Y-1078087D03*
G01X1118667Y-862387D03*
G01X817897Y-860987D03*
G01X383296Y-3089992D03*
G01X1214996Y-864996D03*
G54D20*
G01X1346151Y-966273D03*
G54D19*
G01X489997Y-1309995D03*
G01X749003Y-1654995D03*
G01X434997Y-1594995D03*
G01X834997Y-2199994D03*
G01X837997Y-2298994D03*
G01X834997Y-1884994D03*
G01X699997Y-1324995D03*
G01X509746Y-3819739D03*
G01X997596Y-2465993D03*
G01X849997Y-3078992D03*
G01X891203Y-3164998D03*
G01X149998Y-3279991D03*
G01X84999Y-4654988D03*
G54D20*
G01X1624757Y-2180756D03*
G54D19*
G01X1239996Y-1194996D03*
G01X1103996Y-2353994D03*
G01X1611995Y-1970994D03*
G01X1049996Y-3504991D03*
G01X839997Y-2864992D03*
G01X1469995Y-4234989D03*
G01X1469995Y-3709991D03*
G01X1259996Y-4084990D03*
G01X794996Y-3694991D03*
G01X314998Y-3469991D03*
G54D21*
G01X239998Y-2030894D03*
G01X804997Y-4564989D03*
G54D19*
G01X429997Y-3344991D03*
G01X324998Y-3174992D03*
G01X154998Y-3174992D03*
G01X1625995Y-4235989D03*
G01X619997Y-4844988D03*
G54D20*
G01X2921992Y-4094990D03*
G01X2922992Y-4241989D03*
G54D19*
G01X2549993Y-4101806D03*
G01X2549993Y-4253663D03*
G01X2495993Y-3712991D03*
G01X1868994Y-4159990D03*
G01X2394993Y-4829988D03*
G54D20*
G01X3139992Y-4434989D03*
G54D19*
G01X2592493Y-4502489D03*
G01X2509993Y-4744988D03*
G01X2509993Y-4913576D03*
G01X4383989Y-4285989D03*
G01X1952395Y-2470993D03*
G01X2014994Y-2602993D03*
G01X3749990Y-2217480D03*
G01X1774995Y-2027994D03*
G01X1772995Y-2234994D03*
G54D20*
G01X1775634Y-2432632D03*
G54D19*
G01X1946994Y-2059994D03*
G01X1947994Y-1857995D03*
G01X4017468Y-5094988D03*
G01X3189992Y-4754988D03*
G01X4194990Y-5024988D03*
G01X3704991Y-4494989D03*
G01X3492178Y-4494989D03*
G01X3492178Y-4172089D03*
G01X3704991Y-4169990D03*
G01X3349991Y-3904990D03*
G01X5284987Y-4944988D03*
G01X4774988Y-5111287D03*
G01X5429987Y-4944988D03*
G01X5428987Y-4572989D03*
G01X5172248Y-4500250D03*
G01X4934988Y-5434987D03*
G54D20*
G01X6040986Y-3874990D03*
G54D19*
G01X5724987Y-4304989D03*
G01X5414987Y-4095002D03*
G01X5414987Y-3814990D03*
G01X5694989Y-4095002D03*
G01X5694989Y-3814396D03*
G01X5554988Y-3955003D03*
G01X5554988Y-4094350D03*
G01X5554988Y-3815323D03*
G01X5414987Y-3955003D03*
G01X5694989Y-3955003D03*
G01X5549987Y-4459989D03*
G01X5725001Y-4639989D03*
G54D20*
G01X3929990Y-3964990D03*
G01X5214613Y-4144611D03*
G54D19*
G01X5919986Y-4199990D03*
G54D22*
G01X5014988Y-1179996D03*
G54D19*
G01X3193282Y-2459993D03*
G01X4359989Y-2459993D03*
G01X6739070Y-2459993D03*
G01X7861210Y-2459989D03*
G01X4817988Y-4077990D03*
G54D20*
G01X5069988Y-3874990D03*
G54D23*
G01X5157988Y-3424991D03*
G54D19*
G01X5679987Y-2924992D03*
G01X6029986Y-3234991D03*
G01X6019986Y-3599991D03*
G01X5909986Y-3599991D03*
G01X5259988Y-3644991D03*
G01X5344988Y-3619991D03*
G01X4904988Y-2709993D03*
G01X4891632Y-2848349D03*
G01X5139985Y-2884992D03*
G01X610785Y-2759992D03*
G01X5714984Y-3604991D03*
G01X1264996Y-3724991D03*
G01X1689995Y-4069990D03*
G01X889996Y-4704989D03*
G01X7274984Y-2219994D03*
G01X7559983Y-3804990D03*
G01X6024986Y-4189990D03*
G01X7709983Y-3899990D03*
G01X3489991Y-3809990D03*
G01X4069990Y-3804990D03*
G01X4594989Y-3689991D03*
G01X6459985Y-3684991D03*
G01X5824986Y-5014988D03*
G01X5799987Y-4579989D03*
G54D23*
G01X5172988Y-4342989D03*
G54D20*
G01X4631989Y-4289989D03*
G54D19*
G01X6029986Y-4389989D03*
G01X5791185Y-3539991D03*
G01X6419785Y-4114790D03*
G01X5829987Y-2884992D03*
G01X3749990Y-1549995D03*
G01X3749990Y-863658D03*
G01X3749990Y-272497D03*
G01X5129988Y-272497D03*
G01X5974018Y-272497D03*
G01X7279984Y-272497D03*
G01X7274984Y-859997D03*
G01X7274984Y-1544995D03*
G01X4244989Y-5434987D03*
G01X5774986Y-5434987D03*
G01X5604987Y-4754988D03*
G01X2449993Y-2734992D03*
G01X1774995Y-1086996D03*
G01X1294996Y-171625D03*
G01X69998Y-759996D03*
G01X69998Y-65979D03*
G01X64998Y-5434987D03*
G01X8429981Y-5429987D03*
G01X8401981Y-68998D03*
G01X2519993Y-2274993D03*
G01X7584983Y-5139988D03*
G01X6515656Y-5102988D03*
G01X5704987Y-1899994D03*
G01X5554987Y-2354994D03*
G01X5549995Y-1185003D03*
G01X2669993Y-879996D03*
G01X2804993Y-734996D03*
G01X920841Y-789997D03*
G01X2009994Y-2789992D03*
G01X3549991Y-5434987D03*
G01X2824993Y-5434987D03*
G01X3634991Y-5004988D03*
G01X6294985Y-5101988D03*
G01X4030990Y-4100990D03*
G01X4224990Y-4280989D03*
G01X6984984Y-3804990D03*
G01X1444997Y-2951694D03*
G01X2654995Y-3442993D03*
G01X2212996Y-3104994D03*
G01X2343995Y-3391993D03*
G01X1679997Y-3079994D03*
G01X1553562Y-3174994D03*
G01X594999Y-3074994D03*
G01X1853996Y-1282997D03*
G01X1947996Y-2273995D03*
G01X1697997Y-2513995D03*
G01X1870996Y-3518993D03*
G01X814998Y-4064992D03*
G01X1259997Y-4229992D03*
G54D20*
G01X824998Y-4377991D03*
G54D19*
G01X489999Y-4739991D03*
G01X314999Y-3824992D03*
G01X434999Y-4384348D03*
G01X1791996Y-3669993D03*
G01X2279995Y-2804994D03*
G54D20*
G01X3094994Y-4369991D03*
G54D19*
G01X3163994Y-4030992D03*
G01X8429983Y-2219996D03*
G01X8429983Y-3914992D03*
G01X70000Y-2214996D03*
G01X654999Y-170000D03*
G01X1932759Y-172581D03*
G01X2164996Y-65000D03*
G01X2359995Y-2989994D03*
G01X1614997Y-789998D03*
G01X739999Y-589999D03*
G01X1846725Y-590571D03*
G01X1609997Y-1689997D03*
G01X1947996Y-1029998D03*
G01X2554995Y-4409991D03*
G01X1669997Y-3374993D03*
G01X1219998Y-3374993D03*
G01X1444997Y-3375166D03*
G54D20*
G01X1691292Y-3755697D03*
G01X2122996Y-4187992D03*
G54D19*
G01X5571989Y-3064994D03*
G01X4911990Y-3264993D03*
G01X1218998Y-3174994D03*
G01X4403991Y-4706991D03*
G01X6517987Y-4096992D03*
G01X2167994Y-2617995D03*
G01X1776996Y-1411997D03*
G01X1930996Y-1665997D03*
G01X965998Y-4375991D03*
G01X2098996Y-3534993D03*
G01X2548995Y-3941992D03*
G01X3011994Y-4100992D03*
G01X2955994Y-3814992D03*
G01X8100984Y-3804992D03*
G01X4244992Y-5252989D03*
G01X3549993Y-5251989D03*
G01X2825994Y-5250989D03*
G01X4519991Y-4499991D03*
G01X2009996Y-3105994D03*
G01X1099998Y-1654997D03*
G01X836998Y-2510995D03*
G04 Via End*

G04 Track Start*
G54D24*
G01X1118667Y-971325D02*
G01X1118667Y-862387D01*
G01X1019996Y-1069996D02*
G01X1118667Y-971325D01*
G01X1118667Y-862387D02*
G01X819297Y-862387D01*
G01X817897Y-860987D01*
G01X1019996Y-2389993D02*
G01X1019996Y-1069996D01*
G01X1064996Y-2434993D02*
G01X1019996Y-2389993D01*
G01X717957Y-3332031D02*
G01X699997Y-3349991D01*
G01X717957Y-3294991D02*
G01X717957Y-3332031D01*
G01X697957Y-3274991D02*
G01X717957Y-3294991D01*
G01X654642Y-3274991D02*
G01X697957Y-3274991D01*
G01X639997Y-3260347D02*
G01X654642Y-3274991D01*
G01X657958Y-3419991D02*
G01X694997Y-3419991D01*
G01X639997Y-3402031D02*
G01X657958Y-3419991D01*
G01X639997Y-3375391D02*
G01X639997Y-3402031D01*
G01X665397Y-3349991D02*
G01X639997Y-3375391D01*
G01X699997Y-3349991D02*
G01X665397Y-3349991D01*
G01X717957Y-3477030D02*
G01X699997Y-3494991D01*
G01X717957Y-3442952D02*
G01X717957Y-3477030D01*
G01X694997Y-3419991D02*
G01X717957Y-3442952D01*
G01X639997Y-3219992D02*
G01X639997Y-3260347D01*
G54D25*
G01X239998Y-2030894D02*
G01X239998Y-3279991D01*
G54D26*
G01X2394993Y-4829988D02*
G01X4017468Y-4829988D01*
G01X4169990Y-4829988D01*
G54D27*
G01X5725001Y-4639989D02*
G01X5549987Y-4464975D01*
G01X5549987Y-4459989D01*
G54D26*
G01X5069988Y-3874990D02*
G01X5069988Y-3649991D01*
G01X5344986Y-3619991D02*
G01X5289987Y-3564992D01*
G01X5289987Y-2889992D01*
G01X5259988Y-3644991D02*
G01X5229988Y-3614991D01*
G01X5229988Y-2974992D01*
G54D27*
G01X5889986Y-4169990D02*
G01X5919986Y-4199990D01*
G54D26*
G01X5229988Y-2974992D02*
G01X5139988Y-2884992D01*
G54D28*
G01X5679987Y-2924992D02*
G01X5679987Y-3054992D01*
G54D26*
G01X5844787Y-4114790D02*
G01X6419784Y-4114790D01*
G01X4017468Y-4829988D02*
G01X4017468Y-5094988D01*
G01X5791184Y-3539992D02*
G01X5791184Y-4061188D01*
G01X5844787Y-4114790D01*
G54D28*
G01X5679987Y-3054992D02*
G01X5859986Y-3234991D01*
G01X6029986Y-3234991D01*
G01X5014988Y-1179996D02*
G01X5014988Y-2444993D01*
G54D25*
G01X3114992Y-1179996D02*
G01X5014988Y-1179996D01*
G54D24*
G01X1064996Y-2849993D02*
G01X1064996Y-2434993D01*
G01X1553562Y-3174994D02*
G01X1389997Y-3174994D01*
G01X1064996Y-2849993D01*
G01X891203Y-3164998D02*
G01X889996Y-3166205D01*
G01X889996Y-4704989D01*
G54D25*
G01X239998Y-3279991D02*
G01X424999Y-3464993D01*
G54D24*
G01X699997Y-3494991D02*
G01X634999Y-3494991D01*
G01X617038Y-3512952D01*
G01X617038Y-3722032D01*
G01X814998Y-3919992D01*
G01X814998Y-4064992D01*
G01X509746Y-3819739D02*
G01X509746Y-3285243D01*
G01X149998Y-3279991D02*
G01X84999Y-3344991D01*
G01X84999Y-4654988D01*
G01X1469995Y-4234989D02*
G01X1469995Y-3709991D01*
G01X434997Y-1594995D02*
G01X834997Y-1994994D01*
G01X834997Y-2199994D01*
G54D26*
G01X2592493Y-4502489D02*
G01X2659993Y-4434989D01*
G01X3139992Y-4434989D01*
G01X6019986Y-3599991D02*
G01X6040986Y-3620991D01*
G01X6040986Y-3874990D01*
G54D24*
G01X849997Y-3078992D02*
G01X780997Y-3078992D01*
G01X639997Y-3219992D01*
G54D25*
G01X424999Y-4184992D02*
G01X804996Y-4564989D01*
G01X424999Y-3464993D02*
G01X424999Y-4184992D01*
G54D26*
G01X5109988Y-2709993D02*
G01X4904988Y-2709993D01*
G01X5289987Y-2889992D02*
G01X5109988Y-2709993D01*
G54D28*
G01X5014988Y-2444993D02*
G01X4816990Y-2642991D01*
G01X4816990Y-2773707D01*
G01X4891632Y-2848349D01*
G54D27*
G01X5239992Y-4169990D02*
G01X5889986Y-4169990D01*
G01X5214613Y-4144611D02*
G01X5239992Y-4169990D01*
G54D26*
G01X5069988Y-3649991D02*
G01X5157988Y-3561991D01*
G01X5157988Y-3424991D01*
G54D24*
G01X2167994Y-2617995D02*
G01X2437995Y-2617995D01*
G01X1818996Y-1148998D02*
G01X2168996Y-1148998D01*
G01X1853996Y-1282997D02*
G01X1853996Y-2905992D01*
G01X1679997Y-3079992D01*
G54D29*
G01X3929990Y-3964990D02*
G01X2435993Y-2470993D01*
G01X1952395Y-2470993D01*
G54D25*
G01X2316995Y-381999D02*
G01X3114992Y-1179996D01*
G54D24*
G01X2921992Y-4094990D02*
G01X2921992Y-4240989D01*
G01X2922992Y-4241989D01*
G54D26*
G01X1868994Y-4159990D02*
G01X2162996Y-4453991D01*
G01X2162996Y-4597991D01*
G01X2394993Y-4829988D01*
G01X4169990Y-4829988D02*
G01X4383989Y-4615989D01*
G01X4383989Y-4285989D01*
G54D25*
G01X239998Y-2030894D02*
G01X239998Y-893000D01*
G01X750999Y-381999D01*
G01X2316995Y-381999D01*
G54D24*
G01X2437995Y-2617995D02*
G01X2654995Y-2834994D01*
G01X2654995Y-3442993D01*
G01X1697997Y-1269997D02*
G01X1818996Y-1148998D01*
G01X1697997Y-2513995D02*
G01X1697997Y-1269997D01*
G01X509746Y-3285243D02*
G01X997596Y-2797393D01*
G01X997596Y-2465993D01*
G04 Track End*

M02*

