G04 Layer: DrillDrawingLayer*
G04 EasyEDA Pro v2.2.45.4, 2026-02-08 12:52:01*
G04 Gerber Generator version 0.3*
G04 Scale: 100 percent, Rotated: No, Reflected: No*
G04 Dimensions in millimeters*
G04 Leading zeros omitted, absolute positions, 4 integers and 5 decimals*
G04 Generated by one-click*
%FSLAX45Y45*%
%MOMM*%
%AMIconRect*4,1,4,0.28,-0.28,-0.28,-0.28,-0.28,0.28,0.28,0.28,0.28,-0.28,0*4,0,4,0.233333,-0.233333,0.233333,0.233333,-0.233333,0.233333,-0.233333,-0.233333,0.233333,-0.233333,0*%
%AMIconTriangle*4,1,3,-0.339593,0.240473,0.339593,0.240473,0,-0.37884,-0.339593,0.240473,0*4,0,3,-0.265673,0.19404,0,-0.27342,0.266233,0.19404,-0.265673,0.19404,0*%
%AMIconStar6*4,1,12,0.12068,0.20888,0.298527,0.172713,0.241313,0,0.298527,-0.17206,0.12068,-0.208227,0,-0.344073,-0.120073,-0.208227,-0.298573,-0.17206,-0.240707,0,-0.298573,0.17206,-0.120073,0.20888,0,0.344073,0.12068,0.20888,0*4,0,12,-0.000467,0.273467,-0.090067,0.171733,-0.237533,0.136733,-0.193667,-0.007467,-0.237533,-0.1372,-0.090067,-0.171733,-0.000467,-0.273933,0.090067,-0.171733,0.237533,-0.1372,0.194133,0.007,0.237533,0.1372,0.090067,0.171267,-0.000467,0.273467,0*%
%AMIconStar4*4,1,8,-0.311733,0.311733,0,0.202533,0.311733,0.311733,0.202533,0,0.311733,-0.311733,0,-0.202533,-0.304407,-0.311733,-0.202533,0,-0.311733,0.311733,0*4,0,8,0.233333,-0.233333,0.1512,0,0.233333,0.233333,0,0.1512,-0.233333,0.233333,-0.1512,0,-0.233333,-0.233333,0,-0.1512,0.233333,-0.233333,0*%
%AMIconPlus*4,1,12,0.1736,-0.28,-0.1736,-0.28,-0.1736,-0.1736,-0.28,-0.1736,-0.28,0.1736,-0.1736,0.1736,-0.1736,0.28,0.1736,0.28,0.1736,0.1736,0.28,0.1736,0.28,-0.1736,0.1736,-0.1736,0.1736,-0.28,0*4,0,12,0.126933,-0.233333,0.126933,-0.126933,0.233333,-0.126933,0.233333,0.126933,0.126933,0.126933,0.126933,0.233333,-0.126933,0.233333,-0.126933,0.126933,-0.233333,0.126933,-0.233333,-0.126933,-0.126933,-0.126933,-0.126933,-0.233333,0.126933,-0.233333,0*%
%AMIconX*4,1,16,0.28,-0.28,0.076347,-0.28,0,-0.203653,-0.076347,-0.28,-0.28,-0.28,-0.28,-0.076347,-0.203653,0,-0.28,0.076347,-0.28,0.28,-0.076347,0.28,0,0.203653,0.076347,0.28,0.28,0.28,0.28,0.076347,0.203653,0,0.28,-0.076347,0.28,-0.28,0*4,0,16,0.23352,-0.23296,0.23352,-0.095853,0.137107,0.000093,0.23352,0.095853,0.23352,0.2331,0.095853,0.2331,0,0.137107,-0.095853,0.2331,-0.23352,0.2331,-0.23352,0.095853,-0.137107,0.000093,-0.23352,-0.095853,-0.23352,-0.23296,-0.095853,-0.23296,0,-0.137107,0.095853,-0.23296,0.23352,-0.23296,0*%
%AMIconDiamond*4,1,4,0,-0.364,-0.364,0,0,0.364,0.364,0,0,-0.364,0*4,0,4,0,-0.284807,0.284807,0,0,0.28504,-0.284807,0,0,-0.284807,0*%
%AMIconRect2*4,1,6,0.28,-0.28,-0.28,-0.28,-0.28,0.28,-0.23352,0.2331,-0.233333,-0.233333,0.23352,-0.233333,0.28,-0.28,0*4,1,6,0.28,-0.28,0.23352,-0.233333,0.23352,0.2331,-0.23352,0.2331,-0.28,0.28,0.28,0.28,0.28,-0.28,0*4,1,6,0.186853,-0.186667,-0.186667,-0.186667,-0.186667,0.186853,-0.14,0.140187,-0.14,-0.14,0.140187,-0.14,0.186853,-0.186667,0*4,1,6,0.186853,-0.186667,0.140187,-0.14,0.140187,0.140187,-0.14,0.140187,-0.186667,0.186853,0.186853,0.186853,0.186853,-0.186667,0*%
%AMCharA*4,1,8,-0.170893,-0.26096,-0.21448,-0.244347,-0.021187,0.26096,0.0224,0.26096,0.21448,-0.244347,0.170893,-0.26096,0.10696,-0.09268,-0.106587,-0.09268,-0.170893,-0.26096,0*4,0,3,-0.088667,-0.046013,0.089133,-0.046013,0.000467,0.18732,-0.088667,-0.046013,0*%
%AMCharB*4,1,17,-0.183587,-0.26516,-0.183587,0.26516,0.046947,0.26516,0.123293,0.241453,0.15596,0.212427,0.183587,0.159787,0.1834,0.093053,0.160067,0.04732,0.132627,0.01792,0.121053,0.01176,0.132627,0.005413,0.160067,-0.023987,0.1834,-0.06972,0.183587,-0.159787,0.15596,-0.212427,0.123293,-0.24164,0.046947,-0.26516,-0.183587,-0.26516,0*4,0,10,-0.13692,-0.218493,0.043213,-0.218493,0.103413,-0.1988,0.120213,-0.182187,0.139347,-0.14392,0.139347,-0.08596,0.120213,-0.048347,0.103413,-0.03164,0.043213,-0.012133,-0.13692,-0.012133,-0.13692,-0.218493,0*4,0,10,-0.13692,0.034533,0.04312,0.034533,0.103413,0.054973,0.120213,0.071773,0.139347,0.109293,0.139347,0.143733,0.120213,0.182187,0.103413,0.1988,0.043213,0.218493,-0.13692,0.218493,-0.13692,0.034533,0*%
%ADD10IconRect*%
%ADD11C,0.616X0.522667*%
%ADD12IconTriangle*%
%ADD13IconStar6*%
%ADD14IconStar4*%
%ADD15IconPlus*%
%ADD16IconX*%
%ADD17IconDiamond*%
%ADD18IconRect2*%
%ADD19CharA*%
%ADD20CharB*%
G75*


G04 Drill Drawing Start*
G54D10*
G01X239998Y-2030894D03*
G54D11*
G01X862484Y-172589D03*
G01X1727507Y-172589D03*
G54D12*
G01X862484Y-590571D03*
G01X1727507Y-590571D03*
G54D13*
G01X1005004Y-540558D03*
G01X1584987Y-540558D03*
G54D14*
G01X5549987Y-1355002D03*
G01X5549987Y-1004990D03*
G01X5554987Y-2529999D03*
G01X5554987Y-2179987D03*
G54D15*
G01X339998Y-344997D03*
G01X1374995Y-5129988D03*
G01X5544987Y-344987D03*
G01X8149982Y-5129987D03*
G54D16*
G01X3109982Y-1815016D03*
G01X3109982Y-244991D03*
G01X4444979Y-1815008D03*
G01X4444979Y-244999D03*
G01X6639975Y-1810008D03*
G01X6639975Y-239999D03*
G01X7949972Y-1805016D03*
G01X7949972Y-234991D03*
G54D17*
G01X2209994Y-842995D03*
G01X2209994Y-588995D03*
G01X2209994Y-2620995D03*
G01X2209994Y-2366995D03*
G01X2209994Y-2112995D03*
G01X2209994Y-1858995D03*
G01X2209994Y-1604995D03*
G01X2209994Y-1350995D03*
G01X2209994Y-1096995D03*
G54D18*
G01X236497Y-4093990D03*
G01X236497Y-3966990D03*
G01X236497Y-3839990D03*
G01X236497Y-3712990D03*
G01X236497Y-3585990D03*
G01X363497Y-4093990D03*
G01X363497Y-3966990D03*
G01X363497Y-3839990D03*
G01X363497Y-3712990D03*
G01X363497Y-3585990D03*
G54D19*
G01X1235396Y-2479993D03*
G01X1346151Y-966273D03*
G01X1449995Y-2424993D03*
G01X1765634Y-2390632D03*
G01X2134994Y-3579991D03*
G01X2134994Y-3224992D03*
G01X3929990Y-3964990D03*
G01X4724989Y-4299989D03*
G01X5099988Y-4319989D03*
G01X5159988Y-3424991D03*
G01X5214613Y-4144611D03*
G01X6019986Y-3874990D03*
G54D20*
G01X64998Y-5434987D03*
G01X69998Y-759997D03*
G01X69998Y-65979D03*
G01X149998Y-4514989D03*
G01X149998Y-3279992D03*
G01X154998Y-3174992D03*
G01X314997Y-3469991D03*
G01X324997Y-3174992D03*
G01X383296Y-3089992D03*
G01X424997Y-1594995D03*
G01X429997Y-3344991D03*
G01X438298Y-2392885D03*
G01X489997Y-1309995D03*
G01X509997Y-4599989D03*
G01X509997Y-4359989D03*
G01X519747Y-3429741D03*
G01X589997Y-3494991D03*
G01X589997Y-3314991D03*
G01X604997Y-3609991D03*
G01X619997Y-2709993D03*
G01X694997Y-4324989D03*
G01X699997Y-1324995D03*
G01X734997Y-484997D03*
G01X780003Y-1654995D03*
G01X787496Y-3277492D03*
G01X789997Y-3169992D03*
G01X794997Y-3694991D03*
G01X804996Y-4138468D03*
G01X804996Y-3954990D03*
G01X817897Y-860987D03*
G01X834996Y-2304993D03*
G01X834996Y-2199994D03*
G01X834996Y-1884994D03*
G01X839996Y-2864992D03*
G01X859996Y-3084992D03*
G01X884996Y-3224992D03*
G01X889996Y-4704989D03*
G01X905841Y-779997D03*
G01X1001596Y-2474993D03*
G01X1049996Y-3504991D03*
G01X1089996Y-1624995D03*
G01X1118667Y-862387D03*
G01X1138097Y-1080387D03*
G01X1214996Y-864996D03*
G01X1239996Y-1194996D03*
G01X1259996Y-4074990D03*
G01X1264996Y-3724991D03*
G01X1279284Y-3152504D03*
G01X1294996Y-171625D03*
G01X1344995Y-2874992D03*
G01X1469995Y-4234990D03*
G01X1469995Y-3699991D03*
G01X1553697Y-1093087D03*
G01X1564995Y-1624995D03*
G01X1594995Y-2874992D03*
G01X1643642Y-3152504D03*
G01X1659995Y-4234990D03*
G01X1684995Y-2009994D03*
G01X1694995Y-4429989D03*
G01X1711644Y-864087D03*
G01X1724995Y-3969990D03*
G01X1724995Y-2214994D03*
G01X1729995Y-4159990D03*
G01X1759995Y-3752400D03*
G01X1762494Y-3852491D03*
G01X1849994Y-74998D03*
G01X1864994Y-1209996D03*
G01X1941268Y-549997D03*
G01X2014994Y-1949994D03*
G01X2019994Y-2784993D03*
G01X2019994Y-2594993D03*
G01X2024994Y-1689995D03*
G01X2028394Y-2459993D03*
G01X2059994Y-4854988D03*
G01X2074994Y-2854992D03*
G01X2214995Y-3963769D03*
G01X2234994Y-4359989D03*
G01X2239994Y-3579991D03*
G01X2274994Y-3214640D03*
G01X2314293Y-4252205D03*
G01X2394993Y-4829988D03*
G01X2399993Y-4359989D03*
G01X2399993Y-2974992D03*
G01X2429993Y-2854992D03*
G01X2459993Y-5244988D03*
G01X2484993Y-3249992D03*
G01X2507142Y-4474990D03*
G01X2507493Y-4592489D03*
G01X2509993Y-4913576D03*
G01X2509993Y-4744989D03*
G01X2514993Y-2794993D03*
G01X2519993Y-2274994D03*
G01X2599993Y-4253663D03*
G01X2599993Y-4101806D03*
G01X2599993Y-3944990D03*
G01X2599993Y-3779991D03*
G01X2669993Y-879996D03*
G01X2804992Y-734997D03*
G01X2804992Y-479997D03*
G01X2815329Y-4019990D03*
G01X2824992Y-5434987D03*
G01X3024992Y-4239990D03*
G01X3024992Y-3894990D03*
G01X3139992Y-4429989D03*
G01X3144992Y-4074990D03*
G01X3189992Y-4754989D03*
G01X3193282Y-2464993D03*
G01X3349991Y-3904990D03*
G01X3489991Y-3809990D03*
G01X3492178Y-4494989D03*
G01X3492178Y-4172090D03*
G01X3549991Y-5434987D03*
G01X3549991Y-5249988D03*
G01X3634991Y-5004988D03*
G01X3704991Y-4494989D03*
G01X3704991Y-4169990D03*
G01X3749991Y-1549995D03*
G01X3749991Y-863658D03*
G01X3749991Y-272497D03*
G01X3754991Y-2224480D03*
G01X4017469Y-5094988D03*
G01X4034990Y-4074990D03*
G01X4069990Y-3804990D03*
G01X4194990Y-5024988D03*
G01X4244990Y-5434987D03*
G01X4244990Y-5249988D03*
G01X4244990Y-4304989D03*
G01X4334989Y-4509989D03*
G01X4359989Y-2459993D03*
G01X4409989Y-4914988D03*
G01X4424989Y-4289990D03*
G01X4594989Y-3689991D03*
G01X4784989Y-3979990D03*
G01X4891632Y-2848349D03*
G01X4904988Y-2709993D03*
G01X4929988Y-5114288D03*
G01X4934988Y-5434987D03*
G01X5014988Y-1179996D03*
G01X5069988Y-3874990D03*
G01X5110248Y-4500249D03*
G01X5129988Y-272497D03*
G01X5139985Y-2884992D03*
G01X5259988Y-3644991D03*
G01X5284988Y-4944988D03*
G01X5344987Y-4654989D03*
G01X5344987Y-3619991D03*
G01X5414987Y-4095003D03*
G01X5414987Y-3955003D03*
G01X5414987Y-3814990D03*
G01X5429987Y-4944988D03*
G01X5549987Y-4459989D03*
G01X5549995Y-1520003D03*
G01X5554987Y-2354993D03*
G01X5554988Y-4094350D03*
G01X5554988Y-3955003D03*
G01X5554988Y-3815323D03*
G01X5604987Y-4754989D03*
G01X5679987Y-2924992D03*
G01X5694989Y-4095003D03*
G01X5694989Y-3955003D03*
G01X5694989Y-3814396D03*
G01X5704987Y-1899994D03*
G01X5714984Y-3604991D03*
G01X5724987Y-4304989D03*
G01X5725001Y-4639989D03*
G01X5749987Y-2794993D03*
G01X5774987Y-5434987D03*
G01X5791185Y-3539991D03*
G01X5799986Y-4579989D03*
G01X5824986Y-5014988D03*
G01X5909986Y-3599991D03*
G01X5919986Y-4199990D03*
G01X5974018Y-272497D03*
G01X6019986Y-3599991D03*
G01X6029986Y-4389989D03*
G01X6029986Y-3234992D03*
G01X6324985Y-5054988D03*
G01X6419785Y-4114790D03*
G01X6459985Y-3684991D03*
G01X6506122Y-2464993D03*
G01X6510656Y-5139988D03*
G01X6514985Y-4079990D03*
G01X6734070Y-2464993D03*
G01X6984984Y-3824990D03*
G01X7274984Y-2219994D03*
G01X7274984Y-1544995D03*
G01X7274984Y-859996D03*
G01X7279984Y-272497D03*
G01X7564983Y-3819990D03*
G01X7584983Y-5139988D03*
G01X7709983Y-3914990D03*
G01X7866210Y-2469989D03*
G01X8094982Y-2474993D03*
G01X8429981Y-5429987D03*
G01X8429981Y-69998D03*
G04 Drill Drawing End*

M02*

