G04 Layer: TopSolderMaskLayer*
G04 EasyEDA Pro v2.2.45.4, 2026-02-08 12:52:01*
G04 Gerber Generator version 0.3*
G04 Scale: 100 percent, Rotated: No, Reflected: No*
G04 Dimensions in millimeters*
G04 Leading zeros omitted, absolute positions, 4 integers and 5 decimals*
G04 Generated by one-click*
%FSLAX45Y45*%
%MOMM*%
%AMRoundRect*1,1,$1,$2,$3*1,1,$1,$4,$5*1,1,$1,0-$2,0-$3*1,1,$1,0-$4,0-$5*20,1,$1,$2,$3,$4,$5,0*20,1,$1,$4,$5,0-$2,0-$3,0*20,1,$1,0-$2,0-$3,0-$4,0-$5,0*20,1,$1,0-$4,0-$5,$2,$3,0*4,1,4,$2,$3,$4,$5,0-$2,0-$3,0-$4,0-$5,$2,$3,0*%
%ADD10O,0.3016X0.9016*%
%ADD11O,0.9016X0.3016*%
%ADD12RoundRect,0.09881X-1.75139X-1.75139X-1.75139X1.75139*%
%ADD13C,3.10159*%
%ADD14RoundRect,0.09131X-0.40514X0.45514X0.40514X0.45514*%
%ADD15RoundRect,0.0891X-0.3174X0.5587X0.3174X0.5587*%
%ADD16RoundRect,0.09131X-0.45514X-0.40514X-0.45514X0.40514*%
%ADD17RoundRect,0.0995X-0.30643X0.30643X0.30643X0.30643*%
%ADD18RoundRect,0.08875X-0.30643X0.30643X0.30643X0.30643*%
%ADD19RoundRect,0.08875X0.0X-0.43335X-0.43335X0.0*%
%ADD20RoundRect,0.09131X-0.40514X0.40514X0.40514X0.40514*%
%ADD21RoundRect,0.09138X-0.43711X-0.40835X-0.43711X0.40835*%
%ADD22RoundRect,0.09138X-0.40835X0.43711X0.40835X0.43711*%
%ADD23RoundRect,0.07778X-0.13612X-0.27161X-0.13612X0.27161*%
%ADD24RoundRect,0.09091X-0.80454X-0.45454X-0.80454X0.45454*%
%ADD25RoundRect,0.08109X-0.16026X0.66026X0.16026X0.66026*%
%ADD26O,1.3016X1.9016*%
%ADD27O,1.3016X2.1016*%
%ADD28C,1.1016*%
%ADD29O,0.37003X1.60002*%
%ADD30O,1.60002X0.37003*%
%ADD31RoundRect,0.09336X-1.00412X-0.52912X-1.00412X0.52912*%
%ADD32RoundRect,0.09881X-2.00139X-1.75139X-2.00139X1.75139*%
%ADD33RoundRect,0.09618X-0.85271X-0.85271X-0.85271X0.85271*%
%ADD34C,1.8016*%
%ADD35RoundRect,0.09721X-1.6622X-1.0772X-1.6622X1.0772*%
%ADD36C,1.7016*%
%ADD37O,1.84361X0.46561*%
G75*


G04 Pad Start*
G54D10*
G01X5374964Y-4204990D03*
G01X5414969Y-4204990D03*
G01X5454974Y-4204990D03*
G01X5494979Y-4204990D03*
G01X5534984Y-4204990D03*
G01X5574964Y-4204990D03*
G01X5614969Y-4204990D03*
G01X5654974Y-4204990D03*
G01X5694979Y-4204990D03*
G01X5734984Y-4204990D03*
G01X5734984Y-3704991D03*
G01X5694979Y-3704991D03*
G01X5654974Y-3704991D03*
G01X5614969Y-3704991D03*
G01X5574964Y-3704991D03*
G01X5534984Y-3704991D03*
G01X5494979Y-3704991D03*
G01X5454974Y-3704991D03*
G01X5414969Y-3704991D03*
G01X5374964Y-3704991D03*
G54D11*
G01X5304988Y-4135013D03*
G01X5304988Y-4094957D03*
G01X5304988Y-4055079D03*
G01X5304988Y-4014947D03*
G01X5304988Y-3975069D03*
G01X5304988Y-3934937D03*
G01X5304988Y-3895059D03*
G01X5304988Y-3854927D03*
G01X5304988Y-3815049D03*
G01X5304988Y-3774993D03*
G01X5804987Y-3774993D03*
G01X5804987Y-3815049D03*
G01X5804987Y-3854927D03*
G01X5804987Y-3895059D03*
G01X5804987Y-3934937D03*
G01X5804987Y-3975069D03*
G01X5804987Y-4014947D03*
G01X5804987Y-4055079D03*
G01X5804987Y-4094957D03*
G01X5804987Y-4135013D03*
G54D12*
G01X5554974Y-3955003D03*
G54D13*
G01X4444979Y-244999D03*
G01X4444979Y-1815009D03*
G01X6639975Y-239999D03*
G01X6639975Y-1810009D03*
G01X3109982Y-244991D03*
G01X3109982Y-1815016D03*
G01X7949972Y-234991D03*
G01X7949972Y-1805016D03*
G54D14*
G01X523300Y-2212785D03*
G01X383296Y-2212785D03*
G01X523300Y-2962085D03*
G01X383296Y-2962085D03*
G54D15*
G01X334029Y-2767471D03*
G01X523970Y-2767471D03*
G01X523970Y-2507477D03*
G01X429050Y-2507477D03*
G01X334029Y-2507477D03*
G54D14*
G01X345000Y-1464995D03*
G01X204995Y-1464995D03*
G54D16*
G01X824997Y-1324993D03*
G01X824997Y-1464998D03*
G54D14*
G01X520000Y-1849994D03*
G01X379995Y-1849994D03*
G54D18*
G01X1554995Y-964996D03*
G01X1454995Y-964996D03*
G01X1139996Y-964996D03*
G01X1239996Y-964996D03*
G54D19*
G01X970351Y-1025351D03*
G01X899641Y-954641D03*
G54D20*
G01X720340Y-2589893D03*
G01X719654Y-2440094D03*
G54D21*
G01X2054994Y-3704654D03*
G01X2054994Y-3855327D03*
G01X2214994Y-3850327D03*
G01X2214994Y-3699654D03*
G01X644997Y-684660D03*
G01X644997Y-835333D03*
G01X1939994Y-689660D03*
G01X1939994Y-840333D03*
G54D22*
G01X344661Y-1134996D03*
G01X495334Y-1134996D03*
G01X679660Y-1134996D03*
G01X830333Y-1134996D03*
G54D21*
G01X719997Y-1809658D03*
G01X719997Y-1960331D03*
G01X719997Y-2124657D03*
G01X719997Y-2275330D03*
G54D23*
G01X670003Y-1464999D03*
G01X619991Y-1464999D03*
G01X570003Y-1464999D03*
G01X519991Y-1464999D03*
G01X519991Y-1654991D03*
G01X570003Y-1654991D03*
G01X619991Y-1654991D03*
G01X670003Y-1654991D03*
G54D24*
G01X594997Y-1559995D03*
G54D25*
G01X1470002Y-667406D03*
G01X1419989Y-667406D03*
G01X1370002Y-667406D03*
G01X1319989Y-667406D03*
G01X1270002Y-667406D03*
G01X1219989Y-667406D03*
G01X1170028Y-667406D03*
G01X1119990Y-667406D03*
G36*
G01X1584993Y-597312D02*
G01X1614989Y-597312D01*
G01X1644987Y-597297D01*
G02X1650090Y-602397I3J-5100D01*
G01X1650090Y-732399D01*
G02X1644990Y-737500I-5100J0D01*
G01X1614994Y-737500D01*
G01X1584995Y-737515D01*
G02X1579892Y-732415I-3J5100D01*
G01X1579892Y-602412D01*
G02X1584993Y-597312I5100J0D01*
G37*
G36*
G01X1010097Y-602417D02*
G01X1010097Y-732415D01*
G02X1004996Y-737515I-5100J0D01*
G01X944994Y-737515D01*
G02X939893Y-732415I0J5100D01*
G01X939893Y-602417D01*
G02X944994Y-597317I5100J0D01*
G01X1004996Y-597317D01*
G02X1010097Y-602417I0J-5100D01*
G37*
G36*
G01X1019878Y-732415D02*
G01X1019878Y-602417D01*
G02X1024978Y-597317I5100J0D01*
G01X1084981Y-597317D01*
G02X1090081Y-602417I0J-5100D01*
G01X1090081Y-732415D01*
G02X1084981Y-737515I-5100J0D01*
G01X1024978Y-737515D01*
G02X1019878Y-732415I0J5100D01*
G37*
G36*
G01X1504993Y-597302D02*
G01X1534987Y-597302D01*
G01X1564990Y-597299D01*
G02X1570090Y-602400I0J-5100D01*
G01X1570090Y-732397D01*
G02X1564990Y-737497I-5100J0D01*
G01X1534995Y-737497D01*
G01X1504993Y-737500D01*
G02X1499892Y-732399I-0J5100D01*
G01X1499892Y-602402D01*
G02X1504993Y-597302I5100J0D01*
G37*
G54D26*
G01X862484Y-172588D03*
G54D27*
G01X862484Y-590571D03*
G01X1727507Y-590571D03*
G54D26*
G01X1727507Y-172588D03*
G54D28*
G01X363498Y-4093990D03*
G01X363498Y-3966990D03*
G01X363498Y-3839990D03*
G01X363498Y-3712990D03*
G01X363498Y-3585990D03*
G01X236498Y-4093990D03*
G01X236498Y-3966990D03*
G01X236498Y-3839990D03*
G01X236498Y-3712990D03*
G01X236498Y-3585990D03*
G54D22*
G01X234661Y-4359989D03*
G01X385334Y-4359989D03*
G54D16*
G01X1589995Y-3829988D03*
G01X1589995Y-3969993D03*
G01X1354996Y-3969993D03*
G01X1354996Y-3829988D03*
G01X1869994Y-2714995D03*
G01X1869994Y-2574991D03*
G01X949996Y-2624990D03*
G01X949996Y-2764995D03*
G01X794996Y-3424989D03*
G01X794996Y-3564993D03*
G01X709997Y-2859990D03*
G01X709997Y-2999995D03*
G01X1169996Y-3824988D03*
G01X1169996Y-3964993D03*
G54D21*
G01X509997Y-4739652D03*
G01X509997Y-4890325D03*
G54D29*
G01X1169990Y-3574984D03*
G01X1220002Y-3574984D03*
G01X1269989Y-3574984D03*
G01X1320002Y-3574984D03*
G01X1369989Y-3574984D03*
G01X1420002Y-3574984D03*
G01X1469989Y-3574984D03*
G01X1520002Y-3574984D03*
G01X1569989Y-3574984D03*
G01X1620001Y-3574984D03*
G01X1669989Y-3574984D03*
G01X1720001Y-3574984D03*
G54D30*
G01X1869988Y-3424997D03*
G01X1869988Y-3374985D03*
G01X1869988Y-3324998D03*
G01X1869988Y-3274985D03*
G01X1869988Y-3224998D03*
G01X1869988Y-3174986D03*
G01X1869988Y-3124998D03*
G01X1869988Y-3074985D03*
G01X1869988Y-3024998D03*
G01X1869988Y-2974986D03*
G01X1869988Y-2924999D03*
G01X1869988Y-2874986D03*
G54D29*
G01X1720001Y-2724999D03*
G01X1669988Y-2724999D03*
G01X1620001Y-2724999D03*
G01X1569989Y-2724999D03*
G01X1520002Y-2724999D03*
G01X1469989Y-2724999D03*
G01X1420002Y-2724999D03*
G01X1369989Y-2724999D03*
G01X1320002Y-2724999D03*
G01X1269989Y-2724999D03*
G01X1220002Y-2724999D03*
G01X1169990Y-2724999D03*
G54D30*
G01X1020003Y-2874986D03*
G01X1020003Y-2924999D03*
G01X1020003Y-2974986D03*
G01X1020003Y-3024998D03*
G01X1020003Y-3074985D03*
G01X1020003Y-3124998D03*
G01X1020003Y-3174986D03*
G01X1020003Y-3224998D03*
G01X1020003Y-3274985D03*
G01X1020003Y-3324998D03*
G01X1020003Y-3374985D03*
G01X1020003Y-3424997D03*
G54D31*
G01X249998Y-4676483D03*
G01X249998Y-5083493D03*
G54D14*
G01X2134991Y-3099992D03*
G01X2274996Y-3099992D03*
G54D16*
G01X4154990Y-4174992D03*
G01X4154990Y-4034987D03*
G01X4324989Y-4174992D03*
G01X4324989Y-4034987D03*
G54D14*
G01X3889993Y-4914988D03*
G01X3749988Y-4914988D03*
G01X3889993Y-5089988D03*
G01X3749988Y-5089988D03*
G54D16*
G01X4284989Y-4769986D03*
G01X4284989Y-4909991D03*
G01X4109990Y-4769986D03*
G01X4109990Y-4909991D03*
G01X2749993Y-4969991D03*
G01X2749993Y-4829986D03*
G01X2749993Y-4499986D03*
G01X2749993Y-4639991D03*
G01X2929992Y-4499986D03*
G01X2929992Y-4639991D03*
G01X2929992Y-4969991D03*
G01X2929992Y-4829986D03*
G54D14*
G01X3284989Y-2339994D03*
G01X3424994Y-2339994D03*
G01X3109995Y-2339994D03*
G01X2969990Y-2339994D03*
G01X3709988Y-2464993D03*
G01X3849993Y-2464993D03*
G01X4270000Y-2340005D03*
G01X4129996Y-2340005D03*
G01X4444987Y-2339994D03*
G01X4584991Y-2339994D03*
G54D16*
G01X4839988Y-4094987D03*
G01X4839988Y-4234992D03*
G01X4864988Y-4999991D03*
G01X4864988Y-4859986D03*
G54D14*
G01X4854986Y-4409989D03*
G01X4994991Y-4409989D03*
G01X4854986Y-4584989D03*
G01X4994991Y-4584989D03*
G54D22*
G01X2890329Y-4174990D03*
G01X2739656Y-4174990D03*
G01X2890329Y-3864990D03*
G01X2739656Y-3864990D03*
G01X2890329Y-4329989D03*
G01X2739656Y-4329989D03*
G01X4675325Y-4409989D03*
G01X4524652Y-4409989D03*
G01X4675325Y-4584989D03*
G01X4524652Y-4584989D03*
G54D32*
G01X3224992Y-3659988D03*
G01X3224992Y-2699995D03*
G01X4334989Y-3654988D03*
G01X4334989Y-2694995D03*
G54D16*
G01X5909986Y-3339989D03*
G01X5909986Y-3479994D03*
G01X5639987Y-3304989D03*
G01X5639987Y-3444994D03*
G54D14*
G01X4854986Y-2274994D03*
G01X4994991Y-2274994D03*
G01X5304990Y-1804995D03*
G01X5164985Y-1804995D03*
G01X4859986Y-2464993D03*
G01X4999991Y-2464993D03*
G54D20*
G01X5919643Y-4320090D03*
G01X5920329Y-4469889D03*
G54D21*
G01X5919986Y-4790325D03*
G01X5919986Y-4639652D03*
G01X5929986Y-3120329D03*
G01X5929986Y-2969656D03*
G54D14*
G01X5469990Y-3499991D03*
G01X5329985Y-3499991D03*
G01X5469990Y-3324991D03*
G01X5329985Y-3324991D03*
G01X5469990Y-3149992D03*
G01X5329985Y-3149992D03*
G54D16*
G01X6119986Y-3364989D03*
G01X6119986Y-3504993D03*
G01X5049988Y-3354989D03*
G01X5049988Y-3494994D03*
G01X5049988Y-3019990D03*
G01X5049988Y-3159994D03*
G01X6119986Y-2974989D03*
G01X6119986Y-3114995D03*
G54D14*
G01X6109988Y-3984990D03*
G01X5969983Y-3984990D03*
G01X6109988Y-3769990D03*
G01X5969983Y-3769990D03*
G01X4999986Y-3979990D03*
G01X5139990Y-3979990D03*
G01X5139990Y-3769990D03*
G01X4999986Y-3769990D03*
G54D16*
G01X5029988Y-2634990D03*
G01X5029988Y-2774995D03*
G54D14*
G01X5044985Y-4859988D03*
G01X5184990Y-4859988D03*
G01X7774985Y-2319994D03*
G01X7634980Y-2319994D03*
G01X7954980Y-2319994D03*
G01X8094985Y-2319994D03*
G01X7354986Y-2469993D03*
G01X7214981Y-2469993D03*
G01X6824995Y-2320002D03*
G01X6965000Y-2320002D03*
G01X6644987Y-2319994D03*
G01X6504983Y-2319994D03*
G54D21*
G01X5725001Y-4759661D03*
G01X5725001Y-4910334D03*
G01X4674989Y-4029653D03*
G01X4674989Y-4180326D03*
G54D22*
G01X5190324Y-5189988D03*
G01X5039651Y-5189988D03*
G54D14*
G01X5814984Y-1799994D03*
G01X5954989Y-1799994D03*
G01X5044985Y-5029988D03*
G01X5184990Y-5029988D03*
G54D32*
G01X7834983Y-3669988D03*
G01X7834983Y-2709995D03*
G01X6724985Y-3669988D03*
G01X6724985Y-2709995D03*
G54D22*
G01X2239657Y-4494989D03*
G01X2390330Y-4494989D03*
G01X2390330Y-4654989D03*
G01X2239657Y-4654989D03*
G54D33*
G01X2209994Y-588995D03*
G54D34*
G01X2209994Y-842995D03*
G01X2209994Y-1096995D03*
G01X2209994Y-1350995D03*
G01X2209994Y-1604995D03*
G01X2209994Y-1858995D03*
G01X2209994Y-2112995D03*
G01X2209994Y-2366995D03*
G01X2209994Y-2620995D03*
G54D21*
G01X4519989Y-4180326D03*
G01X4519989Y-4029653D03*
G54D35*
G01X6423040Y-4880188D03*
G01X6423040Y-4297613D03*
G54D14*
G01X5329985Y-2979992D03*
G01X5469990Y-2979992D03*
G54D36*
G01X5554987Y-2179987D03*
G01X5554987Y-2530000D03*
G01X5549987Y-1004990D03*
G01X5549987Y-1355002D03*
G54D37*
G01X3887087Y-4627496D03*
G01X3887087Y-4562497D03*
G01X3887087Y-4497498D03*
G01X3887087Y-4432500D03*
G01X3887087Y-4367476D03*
G01X3887087Y-4302477D03*
G01X3887087Y-4237479D03*
G01X3887087Y-4172480D03*
G01X3887087Y-4107481D03*
G01X3887087Y-4042483D03*
G01X3312895Y-4627496D03*
G01X3312895Y-4562497D03*
G01X3312895Y-4497498D03*
G01X3312895Y-4432500D03*
G01X3312895Y-4367476D03*
G01X3312895Y-4302477D03*
G01X3312895Y-4237479D03*
G01X3312895Y-4172480D03*
G01X3312895Y-4107481D03*
G01X3312895Y-4042483D03*
G04 Pad End*

M02*

